<svg width="178" height="31" viewBox="0 0 178 31" fill="none" xmlns="http://www.w3.org/2000/svg">
<path d="M14.4306 4.08812C14.9873 2.99724 16.546 2.99724 17.1028 4.08812L19.3752 8.54094C19.7384 9.25274 20.4201 9.74799 21.2093 9.87351L26.1464 10.6587C27.3559 10.8511 27.8376 12.3335 26.9721 13.2001L23.4395 16.7373C22.8748 17.3027 22.6144 18.104 22.7389 18.8934L23.5178 23.8315C23.7086 25.0413 22.4476 25.9575 21.356 25.4022L16.9002 23.1355C16.188 22.7731 15.3454 22.7731 14.6331 23.1355L10.1774 25.4022C9.08581 25.9575 7.82478 25.0413 8.01559 23.8315L8.79447 18.8934C8.91897 18.104 8.6586 17.3027 8.0939 16.7373L4.56123 13.2001C3.69577 12.3335 4.17745 10.8511 5.38696 10.6587L10.3241 9.87351C11.1133 9.74799 11.7949 9.25274 12.1582 8.54094L14.4306 4.08812Z" fill="#FFCB05" stroke="#1B449C"/>
<path d="M51.0195 4.08812C51.5762 2.99724 53.1349 2.99724 53.6916 4.08812L55.9641 8.54094C56.3273 9.25274 57.009 9.74799 57.7982 9.87351L62.7353 10.6587C63.9448 10.8511 64.4265 12.3335 63.561 13.2001L60.0283 16.7373C59.4636 17.3027 59.2033 18.104 59.3278 18.8934L60.1066 23.8315C60.2975 25.0413 59.0364 25.9575 57.9448 25.4022L53.4891 23.1355C52.7768 22.7731 51.9343 22.7731 51.222 23.1355L46.7663 25.4022C45.6747 25.9575 44.4136 25.0413 44.6045 23.8315L45.3833 18.8934C45.5078 18.104 45.2475 17.3027 44.6828 16.7373L41.1501 13.2001C40.2846 12.3335 40.7663 10.8511 41.9758 10.6587L46.9129 9.87351C47.7022 9.74799 48.3838 9.25274 48.7471 8.54094L51.0195 4.08812Z" fill="#FFCB05" stroke="#1B449C"/>
<path d="M87.6083 4.08812C88.1651 2.99724 89.7238 2.99724 90.2805 4.08812L92.5529 8.54094C92.9162 9.25274 93.5978 9.74799 94.387 9.87351L99.3241 10.6587C100.534 10.8511 101.015 12.3335 100.15 13.2001L96.6172 16.7373C96.0525 17.3027 95.7921 18.104 95.9166 18.8934L96.6955 23.8315C96.8863 25.0413 95.6253 25.9575 94.5337 25.4022L90.078 23.1355C89.3657 22.7731 88.5231 22.7731 87.8109 23.1355L83.3551 25.4022C82.2635 25.9575 81.0025 25.0413 81.1933 23.8315L81.9722 18.8934C82.0967 18.104 81.8363 17.3027 81.2716 16.7373L77.739 13.2001C76.8735 12.3335 77.3552 10.8511 78.5647 10.6587L83.5018 9.87351C84.291 9.74799 84.9727 9.25274 85.3359 8.54094L87.6083 4.08812Z" fill="#FFCB05" stroke="#1B449C"/>
<path d="M124.197 4.08812C124.754 2.99724 126.313 2.99724 126.869 4.08812L129.142 8.54094C129.505 9.25274 130.187 9.74799 130.976 9.87351L135.913 10.6587C137.123 10.8511 137.604 12.3335 136.739 13.2001L133.206 16.7373C132.641 17.3027 132.381 18.104 132.506 18.8934L133.284 23.8315C133.475 25.0413 132.214 25.9575 131.123 25.4022L126.667 23.1355C125.955 22.7731 125.112 22.7731 124.4 23.1355L119.944 25.4022C118.852 25.9575 117.591 25.0413 117.782 23.8315L118.561 18.8934C118.686 18.104 118.425 17.3027 117.86 16.7373L114.328 13.2001C113.462 12.3335 113.944 10.8511 115.154 10.6587L120.091 9.87351C120.88 9.74799 121.562 9.25274 121.925 8.54094L124.197 4.08812Z" fill="#FFCB05" stroke="#1B449C"/>
<path d="M160.786 4.08812C161.343 2.99724 162.902 2.99724 163.458 4.08812L165.731 8.54094C166.094 9.25274 166.776 9.74799 167.565 9.87351L172.502 10.6587C173.711 10.8511 174.193 12.3335 173.328 13.2001L169.795 16.7373C169.23 17.3027 168.97 18.104 169.094 18.8934L169.873 23.8315C170.064 25.0413 168.803 25.9575 167.711 25.4022L163.256 23.1355C162.543 22.7731 161.701 22.7731 160.989 23.1355L156.533 25.4022C155.441 25.9575 154.18 25.0413 154.371 23.8315L155.15 18.8934C155.274 18.104 155.014 17.3027 154.449 16.7373L150.917 13.2001C150.051 12.3335 150.533 10.8511 151.742 10.6587L156.68 9.87351C157.469 9.74799 158.15 9.25274 158.514 8.54094L160.786 4.08812Z" fill="#FFCB05" stroke="#1B449C"/>
</svg>
