<svg width="317" height="216" viewBox="0 0 317 216" fill="none" xmlns="http://www.w3.org/2000/svg">
<path d="M30.1595 21.77C29.1395 19.89 27.9795 18 26.6795 16.1C25.3795 14.18 24.0995 12.38 22.8395 10.7C21.5795 9.02 20.4695 7.6 19.5095 6.44C18.5495 5.26 17.8995 4.48 17.5595 4.1C18.1395 3.8 18.8895 3.48 19.8095 3.14C20.7495 2.78 21.7395 2.44 22.7795 2.12C23.8195 1.78 24.8195 1.49 25.7795 1.25C26.7395 1.01 27.5395 0.84 28.1795 0.74C28.6595 1.36 29.2295 2.25 29.8895 3.41C30.5495 4.55 31.2395 5.78 31.9595 7.1C32.6795 8.42 33.3595 9.7 33.9995 10.94C34.6595 12.16 35.1995 13.19 35.6195 14.03C36.2595 12.99 36.8595 11.89 37.4195 10.73C37.9795 9.57 38.4995 8.42 38.9795 7.28C39.4595 6.12 39.8895 5.03 40.2695 4.01C40.6495 2.99 40.9495 2.09 41.1695 1.31C42.6295 1.53 44.0195 1.83 45.3395 2.21C46.6595 2.57 47.8195 2.96 48.8195 3.38C49.8195 3.8 50.5595 4.21 51.0395 4.61C50.5595 5.73 49.8695 7.03 48.9695 8.51C48.0895 9.99 47.1095 11.51 46.0295 13.07C44.9695 14.63 43.9395 16.1 42.9395 17.48C41.9395 18.86 41.0895 20.03 40.3895 20.99C41.0895 21.91 41.8695 23.02 42.7295 24.32C43.5895 25.6 44.4695 26.96 45.3695 28.4C46.2695 29.84 47.1295 31.26 47.9495 32.66C48.7695 34.04 49.4895 35.3 50.1095 36.44C50.7295 37.56 51.1795 38.45 51.4595 39.11C50.6395 39.61 49.6695 40.08 48.5495 40.52C47.4295 40.94 46.2995 41.3 45.1595 41.6C44.0395 41.92 43.0495 42.16 42.1895 42.32C41.7895 41.22 41.2995 40 40.7195 38.66C40.1395 37.32 39.4395 35.88 38.6195 34.34C37.7995 32.78 36.8495 31.12 35.7695 29.36C35.3295 30.14 34.8495 30.97 34.3295 31.85C33.8095 32.73 33.2695 33.61 32.7095 34.49C32.1495 35.35 31.6095 36.19 31.0895 37.01C30.5695 37.81 30.0895 38.54 29.6495 39.2C29.2095 39.86 28.8295 40.41 28.5095 40.85C28.2095 41.27 27.9995 41.55 27.8795 41.69C26.2795 41.53 24.7395 41.26 23.2595 40.88C21.7995 40.5 20.0595 40.02 18.0395 39.44C18.9995 38.2 20.0295 36.83 21.1295 35.33C22.2295 33.83 23.3195 32.3 24.3995 30.74C25.4995 29.16 26.5395 27.61 27.5195 26.09C28.5195 24.55 29.3995 23.11 30.1595 21.77ZM66.212 41.54C65.432 41.54 64.502 41.53 63.422 41.51C62.362 41.49 61.282 41.45 60.182 41.39C59.102 41.33 58.122 41.25 57.242 41.15C57.202 39.85 57.162 38.19 57.122 36.17C57.082 34.13 57.042 31.96 57.002 29.66C56.982 27.36 56.972 25.17 56.972 23.09C56.972 19.89 56.992 16.47 57.032 12.83C57.092 9.19 57.162 5.42 57.242 1.52C57.582 1.5 58.122 1.49 58.862 1.49C59.602 1.47 60.432 1.45 61.352 1.43C62.292 1.39 63.192 1.37 64.052 1.37C64.932 1.35 65.672 1.34 66.272 1.34C66.392 3.48 66.492 5.86 66.572 8.48C66.652 11.08 66.712 13.74 66.752 16.46C66.792 19.18 66.812 21.79 66.812 24.29C66.812 25.53 66.802 26.82 66.782 28.16C66.782 29.5 66.772 30.83 66.752 32.15C66.732 33.47 66.692 34.73 66.632 35.93C66.572 37.13 66.512 38.22 66.452 39.2C66.392 40.16 66.312 40.94 66.212 41.54ZM72.2157 9.89C72.1157 9.45 72.0257 8.83 71.9457 8.03C71.8857 7.21 71.8257 6.36 71.7657 5.48C71.7257 4.58 71.6857 3.78 71.6457 3.08C71.6257 2.36 71.6157 1.87 71.6157 1.61C73.8557 1.45 76.4057 1.31 79.2657 1.19C82.1457 1.05 85.0557 0.979997 87.9957 0.979997C90.2157 0.979997 92.3757 1.03 94.4757 1.13C96.5957 1.21 98.5257 1.38 100.266 1.64C100.286 3.3 100.236 4.85 100.116 6.29C99.9957 7.71 99.8557 8.78 99.6957 9.5C99.3157 9.5 98.7657 9.5 98.0457 9.5C97.3257 9.48 96.5257 9.47 95.6457 9.47C94.7857 9.45 93.9357 9.44 93.0957 9.44C92.2557 9.42 91.5257 9.4 90.9057 9.38C90.9257 10.12 90.9657 11.22 91.0257 12.68C91.0857 14.12 91.1557 15.77 91.2357 17.63C91.3157 19.49 91.4057 21.44 91.5057 23.48C91.6057 25.52 91.6957 27.52 91.7757 29.48C91.8757 31.44 91.9557 33.24 92.0157 34.88C92.0957 36.5 92.1557 37.84 92.1957 38.9C92.2557 39.94 92.2857 40.56 92.2857 40.76C91.4857 40.88 90.4457 40.99 89.1657 41.09C87.8857 41.19 86.6057 41.27 85.3257 41.33C84.0657 41.39 83.0357 41.42 82.2357 41.42C82.1757 40.24 82.1157 38.82 82.0557 37.16C81.9957 35.48 81.9457 33.67 81.9057 31.73C81.8657 29.77 81.8257 27.77 81.7857 25.73C81.7457 23.67 81.7157 21.66 81.6957 19.7C81.6757 17.74 81.6657 15.94 81.6657 14.3C81.6657 13.38 81.6657 12.52 81.6657 11.72C81.6657 10.92 81.6757 10.2 81.6957 9.56C81.0157 9.6 80.2757 9.64 79.4757 9.68C78.6757 9.7 77.8557 9.73 77.0157 9.77C76.1757 9.81 75.3457 9.84 74.5257 9.86C73.7057 9.88 72.9357 9.89 72.2157 9.89ZM128.025 41.18C126.805 41.2 125.515 41.17 124.155 41.09C122.815 41.03 121.575 40.95 120.435 40.85C119.295 40.75 118.415 40.66 117.795 40.58C117.795 40.38 117.795 39.83 117.795 38.93C117.795 38.03 117.795 36.88 117.795 35.48C117.795 34.08 117.795 32.53 117.795 30.83C117.795 29.11 117.795 27.33 117.795 25.49C117.815 23.65 117.825 21.85 117.825 20.09C117.825 17.91 117.815 15.75 117.795 13.61C117.775 11.45 117.745 9.45 117.705 7.61C117.665 5.75 117.605 4.21 117.525 2.99C117.925 2.99 118.535 3.01 119.355 3.05C120.175 3.09 121.075 3.14 122.055 3.2C123.055 3.26 124.025 3.34 124.965 3.44C125.905 3.52 126.705 3.61 127.365 3.71C128.665 5.59 129.915 7.51 131.115 9.47C132.335 11.41 133.485 13.37 134.565 15.35C135.665 17.31 136.695 19.27 137.655 21.23C138.635 23.19 139.545 25.12 140.385 27.02L139.155 3.53C139.755 3.53 140.485 3.56 141.345 3.62C142.225 3.68 143.125 3.75 144.045 3.83C144.985 3.91 145.845 4.01 146.625 4.13C147.425 4.25 148.025 4.37 148.425 4.49C148.485 5.35 148.545 6.34 148.605 7.46C148.685 8.56 148.745 9.75 148.785 11.03C148.825 12.29 148.865 13.6 148.905 14.96C148.945 16.3 148.975 17.65 148.995 19.01C149.015 20.35 149.025 21.64 149.025 22.88C149.025 24.9 148.995 26.9 148.935 28.88C148.895 30.84 148.825 32.67 148.725 34.37C148.645 36.05 148.555 37.47 148.455 38.63C148.355 39.77 148.245 40.53 148.125 40.91C147.565 40.93 146.965 40.95 146.325 40.97C145.705 40.97 145.075 40.97 144.435 40.97C143.495 40.97 142.575 40.95 141.675 40.91C140.795 40.87 140.055 40.8 139.455 40.7C139.255 40.34 138.915 39.73 138.435 38.87C137.975 37.99 137.405 36.93 136.725 35.69C136.045 34.43 135.305 33.06 134.505 31.58C133.705 30.1 132.885 28.59 132.045 27.05C131.205 25.49 130.375 23.97 129.555 22.49C128.735 21.01 127.985 19.65 127.305 18.41C127.365 18.97 127.425 19.82 127.485 20.96C127.545 22.1 127.595 23.42 127.635 24.92C127.695 26.42 127.745 27.98 127.785 29.6C127.825 31.2 127.865 32.77 127.905 34.31C127.945 35.83 127.975 37.2 127.995 38.42C128.015 39.62 128.025 40.54 128.025 41.18ZM173.272 42.44C169.352 42.44 166.002 41.61 163.222 39.95C160.462 38.29 158.352 35.91 156.892 32.81C155.432 29.69 154.702 25.96 154.702 21.62C154.702 17.56 155.362 13.97 156.682 10.85C158.022 7.73 159.972 5.29 162.532 3.53C165.092 1.75 168.212 0.859998 171.892 0.859998C173.892 0.859998 175.812 1.14 177.652 1.7C179.512 2.24 181.192 3.01 182.692 4.01C184.192 5.01 185.402 6.2 186.322 7.58C185.982 8.02 185.382 8.63 184.522 9.41C183.682 10.19 182.752 10.99 181.732 11.81C180.712 12.63 179.742 13.32 178.822 13.88C178.362 13.2 177.812 12.57 177.172 11.99C176.552 11.41 175.812 10.95 174.952 10.61C174.092 10.27 173.082 10.1 171.922 10.1C170.802 10.1 169.772 10.41 168.832 11.03C167.892 11.63 167.082 12.47 166.402 13.55C165.722 14.63 165.192 15.91 164.812 17.39C164.452 18.85 164.272 20.44 164.272 22.16C164.272 24.46 164.602 26.51 165.262 28.31C165.922 30.09 166.922 31.49 168.262 32.51C169.602 33.51 171.302 34.01 173.362 34.01C174.642 34.01 175.722 33.76 176.602 33.26C177.502 32.74 178.182 32.06 178.642 31.22C179.122 30.36 179.362 29.44 179.362 28.46C179.362 28.18 179.352 27.93 179.332 27.71C179.332 27.49 179.312 27.28 179.272 27.08C178.932 26.98 178.402 26.88 177.682 26.78C176.962 26.66 176.162 26.55 175.282 26.45C174.422 26.33 173.592 26.24 172.792 26.18C171.992 26.1 171.332 26.05 170.812 26.03C170.812 25.47 170.822 24.76 170.842 23.9C170.862 23.02 170.892 22.15 170.932 21.29C170.992 20.41 171.052 19.7 171.112 19.16C172.532 19.18 174.262 19.3 176.302 19.52C178.342 19.72 180.392 19.98 182.452 20.3C184.532 20.62 186.312 20.97 187.792 21.35C187.992 22.09 188.132 22.93 188.212 23.87C188.292 24.79 188.332 25.63 188.332 26.39C188.332 29.29 187.782 31.96 186.682 34.4C185.602 36.82 183.942 38.77 181.702 40.25C179.482 41.71 176.672 42.44 173.272 42.44ZM210.844 42.53C206.664 42.53 203.244 41.63 200.584 39.83C197.944 38.03 195.994 35.58 194.734 32.48C193.494 29.38 192.874 25.89 192.874 22.01C192.874 18.01 193.574 14.46 194.974 11.36C196.394 8.26 198.434 5.83 201.094 4.07C203.774 2.29 207.024 1.4 210.844 1.4C214.024 1.4 216.754 1.93 219.034 2.99C221.314 4.05 223.174 5.52 224.614 7.4C226.074 9.28 227.144 11.46 227.824 13.94C228.504 16.42 228.844 19.1 228.844 21.98C228.844 24.68 228.494 27.26 227.794 29.72C227.114 32.18 226.044 34.37 224.584 36.29C223.144 38.21 221.284 39.73 219.004 40.85C216.744 41.97 214.024 42.53 210.844 42.53ZM210.934 32.93C212.974 32.93 214.674 32.37 216.034 31.25C217.414 30.13 218.444 28.67 219.124 26.87C219.804 25.05 220.144 23.11 220.144 21.05C220.144 19.53 219.994 18.07 219.694 16.67C219.394 15.25 218.914 13.99 218.254 12.89C217.594 11.79 216.704 10.92 215.584 10.28C214.464 9.64 213.084 9.32 211.444 9.32C209.584 9.32 207.984 9.88 206.644 11C205.304 12.12 204.264 13.63 203.524 15.53C202.804 17.41 202.444 19.52 202.444 21.86C202.444 23.94 202.714 25.82 203.254 27.5C203.814 29.16 204.714 30.48 205.954 31.46C207.214 32.44 208.874 32.93 210.934 32.93ZM240.017 41.45C239.517 41.45 238.827 41.43 237.947 41.39C237.067 41.37 236.117 41.34 235.097 41.3C234.097 41.28 233.117 41.25 232.157 41.21C231.217 41.17 230.437 41.13 229.817 41.09C230.037 39.85 230.337 38.27 230.717 36.35C231.117 34.43 231.577 32.3 232.097 29.96C232.617 27.62 233.167 25.18 233.747 22.64C234.327 20.08 234.927 17.54 235.547 15.02C236.167 12.5 236.767 10.11 237.347 7.85C237.927 5.59 238.467 3.58 238.967 1.82C240.987 1.56 242.977 1.35 244.937 1.19C246.917 1.01 248.837 0.919997 250.697 0.919997C251.757 0.919997 252.817 0.949998 253.877 1.01C254.937 1.07 255.987 1.17 257.027 1.31C257.407 3.07 257.797 5.09 258.197 7.37C258.597 9.65 258.997 12.34 259.397 15.44C259.817 18.52 260.227 22.15 260.627 26.33C261.047 30.49 261.467 35.34 261.887 40.88C261.227 40.96 260.287 41.05 259.067 41.15C257.847 41.25 256.567 41.32 255.227 41.36C253.907 41.42 252.727 41.45 251.687 41.45C251.647 40.87 251.607 40.21 251.567 39.47C251.547 38.73 251.517 37.94 251.477 37.1C251.437 36.26 251.397 35.41 251.357 34.55C251.337 33.69 251.317 32.86 251.297 32.06C251.277 31.26 251.257 30.52 251.237 29.84C250.597 29.86 249.907 29.89 249.167 29.93C248.427 29.95 247.677 29.99 246.917 30.05C246.177 30.09 245.477 30.14 244.817 30.2C244.157 30.24 243.577 30.29 243.077 30.35C242.577 30.41 242.217 30.46 241.997 30.5C241.697 31.86 241.417 33.23 241.157 34.61C240.897 35.99 240.667 37.28 240.467 38.48C240.267 39.66 240.117 40.65 240.017 41.45ZM243.227 22.19C243.687 22.11 244.407 22.02 245.387 21.92C246.367 21.82 247.387 21.74 248.447 21.68C249.507 21.62 250.367 21.58 251.027 21.56C250.987 21.14 250.937 20.35 250.877 19.19C250.837 18.01 250.777 16.73 250.697 15.35C250.617 13.95 250.537 12.67 250.457 11.51C250.397 10.33 250.337 9.52 250.277 9.08C249.957 9.08 249.477 9.1 248.837 9.14C248.197 9.18 247.577 9.22 246.977 9.26C246.377 9.3 245.957 9.34 245.717 9.38C245.597 9.96 245.427 10.77 245.207 11.81C245.007 12.83 244.787 13.97 244.547 15.23C244.307 16.49 244.067 17.73 243.827 18.95C243.607 20.15 243.407 21.23 243.227 22.19ZM277.673 41.18C276.453 41.2 275.163 41.17 273.803 41.09C272.463 41.03 271.223 40.95 270.083 40.85C268.943 40.75 268.063 40.66 267.443 40.58C267.443 40.38 267.443 39.83 267.443 38.93C267.443 38.03 267.443 36.88 267.443 35.48C267.443 34.08 267.443 32.53 267.443 30.83C267.443 29.11 267.443 27.33 267.443 25.49C267.463 23.65 267.473 21.85 267.473 20.09C267.473 17.91 267.463 15.75 267.443 13.61C267.423 11.45 267.393 9.45 267.353 7.61C267.313 5.75 267.253 4.21 267.173 2.99C267.573 2.99 268.183 3.01 269.003 3.05C269.823 3.09 270.723 3.14 271.703 3.2C272.703 3.26 273.673 3.34 274.613 3.44C275.553 3.52 276.353 3.61 277.013 3.71C278.313 5.59 279.563 7.51 280.763 9.47C281.983 11.41 283.133 13.37 284.213 15.35C285.313 17.31 286.343 19.27 287.303 21.23C288.283 23.19 289.193 25.12 290.033 27.02L288.803 3.53C289.403 3.53 290.133 3.56 290.993 3.62C291.873 3.68 292.773 3.75 293.693 3.83C294.633 3.91 295.493 4.01 296.273 4.13C297.073 4.25 297.673 4.37 298.073 4.49C298.133 5.35 298.193 6.34 298.253 7.46C298.333 8.56 298.393 9.75 298.433 11.03C298.473 12.29 298.513 13.6 298.553 14.96C298.593 16.3 298.623 17.65 298.643 19.01C298.663 20.35 298.673 21.64 298.673 22.88C298.673 24.9 298.643 26.9 298.583 28.88C298.543 30.84 298.473 32.67 298.373 34.37C298.293 36.05 298.203 37.47 298.103 38.63C298.003 39.77 297.893 40.53 297.773 40.91C297.213 40.93 296.613 40.95 295.973 40.97C295.353 40.97 294.723 40.97 294.083 40.97C293.143 40.97 292.223 40.95 291.323 40.91C290.443 40.87 289.703 40.8 289.103 40.7C288.903 40.34 288.563 39.73 288.083 38.87C287.623 37.99 287.053 36.93 286.373 35.69C285.693 34.43 284.953 33.06 284.153 31.58C283.353 30.1 282.533 28.59 281.693 27.05C280.853 25.49 280.023 23.97 279.203 22.49C278.383 21.01 277.633 19.65 276.953 18.41C277.013 18.97 277.073 19.82 277.133 20.96C277.193 22.1 277.243 23.42 277.283 24.92C277.343 26.42 277.393 27.98 277.433 29.6C277.473 31.2 277.513 32.77 277.553 34.31C277.593 35.83 277.623 37.2 277.643 38.42C277.663 39.62 277.673 40.54 277.673 41.18ZM60.083 95.63C58.943 95.63 57.823 95.59 56.723 95.51C55.643 95.45 54.793 95.38 54.173 95.3C53.413 93.72 52.563 91.64 51.623 89.06C50.683 86.46 49.723 83.63 48.743 80.57C47.763 77.49 46.823 74.39 45.923 71.27C45.043 68.13 44.253 65.2 43.553 62.48C42.853 59.74 42.313 57.45 41.933 55.61C42.913 55.31 44.093 55.06 45.473 54.86C46.873 54.64 48.243 54.48 49.583 54.38C50.943 54.26 52.043 54.2 52.883 54.2C52.923 54.52 53.063 55.27 53.303 56.45C53.563 57.61 53.883 59.08 54.263 60.86C54.663 62.62 55.103 64.59 55.583 66.77C56.063 68.95 56.563 71.23 57.083 73.61C57.623 75.97 58.143 78.34 58.643 80.72C59.163 83.1 59.643 85.35 60.083 87.47L59.303 87.65C59.683 86.21 60.073 84.45 60.473 82.37C60.873 80.27 61.273 78.02 61.673 75.62C62.093 73.22 62.483 70.83 62.843 68.45C63.203 66.07 63.533 63.86 63.833 61.82C64.133 59.78 64.363 58.07 64.523 56.69C64.703 55.31 64.813 54.44 64.853 54.08C66.453 54.1 68.233 54.26 70.193 54.56C72.173 54.84 73.943 55.25 75.503 55.79C74.803 59.25 74.023 62.76 73.163 66.32C72.303 69.86 71.443 73.28 70.583 76.58C69.723 79.86 68.923 82.84 68.183 85.52C67.463 88.2 66.843 90.42 66.323 92.18C65.823 93.92 65.513 95.02 65.393 95.48C64.813 95.54 64.043 95.58 63.083 95.6C62.143 95.62 61.143 95.63 60.083 95.63ZM94.3337 95.93C90.7737 95.93 87.9737 95.13 85.9337 93.53C83.9137 91.93 82.4037 89.65 81.4037 86.69C80.4837 84.03 79.9037 80.8 79.6637 77C79.4437 73.18 79.3337 68.87 79.3337 64.07C79.3337 63.33 79.3437 62.56 79.3637 61.76C79.3837 60.96 79.4037 60.15 79.4237 59.33C79.4437 58.49 79.4637 57.68 79.4837 56.9C79.5237 56.12 79.5537 55.4 79.5737 54.74C80.3937 54.64 81.2237 54.57 82.0637 54.53C82.9037 54.47 83.7037 54.44 84.4637 54.44C85.4837 54.44 86.4937 54.47 87.4937 54.53C88.4937 54.59 89.3837 54.66 90.1637 54.74C90.0437 56.24 89.9337 57.87 89.8337 59.63C89.7337 61.39 89.6537 63.19 89.5937 65.03C89.5537 66.85 89.5337 68.62 89.5337 70.34C89.5337 72.34 89.5937 74.12 89.7137 75.68C89.8337 77.22 90.0237 78.54 90.2837 79.64C90.6637 81.28 91.2337 82.49 91.9937 83.27C92.7537 84.05 93.7337 84.44 94.9337 84.44C96.2537 84.44 97.2837 83.99 98.0237 83.09C98.7837 82.19 99.3137 80.92 99.6137 79.28C99.9137 77.64 100.064 75.73 100.064 73.55C100.064 72.75 100.044 71.72 100.004 70.46C99.9837 69.18 99.9537 67.8 99.9137 66.32C99.8737 64.82 99.8237 63.34 99.7637 61.88C99.7037 60.42 99.6337 59.1 99.5537 57.92C99.4737 56.72 99.3937 55.79 99.3137 55.13C100.114 55.13 101.034 55.17 102.074 55.25C103.134 55.31 104.174 55.38 105.194 55.46C106.234 55.54 107.134 55.63 107.894 55.73C108.654 55.83 109.144 55.91 109.364 55.97C109.544 57.03 109.684 58.19 109.784 59.45C109.884 60.69 109.964 61.98 110.024 63.32C110.084 64.66 110.114 66 110.114 67.34C110.114 71.32 109.904 75.04 109.484 78.5C109.084 81.96 108.324 85 107.204 87.62C106.084 90.22 104.484 92.26 102.404 93.74C100.324 95.2 97.6337 95.93 94.3337 95.93ZM125.86 95.54C125.08 95.54 124.15 95.53 123.07 95.51C122.01 95.49 120.93 95.45 119.83 95.39C118.75 95.33 117.77 95.25 116.89 95.15C116.85 93.85 116.81 92.19 116.77 90.17C116.73 88.13 116.69 85.96 116.65 83.66C116.63 81.36 116.62 79.17 116.62 77.09C116.62 73.89 116.64 70.47 116.68 66.83C116.74 63.19 116.81 59.42 116.89 55.52C117.23 55.5 117.77 55.49 118.51 55.49C119.25 55.47 120.08 55.45 121 55.43C121.94 55.39 122.84 55.37 123.7 55.37C124.58 55.35 125.32 55.34 125.92 55.34C126.04 57.48 126.14 59.86 126.22 62.48C126.3 65.08 126.36 67.74 126.4 70.46C126.44 73.18 126.46 75.79 126.46 78.29C126.46 79.53 126.45 80.82 126.43 82.16C126.43 83.5 126.42 84.83 126.4 86.15C126.38 87.47 126.34 88.73 126.28 89.93C126.22 91.13 126.16 92.22 126.1 93.2C126.04 94.16 125.96 94.94 125.86 95.54ZM146.061 95.96C146.061 94.82 146.031 93.31 145.971 91.43C145.931 89.53 145.871 87.4 145.791 85.04C145.711 82.68 145.611 80.2 145.491 77.6C145.371 75 145.251 72.41 145.131 69.83C145.011 67.23 144.891 64.76 144.771 62.42C144.671 60.06 144.561 57.96 144.441 56.12C145.141 55.98 145.941 55.89 146.841 55.85C147.741 55.79 148.591 55.76 149.391 55.76C150.331 55.76 151.211 55.8 152.031 55.88C152.871 55.94 153.521 56.01 153.981 56.09C154.001 56.61 154.031 57.45 154.071 58.61C154.111 59.75 154.161 61.07 154.221 62.57C154.281 64.07 154.341 65.6 154.401 67.16C154.481 68.72 154.551 70.16 154.611 71.48C155.391 70.8 156.241 69.92 157.161 68.84C158.101 67.74 159.071 66.49 160.071 65.09C161.091 63.69 162.091 62.19 163.071 60.59C164.051 58.99 164.981 57.33 165.861 55.61C167.421 56.81 168.961 57.87 170.481 58.79C172.021 59.69 173.111 60.31 173.751 60.65C173.511 61.21 173.041 62.03 172.341 63.11C171.641 64.19 170.791 65.39 169.791 66.71C168.811 68.03 167.731 69.35 166.551 70.67C165.371 71.99 164.181 73.16 162.981 74.18C163.961 75.3 164.961 76.53 165.981 77.87C167.001 79.19 167.971 80.53 168.891 81.89C169.831 83.23 170.691 84.51 171.471 85.73C172.251 86.95 172.901 88.02 173.421 88.94C173.961 89.86 174.321 90.54 174.501 90.98C174.001 91.32 173.251 91.76 172.251 92.3C171.251 92.84 170.181 93.37 169.041 93.89C167.921 94.41 166.911 94.81 166.011 95.09C165.811 94.59 165.471 93.88 164.991 92.96C164.511 92.02 163.951 90.97 163.311 89.81C162.671 88.63 161.981 87.43 161.241 86.21C160.521 84.99 159.801 83.83 159.081 82.73C158.361 81.63 157.691 80.7 157.071 79.94C156.751 80.2 156.431 80.43 156.111 80.63C155.791 80.81 155.491 80.98 155.211 81.14C155.311 82.36 155.411 83.71 155.511 85.19C155.611 86.65 155.701 88.07 155.781 89.45C155.861 90.83 155.921 92.02 155.961 93.02C156.021 94.02 156.051 94.66 156.051 94.94C155.691 94.96 154.971 95.02 153.891 95.12C152.811 95.22 151.571 95.34 150.171 95.48C148.791 95.64 147.421 95.8 146.061 95.96ZM179.228 94.91C179.128 94.03 179.018 92.72 178.898 90.98C178.778 89.22 178.668 87.19 178.568 84.89C178.468 82.57 178.368 80.14 178.268 77.6C178.188 75.04 178.118 72.52 178.058 70.04C178.018 67.56 177.998 65.27 177.998 63.17C177.998 61.77 178.008 60.51 178.028 59.39C178.068 58.25 178.118 57.3 178.178 56.54C178.378 56.52 178.858 56.49 179.618 56.45C180.398 56.39 181.298 56.34 182.318 56.3C183.338 56.26 184.328 56.23 185.288 56.21C186.268 56.17 187.058 56.15 187.658 56.15C187.618 57.21 187.598 58.41 187.598 59.75C187.598 61.09 187.598 62.36 187.598 63.56C187.598 65.06 187.618 66.61 187.658 68.21C187.698 69.79 187.738 70.91 187.778 71.57C188.218 71.53 188.708 71.49 189.248 71.45C189.808 71.39 190.388 71.35 190.988 71.33C191.588 71.29 192.178 71.26 192.758 71.24C193.338 71.22 193.878 71.2 194.378 71.18C194.898 71.16 195.338 71.15 195.698 71.15C195.718 70.51 195.748 69.57 195.788 68.33C195.828 67.07 195.868 65.68 195.908 64.16C195.948 62.62 195.988 61.12 196.028 59.66C196.068 58.18 196.118 56.92 196.178 55.88C196.638 55.84 197.198 55.82 197.858 55.82C198.518 55.8 199.158 55.79 199.778 55.79C201.038 55.79 202.228 55.81 203.348 55.85C204.488 55.89 205.348 55.95 205.928 56.03C205.848 56.59 205.758 57.44 205.658 58.58C205.578 59.72 205.488 61.06 205.388 62.6C205.308 64.14 205.228 65.82 205.148 67.64C205.068 69.44 204.988 71.3 204.908 73.22C204.848 75.12 204.788 77 204.728 78.86C204.648 81 204.578 83.1 204.518 85.16C204.478 87.2 204.438 89.05 204.398 90.71C204.378 92.37 204.358 93.7 204.338 94.7C203.898 94.74 203.198 94.78 202.238 94.82C201.298 94.86 200.248 94.9 199.088 94.94C197.928 94.96 196.788 94.97 195.668 94.97C195.668 93.59 195.658 92.22 195.638 90.86C195.638 89.5 195.638 88.17 195.638 86.87C195.638 85.55 195.638 84.28 195.638 83.06C195.638 81.82 195.638 80.64 195.638 79.52C195.238 79.54 194.778 79.56 194.258 79.58C193.738 79.58 193.198 79.59 192.638 79.61C192.098 79.61 191.548 79.62 190.988 79.64C190.428 79.64 189.898 79.65 189.398 79.67C188.918 79.67 188.498 79.67 188.138 79.67C188.198 80.73 188.258 82.02 188.318 83.54C188.378 85.04 188.438 86.55 188.498 88.07C188.558 89.59 188.608 90.94 188.648 92.12C188.708 93.28 188.738 94.06 188.738 94.46C188.278 94.54 187.618 94.61 186.758 94.67C185.918 94.71 185.008 94.75 184.028 94.79C183.068 94.83 182.148 94.86 181.268 94.88C180.408 94.9 179.728 94.91 179.228 94.91ZM228.481 96.53C224.301 96.53 220.881 95.63 218.221 93.83C215.581 92.03 213.631 89.58 212.371 86.48C211.131 83.38 210.511 79.89 210.511 76.01C210.511 72.01 211.211 68.46 212.611 65.36C214.031 62.26 216.071 59.83 218.731 58.07C221.411 56.29 224.661 55.4 228.481 55.4C231.661 55.4 234.391 55.93 236.671 56.99C238.951 58.05 240.811 59.52 242.251 61.4C243.711 63.28 244.781 65.46 245.461 67.94C246.141 70.42 246.481 73.1 246.481 75.98C246.481 78.68 246.131 81.26 245.431 83.72C244.751 86.18 243.681 88.37 242.221 90.29C240.781 92.21 238.921 93.73 236.641 94.85C234.381 95.97 231.661 96.53 228.481 96.53ZM228.571 86.93C230.611 86.93 232.311 86.37 233.671 85.25C235.051 84.13 236.081 82.67 236.761 80.87C237.441 79.05 237.781 77.11 237.781 75.05C237.781 73.53 237.631 72.07 237.331 70.67C237.031 69.25 236.551 67.99 235.891 66.89C235.231 65.79 234.341 64.92 233.221 64.28C232.101 63.64 230.721 63.32 229.081 63.32C227.221 63.32 225.621 63.88 224.281 65C222.941 66.12 221.901 67.63 221.161 69.53C220.441 71.41 220.081 73.52 220.081 75.86C220.081 77.94 220.351 79.82 220.891 81.5C221.451 83.16 222.351 84.48 223.591 85.46C224.851 86.44 226.511 86.93 228.571 86.93ZM273.676 95.39C271.716 95.27 269.776 95.15 267.856 95.03C265.936 94.93 263.986 94.85 262.006 94.79C260.406 94.71 258.776 94.63 257.116 94.55C255.456 94.45 253.816 94.36 252.196 94.28C252.056 90.92 251.956 87.66 251.896 84.5C251.856 81.32 251.836 78.34 251.836 75.56C251.836 71.1 251.876 67.31 251.956 64.19C252.036 61.07 252.116 58.83 252.196 57.47C255.976 56.77 259.476 56.26 262.696 55.94C265.916 55.6 268.606 55.39 270.766 55.31C272.946 55.23 274.306 55.19 274.846 55.19C274.846 56.49 274.806 57.77 274.726 59.03C274.646 60.27 274.546 61.58 274.426 62.96L261.586 64.01C261.566 64.27 261.546 64.68 261.526 65.24C261.506 65.78 261.486 66.38 261.466 67.04C261.466 67.68 261.466 68.28 261.466 68.84C261.466 69.4 261.466 69.81 261.466 70.07C261.926 70.07 262.516 70.07 263.236 70.07C263.976 70.05 264.776 70.03 265.636 70.01C266.516 69.99 267.396 69.97 268.276 69.95C269.156 69.93 269.976 69.92 270.736 69.92C271.516 69.9 272.176 69.88 272.716 69.86L272.596 78.08C272.336 78.08 271.826 78.07 271.066 78.05C270.306 78.01 269.426 77.97 268.426 77.93C267.446 77.89 266.456 77.86 265.456 77.84C264.456 77.8 263.576 77.77 262.816 77.75C262.056 77.73 261.536 77.73 261.256 77.75C261.236 77.95 261.216 78.29 261.196 78.77C261.196 79.23 261.186 79.76 261.166 80.36C261.166 80.94 261.166 81.55 261.166 82.19C261.166 82.81 261.156 83.39 261.136 83.93C261.136 84.45 261.136 84.87 261.136 85.19C261.396 85.19 262.096 85.19 263.236 85.19C264.376 85.17 265.546 85.16 266.746 85.16C267.746 85.16 268.746 85.18 269.746 85.22C270.746 85.26 271.676 85.31 272.536 85.37C273.396 85.41 274.096 85.45 274.636 85.49C274.636 86.29 274.596 87.21 274.516 88.25C274.436 89.27 274.346 90.28 274.246 91.28C274.166 92.28 274.066 93.16 273.946 93.92C273.846 94.66 273.756 95.15 273.676 95.39Z" fill="#1B449C"/>
<path d="M18.2523 149.75C18.1323 147.51 17.9823 144.77 17.8023 141.53C17.6423 138.27 17.4623 134.79 17.2623 131.09C17.0823 127.37 16.9023 123.68 16.7223 120.02C16.5423 116.34 16.3823 112.97 16.2423 109.91C17.0223 109.83 18.0223 109.75 19.2423 109.67C20.4623 109.59 21.7823 109.51 23.2023 109.43C24.6223 109.35 26.0123 109.28 27.3723 109.22C28.7323 109.16 29.9423 109.13 31.0023 109.13C32.5423 109.13 34.0823 109.28 35.6223 109.58C37.1823 109.86 38.6023 110.36 39.8823 111.08C41.1823 111.8 42.2223 112.83 43.0023 114.17C43.7823 115.49 44.1723 117.2 44.1723 119.3C44.1723 121.36 43.6423 123.3 42.5823 125.12C41.5423 126.94 40.1523 128.26 38.4123 129.08C38.8723 129.94 39.3823 130.98 39.9423 132.2C40.5023 133.42 41.0623 134.73 41.6223 136.13C42.2023 137.53 42.7523 138.92 43.2723 140.3C43.7923 141.66 44.2523 142.91 44.6523 144.05C45.0723 145.19 45.3823 146.12 45.5823 146.84C45.0023 147.2 44.2223 147.54 43.2423 147.86C42.2823 148.18 41.2923 148.47 40.2723 148.73C39.2523 148.97 38.3623 149.17 37.6023 149.33C36.8623 149.49 36.4123 149.57 36.2523 149.57C36.0923 148.77 35.8423 147.72 35.5023 146.42C35.1623 145.12 34.7723 143.71 34.3323 142.19C33.8923 140.67 33.4423 139.18 32.9823 137.72C32.5423 136.24 32.1323 134.92 31.7523 133.76C31.3723 132.6 31.0723 131.74 30.8523 131.18C30.3923 131.28 29.9223 131.37 29.4423 131.45C28.9823 131.53 28.5423 131.59 28.1223 131.63C27.7223 131.67 27.3523 131.7 27.0123 131.72C27.0923 132.18 27.1723 132.94 27.2523 134C27.3523 135.04 27.4523 136.25 27.5523 137.63C27.6523 139.01 27.7423 140.43 27.8223 141.89C27.9223 143.33 28.0023 144.69 28.0623 145.97C28.1423 147.25 28.1923 148.3 28.2123 149.12C27.4123 149.3 26.4323 149.43 25.2723 149.51C24.1323 149.61 22.9423 149.67 21.7023 149.69C20.4823 149.73 19.3323 149.75 18.2523 149.75ZM26.2023 124.52C26.8223 124.52 27.4523 124.5 28.0923 124.46C28.7523 124.4 29.5323 124.29 30.4323 124.13C31.7323 123.91 32.7723 123.61 33.5523 123.23C34.3323 122.83 34.8923 122.33 35.2323 121.73C35.5923 121.11 35.7723 120.39 35.7723 119.57C35.7723 118.47 35.5223 117.68 35.0223 117.2C34.5223 116.7 33.8323 116.38 32.9523 116.24C32.0923 116.1 31.0823 116.03 29.9223 116.03C29.6023 116.03 29.2223 116.05 28.7823 116.09C28.3423 116.11 27.9023 116.14 27.4623 116.18C27.0223 116.22 26.6223 116.26 26.2623 116.3C25.9023 116.32 25.6423 116.34 25.4823 116.36C25.5023 116.7 25.5423 117.15 25.6023 117.71C25.6623 118.27 25.7223 118.89 25.7823 119.57C25.8423 120.23 25.8923 120.89 25.9323 121.55C25.9923 122.19 26.0423 122.78 26.0823 123.32C26.1423 123.84 26.1823 124.24 26.2023 124.52ZM58.0248 149.45C57.5248 149.45 56.8348 149.43 55.9548 149.39C55.0748 149.37 54.1248 149.34 53.1048 149.3C52.1048 149.28 51.1248 149.25 50.1648 149.21C49.2248 149.17 48.4448 149.13 47.8248 149.09C48.0448 147.85 48.3448 146.27 48.7248 144.35C49.1248 142.43 49.5848 140.3 50.1048 137.96C50.6248 135.62 51.1748 133.18 51.7548 130.64C52.3348 128.08 52.9348 125.54 53.5548 123.02C54.1748 120.5 54.7748 118.11 55.3548 115.85C55.9348 113.59 56.4748 111.58 56.9748 109.82C58.9948 109.56 60.9848 109.35 62.9448 109.19C64.9248 109.01 66.8448 108.92 68.7048 108.92C69.7648 108.92 70.8248 108.95 71.8848 109.01C72.9448 109.07 73.9948 109.17 75.0348 109.31C75.4148 111.07 75.8048 113.09 76.2048 115.37C76.6048 117.65 77.0048 120.34 77.4048 123.44C77.8248 126.52 78.2348 130.15 78.6348 134.33C79.0548 138.49 79.4748 143.34 79.8948 148.88C79.2348 148.96 78.2948 149.05 77.0748 149.15C75.8548 149.25 74.5748 149.32 73.2348 149.36C71.9148 149.42 70.7348 149.45 69.6948 149.45C69.6548 148.87 69.6148 148.21 69.5748 147.47C69.5548 146.73 69.5248 145.94 69.4848 145.1C69.4448 144.26 69.4048 143.41 69.3648 142.55C69.3448 141.69 69.3248 140.86 69.3048 140.06C69.2848 139.26 69.2648 138.52 69.2448 137.84C68.6048 137.86 67.9148 137.89 67.1748 137.93C66.4348 137.95 65.6848 137.99 64.9248 138.05C64.1848 138.09 63.4848 138.14 62.8248 138.2C62.1648 138.24 61.5848 138.29 61.0848 138.35C60.5848 138.41 60.2248 138.46 60.0048 138.5C59.7048 139.86 59.4248 141.23 59.1648 142.61C58.9048 143.99 58.6748 145.28 58.4748 146.48C58.2748 147.66 58.1248 148.65 58.0248 149.45ZM61.2348 130.19C61.6948 130.11 62.4148 130.02 63.3948 129.92C64.3748 129.82 65.3948 129.74 66.4548 129.68C67.5148 129.62 68.3748 129.58 69.0348 129.56C68.9948 129.14 68.9448 128.35 68.8848 127.19C68.8448 126.01 68.7848 124.73 68.7048 123.35C68.6248 121.95 68.5448 120.67 68.4648 119.51C68.4048 118.33 68.3448 117.52 68.2848 117.08C67.9648 117.08 67.4848 117.1 66.8448 117.14C66.2048 117.18 65.5848 117.22 64.9848 117.26C64.3848 117.3 63.9648 117.34 63.7248 117.38C63.6048 117.96 63.4348 118.77 63.2148 119.81C63.0148 120.83 62.7948 121.97 62.5548 123.23C62.3148 124.49 62.0748 125.73 61.8348 126.95C61.6148 128.15 61.4148 129.23 61.2348 130.19ZM95.6809 149.18C94.4609 149.2 93.1709 149.17 91.8109 149.09C90.4709 149.03 89.2309 148.95 88.0909 148.85C86.9509 148.75 86.0709 148.66 85.4509 148.58C85.4509 148.38 85.4509 147.83 85.4509 146.93C85.4509 146.03 85.4509 144.88 85.4509 143.48C85.4509 142.08 85.4509 140.53 85.4509 138.83C85.4509 137.11 85.4509 135.33 85.4509 133.49C85.4709 131.65 85.4809 129.85 85.4809 128.09C85.4809 125.91 85.4709 123.75 85.4509 121.61C85.4309 119.45 85.4009 117.45 85.3609 115.61C85.3209 113.75 85.2609 112.21 85.1809 110.99C85.5809 110.99 86.1909 111.01 87.0109 111.05C87.8309 111.09 88.7309 111.14 89.7109 111.2C90.7109 111.26 91.6809 111.34 92.6209 111.44C93.5609 111.52 94.3609 111.61 95.0209 111.71C96.3209 113.59 97.5709 115.51 98.7709 117.47C99.9909 119.41 101.141 121.37 102.221 123.35C103.321 125.31 104.351 127.27 105.311 129.23C106.291 131.19 107.201 133.12 108.041 135.02L106.811 111.53C107.411 111.53 108.141 111.56 109.001 111.62C109.881 111.68 110.781 111.75 111.701 111.83C112.641 111.91 113.501 112.01 114.281 112.13C115.081 112.25 115.681 112.37 116.081 112.49C116.141 113.35 116.201 114.34 116.261 115.46C116.341 116.56 116.401 117.75 116.441 119.03C116.481 120.29 116.521 121.6 116.561 122.96C116.601 124.3 116.631 125.65 116.651 127.01C116.671 128.35 116.681 129.64 116.681 130.88C116.681 132.9 116.651 134.9 116.591 136.88C116.551 138.84 116.481 140.67 116.381 142.37C116.301 144.05 116.211 145.47 116.111 146.63C116.011 147.77 115.901 148.53 115.781 148.91C115.221 148.93 114.621 148.95 113.981 148.97C113.361 148.97 112.731 148.97 112.091 148.97C111.151 148.97 110.231 148.95 109.331 148.91C108.451 148.87 107.711 148.8 107.111 148.7C106.911 148.34 106.571 147.73 106.091 146.87C105.631 145.99 105.061 144.93 104.381 143.69C103.701 142.43 102.961 141.06 102.161 139.58C101.361 138.1 100.541 136.59 99.7009 135.05C98.8609 133.49 98.0309 131.97 97.2109 130.49C96.3909 129.01 95.6409 127.65 94.9609 126.41C95.0209 126.97 95.0809 127.82 95.1409 128.96C95.2009 130.1 95.2509 131.42 95.2909 132.92C95.3509 134.42 95.4009 135.98 95.4409 137.6C95.4809 139.2 95.5209 140.77 95.5609 142.31C95.6009 143.83 95.6309 145.2 95.6509 146.42C95.6709 147.62 95.6809 148.54 95.6809 149.18ZM140.928 150.44C137.008 150.44 133.658 149.61 130.878 147.95C128.118 146.29 126.008 143.91 124.548 140.81C123.088 137.69 122.358 133.96 122.358 129.62C122.358 125.56 123.018 121.97 124.338 118.85C125.678 115.73 127.628 113.29 130.188 111.53C132.748 109.75 135.868 108.86 139.548 108.86C141.548 108.86 143.468 109.14 145.308 109.7C147.168 110.24 148.848 111.01 150.348 112.01C151.848 113.01 153.058 114.2 153.978 115.58C153.638 116.02 153.038 116.63 152.178 117.41C151.338 118.19 150.408 118.99 149.388 119.81C148.368 120.63 147.398 121.32 146.478 121.88C146.018 121.2 145.468 120.57 144.828 119.99C144.208 119.41 143.468 118.95 142.608 118.61C141.748 118.27 140.738 118.1 139.578 118.1C138.458 118.1 137.428 118.41 136.488 119.03C135.548 119.63 134.738 120.47 134.058 121.55C133.378 122.63 132.848 123.91 132.468 125.39C132.108 126.85 131.928 128.44 131.928 130.16C131.928 132.46 132.258 134.51 132.918 136.31C133.578 138.09 134.578 139.49 135.918 140.51C137.258 141.51 138.958 142.01 141.018 142.01C142.298 142.01 143.378 141.76 144.258 141.26C145.158 140.74 145.838 140.06 146.298 139.22C146.778 138.36 147.018 137.44 147.018 136.46C147.018 136.18 147.008 135.93 146.988 135.71C146.988 135.49 146.968 135.28 146.928 135.08C146.588 134.98 146.058 134.88 145.338 134.78C144.618 134.66 143.818 134.55 142.938 134.45C142.078 134.33 141.248 134.24 140.448 134.18C139.648 134.1 138.988 134.05 138.468 134.03C138.468 133.47 138.478 132.76 138.498 131.9C138.518 131.02 138.548 130.15 138.588 129.29C138.648 128.41 138.708 127.7 138.768 127.16C140.188 127.18 141.918 127.3 143.958 127.52C145.998 127.72 148.048 127.98 150.108 128.3C152.188 128.62 153.968 128.97 155.448 129.35C155.648 130.09 155.788 130.93 155.868 131.87C155.948 132.79 155.988 133.63 155.988 134.39C155.988 137.29 155.438 139.96 154.338 142.4C153.258 144.82 151.598 146.77 149.358 148.25C147.138 149.71 144.328 150.44 140.928 150.44ZM169.657 117.89C169.557 117.45 169.467 116.83 169.387 116.03C169.327 115.21 169.267 114.36 169.207 113.48C169.167 112.58 169.127 111.78 169.087 111.08C169.067 110.36 169.057 109.87 169.057 109.61C171.297 109.45 173.847 109.31 176.707 109.19C179.587 109.05 182.497 108.98 185.437 108.98C187.657 108.98 189.817 109.03 191.917 109.13C194.037 109.21 195.967 109.38 197.707 109.64C197.727 111.3 197.677 112.85 197.557 114.29C197.437 115.71 197.297 116.78 197.137 117.5C196.757 117.5 196.207 117.5 195.487 117.5C194.767 117.48 193.967 117.47 193.087 117.47C192.227 117.45 191.377 117.44 190.537 117.44C189.697 117.42 188.967 117.4 188.347 117.38C188.367 118.12 188.407 119.22 188.467 120.68C188.527 122.12 188.597 123.77 188.677 125.63C188.757 127.49 188.847 129.44 188.947 131.48C189.047 133.52 189.137 135.52 189.217 137.48C189.317 139.44 189.397 141.24 189.457 142.88C189.537 144.5 189.597 145.84 189.637 146.9C189.697 147.94 189.727 148.56 189.727 148.76C188.927 148.88 187.887 148.99 186.607 149.09C185.327 149.19 184.047 149.27 182.767 149.33C181.507 149.39 180.477 149.42 179.677 149.42C179.617 148.24 179.557 146.82 179.497 145.16C179.437 143.48 179.387 141.67 179.347 139.73C179.307 137.77 179.267 135.77 179.227 133.73C179.187 131.67 179.157 129.66 179.137 127.7C179.117 125.74 179.107 123.94 179.107 122.3C179.107 121.38 179.107 120.52 179.107 119.72C179.107 118.92 179.117 118.2 179.137 117.56C178.457 117.6 177.717 117.64 176.917 117.68C176.117 117.7 175.297 117.73 174.457 117.77C173.617 117.81 172.787 117.84 171.967 117.86C171.147 117.88 170.377 117.89 169.657 117.89ZM202.689 148.91C202.589 148.03 202.479 146.72 202.359 144.98C202.239 143.22 202.129 141.19 202.029 138.89C201.929 136.57 201.829 134.14 201.729 131.6C201.649 129.04 201.579 126.52 201.519 124.04C201.479 121.56 201.459 119.27 201.459 117.17C201.459 115.77 201.469 114.51 201.489 113.39C201.529 112.25 201.579 111.3 201.639 110.54C201.839 110.52 202.319 110.49 203.079 110.45C203.859 110.39 204.759 110.34 205.779 110.3C206.799 110.26 207.789 110.23 208.749 110.21C209.729 110.17 210.519 110.15 211.119 110.15C211.079 111.21 211.059 112.41 211.059 113.75C211.059 115.09 211.059 116.36 211.059 117.56C211.059 119.06 211.079 120.61 211.119 122.21C211.159 123.79 211.199 124.91 211.239 125.57C211.679 125.53 212.169 125.49 212.709 125.45C213.269 125.39 213.849 125.35 214.449 125.33C215.049 125.29 215.639 125.26 216.219 125.24C216.799 125.22 217.339 125.2 217.839 125.18C218.359 125.16 218.799 125.15 219.159 125.15C219.179 124.51 219.209 123.57 219.249 122.33C219.289 121.07 219.329 119.68 219.369 118.16C219.409 116.62 219.449 115.12 219.489 113.66C219.529 112.18 219.579 110.92 219.639 109.88C220.099 109.84 220.659 109.82 221.319 109.82C221.979 109.8 222.619 109.79 223.239 109.79C224.499 109.79 225.689 109.81 226.809 109.85C227.949 109.89 228.809 109.95 229.389 110.03C229.309 110.59 229.219 111.44 229.119 112.58C229.039 113.72 228.949 115.06 228.849 116.6C228.769 118.14 228.689 119.82 228.609 121.64C228.529 123.44 228.449 125.3 228.369 127.22C228.309 129.12 228.249 131 228.189 132.86C228.109 135 228.039 137.1 227.979 139.16C227.939 141.2 227.899 143.05 227.859 144.71C227.839 146.37 227.819 147.7 227.799 148.7C227.359 148.74 226.659 148.78 225.699 148.82C224.759 148.86 223.709 148.9 222.549 148.94C221.389 148.96 220.249 148.97 219.129 148.97C219.129 147.59 219.119 146.22 219.099 144.86C219.099 143.5 219.099 142.17 219.099 140.87C219.099 139.55 219.099 138.28 219.099 137.06C219.099 135.82 219.099 134.64 219.099 133.52C218.699 133.54 218.239 133.56 217.719 133.58C217.199 133.58 216.659 133.59 216.099 133.61C215.559 133.61 215.009 133.62 214.449 133.64C213.889 133.64 213.359 133.65 212.859 133.67C212.379 133.67 211.959 133.67 211.599 133.67C211.659 134.73 211.719 136.02 211.779 137.54C211.839 139.04 211.899 140.55 211.959 142.07C212.019 143.59 212.069 144.94 212.109 146.12C212.169 147.28 212.199 148.06 212.199 148.46C211.739 148.54 211.079 148.61 210.219 148.67C209.379 148.71 208.469 148.75 207.489 148.79C206.529 148.83 205.609 148.86 204.729 148.88C203.869 148.9 203.189 148.91 202.689 148.91ZM256.531 149.39C254.571 149.27 252.631 149.15 250.711 149.03C248.791 148.93 246.841 148.85 244.861 148.79C243.261 148.71 241.631 148.63 239.971 148.55C238.311 148.45 236.671 148.36 235.051 148.28C234.911 144.92 234.811 141.66 234.751 138.5C234.711 135.32 234.691 132.34 234.691 129.56C234.691 125.1 234.731 121.31 234.811 118.19C234.891 115.07 234.971 112.83 235.051 111.47C238.831 110.77 242.331 110.26 245.551 109.94C248.771 109.6 251.461 109.39 253.621 109.31C255.801 109.23 257.161 109.19 257.701 109.19C257.701 110.49 257.661 111.77 257.581 113.03C257.501 114.27 257.401 115.58 257.281 116.96L244.441 118.01C244.421 118.27 244.401 118.68 244.381 119.24C244.361 119.78 244.341 120.38 244.321 121.04C244.321 121.68 244.321 122.28 244.321 122.84C244.321 123.4 244.321 123.81 244.321 124.07C244.781 124.07 245.371 124.07 246.091 124.07C246.831 124.05 247.631 124.03 248.491 124.01C249.371 123.99 250.251 123.97 251.131 123.95C252.011 123.93 252.831 123.92 253.591 123.92C254.371 123.9 255.031 123.88 255.571 123.86L255.451 132.08C255.191 132.08 254.681 132.07 253.921 132.05C253.161 132.01 252.281 131.97 251.281 131.93C250.301 131.89 249.311 131.86 248.311 131.84C247.311 131.8 246.431 131.77 245.671 131.75C244.911 131.73 244.391 131.73 244.111 131.75C244.091 131.95 244.071 132.29 244.051 132.77C244.051 133.23 244.041 133.76 244.021 134.36C244.021 134.94 244.021 135.55 244.021 136.19C244.021 136.81 244.011 137.39 243.991 137.93C243.991 138.45 243.991 138.87 243.991 139.19C244.251 139.19 244.951 139.19 246.091 139.19C247.231 139.17 248.401 139.16 249.601 139.16C250.601 139.16 251.601 139.18 252.601 139.22C253.601 139.26 254.531 139.31 255.391 139.37C256.251 139.41 256.951 139.45 257.491 139.49C257.491 140.29 257.451 141.21 257.371 142.25C257.291 143.27 257.201 144.28 257.101 145.28C257.021 146.28 256.921 147.16 256.801 147.92C256.701 148.66 256.611 149.15 256.531 149.39ZM263.882 149C263.882 147.46 263.892 145.53 263.912 143.21C263.932 140.89 263.962 138.36 264.002 135.62C264.042 132.86 264.092 130.04 264.152 127.16C264.212 124.28 264.282 121.5 264.362 118.82C264.442 116.14 264.542 113.73 264.662 111.59C265.622 111.49 266.752 111.41 268.052 111.35C269.372 111.29 270.662 111.25 271.922 111.23C273.202 111.19 274.282 111.17 275.162 111.17C276.042 111.15 276.532 111.14 276.632 111.14C276.672 111.22 276.812 111.7 277.052 112.58C277.312 113.46 277.632 114.6 278.012 116C278.412 117.4 278.842 118.94 279.302 120.62C279.762 122.3 280.222 124.01 280.682 125.75C281.162 127.49 281.612 129.14 282.032 130.7C282.452 132.24 282.792 133.57 283.052 134.69C283.332 135.81 283.512 136.58 283.592 137L282.482 137.15C282.682 136.59 282.982 135.67 283.382 134.39C283.782 133.11 284.232 131.63 284.732 129.95C285.252 128.25 285.772 126.47 286.292 124.61C286.832 122.73 287.352 120.91 287.852 119.15C288.352 117.39 288.782 115.82 289.142 114.44C289.522 113.04 289.792 111.98 289.952 111.26C290.792 111.26 291.862 111.28 293.162 111.32C294.482 111.36 295.812 111.42 297.152 111.5C298.492 111.58 299.602 111.7 300.482 111.86C300.882 113.66 301.162 115.99 301.322 118.85C301.482 121.69 301.562 124.7 301.562 127.88C301.562 130.44 301.522 133.04 301.442 135.68C301.382 138.3 301.292 140.76 301.172 143.06C301.052 145.36 300.922 147.3 300.782 148.88C299.802 148.88 298.742 148.86 297.602 148.82C296.462 148.78 295.372 148.73 294.332 148.67C293.312 148.59 292.502 148.53 291.902 148.49C292.002 147.19 292.092 145.52 292.172 143.48C292.272 141.44 292.352 139.33 292.412 137.15C292.472 135.81 292.512 134.46 292.532 133.1C292.572 131.74 292.602 130.5 292.622 129.38C292.662 128.26 292.692 127.39 292.712 126.77C292.492 127.55 292.182 128.57 291.782 129.83C291.402 131.07 290.962 132.44 290.462 133.94C289.982 135.44 289.472 136.96 288.932 138.5C288.412 140.02 287.902 141.47 287.402 142.85C286.922 144.23 286.492 145.42 286.112 146.42C285.752 147.42 285.472 148.12 285.272 148.52C284.992 148.54 284.562 148.56 283.982 148.58C283.422 148.58 282.992 148.58 282.692 148.58C282.152 148.58 281.592 148.56 281.012 148.52C280.452 148.46 279.832 148.39 279.152 148.31C279.092 148.05 278.962 147.51 278.762 146.69C278.582 145.87 278.342 144.86 278.042 143.66C277.742 142.46 277.412 141.15 277.052 139.73C276.712 138.29 276.362 136.83 276.002 135.35C275.642 133.85 275.282 132.4 274.922 131C274.562 129.6 274.232 128.33 273.932 127.19C273.652 126.05 273.412 125.13 273.212 124.43C273.232 126.33 273.242 128.35 273.242 130.49C273.262 132.63 273.272 134.73 273.272 136.79C273.272 138.85 273.272 140.75 273.272 142.49C273.292 144.21 273.302 145.64 273.302 146.78C273.302 147.92 273.302 148.61 273.302 148.85C272.602 148.87 271.712 148.9 270.632 148.94C269.552 148.96 268.422 148.98 267.242 149C266.062 149 264.942 149 263.882 149ZM55.6477 183.77C54.6277 181.89 53.4677 180 52.1677 178.1C50.8677 176.18 49.5877 174.38 48.3277 172.7C47.0677 171.02 45.9577 169.6 44.9977 168.44C44.0377 167.26 43.3877 166.48 43.0477 166.1C43.6277 165.8 44.3777 165.48 45.2977 165.14C46.2377 164.78 47.2277 164.44 48.2677 164.12C49.3077 163.78 50.3077 163.49 51.2677 163.25C52.2277 163.01 53.0277 162.84 53.6677 162.74C54.1477 163.36 54.7177 164.25 55.3777 165.41C56.0377 166.55 56.7277 167.78 57.4477 169.1C58.1677 170.42 58.8477 171.7 59.4877 172.94C60.1477 174.16 60.6877 175.19 61.1077 176.03C61.7477 174.99 62.3477 173.89 62.9077 172.73C63.4677 171.57 63.9877 170.42 64.4677 169.28C64.9477 168.12 65.3777 167.03 65.7577 166.01C66.1377 164.99 66.4377 164.09 66.6577 163.31C68.1177 163.53 69.5077 163.83 70.8277 164.21C72.1477 164.57 73.3077 164.96 74.3077 165.38C75.3077 165.8 76.0477 166.21 76.5277 166.61C76.0477 167.73 75.3577 169.03 74.4577 170.51C73.5777 171.99 72.5977 173.51 71.5177 175.07C70.4577 176.63 69.4277 178.1 68.4277 179.48C67.4277 180.86 66.5777 182.03 65.8777 182.99C66.5777 183.91 67.3577 185.02 68.2177 186.32C69.0777 187.6 69.9577 188.96 70.8577 190.4C71.7577 191.84 72.6177 193.26 73.4377 194.66C74.2577 196.04 74.9777 197.3 75.5977 198.44C76.2177 199.56 76.6677 200.45 76.9477 201.11C76.1277 201.61 75.1577 202.08 74.0377 202.52C72.9177 202.94 71.7877 203.3 70.6477 203.6C69.5277 203.92 68.5377 204.16 67.6777 204.32C67.2777 203.22 66.7877 202 66.2077 200.66C65.6277 199.32 64.9277 197.88 64.1077 196.34C63.2877 194.78 62.3377 193.12 61.2577 191.36C60.8177 192.14 60.3377 192.97 59.8177 193.85C59.2977 194.73 58.7577 195.61 58.1977 196.49C57.6377 197.35 57.0977 198.19 56.5777 199.01C56.0577 199.81 55.5777 200.54 55.1377 201.2C54.6977 201.86 54.3177 202.41 53.9977 202.85C53.6977 203.27 53.4877 203.55 53.3677 203.69C51.7677 203.53 50.2277 203.26 48.7477 202.88C47.2877 202.5 45.5477 202.02 43.5277 201.44C44.4877 200.2 45.5177 198.83 46.6177 197.33C47.7177 195.83 48.8077 194.3 49.8877 192.74C50.9877 191.16 52.0277 189.61 53.0077 188.09C54.0077 186.55 54.8877 185.11 55.6477 183.77ZM91.7002 203.54C90.9202 203.54 89.9902 203.53 88.9102 203.51C87.8502 203.49 86.7702 203.45 85.6702 203.39C84.5902 203.33 83.6102 203.25 82.7302 203.15C82.6902 201.85 82.6502 200.19 82.6102 198.17C82.5702 196.13 82.5302 193.96 82.4902 191.66C82.4702 189.36 82.4602 187.17 82.4602 185.09C82.4602 181.89 82.4802 178.47 82.5202 174.83C82.5802 171.19 82.6502 167.42 82.7302 163.52C83.0702 163.5 83.6102 163.49 84.3502 163.49C85.0902 163.47 85.9202 163.45 86.8402 163.43C87.7802 163.39 88.6802 163.37 89.5402 163.37C90.4202 163.35 91.1602 163.34 91.7602 163.34C91.8802 165.48 91.9802 167.86 92.0602 170.48C92.1402 173.08 92.2002 175.74 92.2402 178.46C92.2802 181.18 92.3002 183.79 92.3002 186.29C92.3002 187.53 92.2902 188.82 92.2702 190.16C92.2702 191.5 92.2602 192.83 92.2402 194.15C92.2202 195.47 92.1802 196.73 92.1202 197.93C92.0602 199.13 92.0002 200.22 91.9402 201.2C91.8802 202.16 91.8002 202.94 91.7002 203.54ZM109.884 203.18C108.664 203.2 107.374 203.17 106.014 203.09C104.674 203.03 103.434 202.95 102.294 202.85C101.154 202.75 100.274 202.66 99.654 202.58C99.654 202.38 99.654 201.83 99.654 200.93C99.654 200.03 99.654 198.88 99.654 197.48C99.654 196.08 99.654 194.53 99.654 192.83C99.654 191.11 99.654 189.33 99.654 187.49C99.674 185.65 99.684 183.85 99.684 182.09C99.684 179.91 99.674 177.75 99.654 175.61C99.634 173.45 99.604 171.45 99.564 169.61C99.524 167.75 99.464 166.21 99.384 164.99C99.784 164.99 100.394 165.01 101.214 165.05C102.034 165.09 102.934 165.14 103.914 165.2C104.914 165.26 105.884 165.34 106.824 165.44C107.764 165.52 108.564 165.61 109.224 165.71C110.524 167.59 111.774 169.51 112.974 171.47C114.194 173.41 115.344 175.37 116.424 177.35C117.524 179.31 118.554 181.27 119.514 183.23C120.494 185.19 121.404 187.12 122.244 189.02L121.014 165.53C121.614 165.53 122.344 165.56 123.204 165.62C124.084 165.68 124.984 165.75 125.904 165.83C126.844 165.91 127.704 166.01 128.484 166.13C129.284 166.25 129.884 166.37 130.284 166.49C130.344 167.35 130.404 168.34 130.464 169.46C130.544 170.56 130.604 171.75 130.644 173.03C130.684 174.29 130.724 175.6 130.764 176.96C130.804 178.3 130.834 179.65 130.854 181.01C130.874 182.35 130.884 183.64 130.884 184.88C130.884 186.9 130.854 188.9 130.794 190.88C130.754 192.84 130.684 194.67 130.584 196.37C130.504 198.05 130.414 199.47 130.314 200.63C130.214 201.77 130.104 202.53 129.984 202.91C129.424 202.93 128.824 202.95 128.184 202.97C127.564 202.97 126.934 202.97 126.294 202.97C125.354 202.97 124.434 202.95 123.534 202.91C122.654 202.87 121.914 202.8 121.314 202.7C121.114 202.34 120.774 201.73 120.294 200.87C119.834 199.99 119.264 198.93 118.584 197.69C117.904 196.43 117.164 195.06 116.364 193.58C115.564 192.1 114.744 190.59 113.904 189.05C113.064 187.49 112.234 185.97 111.414 184.49C110.594 183.01 109.844 181.65 109.164 180.41C109.224 180.97 109.284 181.82 109.344 182.96C109.404 184.1 109.454 185.42 109.494 186.92C109.554 188.42 109.604 189.98 109.644 191.6C109.684 193.2 109.724 194.77 109.764 196.31C109.804 197.83 109.834 199.2 109.854 200.42C109.874 201.62 109.884 202.54 109.884 203.18ZM138.001 202.91C137.901 202.03 137.791 200.72 137.671 198.98C137.551 197.22 137.441 195.19 137.341 192.89C137.241 190.57 137.141 188.14 137.041 185.6C136.961 183.04 136.891 180.52 136.831 178.04C136.791 175.56 136.771 173.27 136.771 171.17C136.771 169.77 136.781 168.51 136.801 167.39C136.841 166.25 136.891 165.3 136.951 164.54C137.151 164.52 137.631 164.49 138.391 164.45C139.171 164.39 140.071 164.34 141.091 164.3C142.111 164.26 143.101 164.23 144.061 164.21C145.041 164.17 145.831 164.15 146.431 164.15C146.391 165.21 146.371 166.41 146.371 167.75C146.371 169.09 146.371 170.36 146.371 171.56C146.371 173.06 146.391 174.61 146.431 176.21C146.471 177.79 146.511 178.91 146.551 179.57C146.991 179.53 147.481 179.49 148.021 179.45C148.581 179.39 149.161 179.35 149.761 179.33C150.361 179.29 150.951 179.26 151.531 179.24C152.111 179.22 152.651 179.2 153.151 179.18C153.671 179.16 154.111 179.15 154.471 179.15C154.491 178.51 154.521 177.57 154.561 176.33C154.601 175.07 154.641 173.68 154.681 172.16C154.721 170.62 154.761 169.12 154.801 167.66C154.841 166.18 154.891 164.92 154.951 163.88C155.411 163.84 155.971 163.82 156.631 163.82C157.291 163.8 157.931 163.79 158.551 163.79C159.811 163.79 161.001 163.81 162.121 163.85C163.261 163.89 164.121 163.95 164.701 164.03C164.621 164.59 164.531 165.44 164.431 166.58C164.351 167.72 164.261 169.06 164.161 170.6C164.081 172.14 164.001 173.82 163.921 175.64C163.841 177.44 163.761 179.3 163.681 181.22C163.621 183.12 163.561 185 163.501 186.86C163.421 189 163.351 191.1 163.291 193.16C163.251 195.2 163.211 197.05 163.171 198.71C163.151 200.37 163.131 201.7 163.111 202.7C162.671 202.74 161.971 202.78 161.011 202.82C160.071 202.86 159.021 202.9 157.861 202.94C156.701 202.96 155.561 202.97 154.441 202.97C154.441 201.59 154.431 200.22 154.411 198.86C154.411 197.5 154.411 196.17 154.411 194.87C154.411 193.55 154.411 192.28 154.411 191.06C154.411 189.82 154.411 188.64 154.411 187.52C154.011 187.54 153.551 187.56 153.031 187.58C152.511 187.58 151.971 187.59 151.411 187.61C150.871 187.61 150.321 187.62 149.761 187.64C149.201 187.64 148.671 187.65 148.171 187.67C147.691 187.67 147.271 187.67 146.911 187.67C146.971 188.73 147.031 190.02 147.091 191.54C147.151 193.04 147.211 194.55 147.271 196.07C147.331 197.59 147.381 198.94 147.421 200.12C147.481 201.28 147.511 202.06 147.511 202.46C147.051 202.54 146.391 202.61 145.531 202.67C144.691 202.71 143.781 202.75 142.801 202.79C141.841 202.83 140.921 202.86 140.041 202.88C139.181 202.9 138.501 202.91 138.001 202.91ZM192.541 186.2C191.981 185.44 191.381 184.56 190.741 183.56C190.121 182.54 189.461 181.45 188.761 180.29C188.061 179.13 187.361 177.91 186.661 176.63C185.981 175.35 185.301 174.06 184.621 172.76C183.941 171.46 183.301 170.17 182.701 168.89C182.101 167.59 181.551 166.35 181.051 165.17C182.891 164.47 184.661 163.99 186.361 163.73C188.061 163.47 189.451 163.33 190.531 163.31C190.691 163.69 190.931 164.29 191.251 165.11C191.591 165.93 191.981 166.86 192.421 167.9C192.861 168.94 193.321 170.01 193.801 171.11C194.281 172.21 194.741 173.25 195.181 174.23C195.641 175.21 196.041 176.03 196.381 176.69C196.581 176.25 196.881 175.61 197.281 174.77C197.701 173.93 198.161 173 198.661 171.98C199.181 170.94 199.711 169.89 200.251 168.83C200.791 167.77 201.291 166.8 201.751 165.92C202.231 165.02 202.631 164.3 202.951 163.76C204.051 163.84 205.161 164.05 206.281 164.39C207.401 164.73 208.451 165.12 209.431 165.56C210.431 166 211.271 166.44 211.951 166.88C211.071 168.06 210.041 169.61 208.861 171.53C207.681 173.43 206.421 175.58 205.081 177.98C203.741 180.36 202.391 182.88 201.031 185.54C201.091 186.64 201.131 187.85 201.151 189.17C201.191 190.47 201.221 191.71 201.241 192.89C201.281 194.07 201.301 195.03 201.301 195.77C201.301 196.65 201.291 197.58 201.271 198.56C201.271 199.54 201.271 200.41 201.271 201.17C201.271 201.91 201.261 202.38 201.241 202.58C201.001 202.68 200.501 202.77 199.741 202.85C198.981 202.91 198.141 202.94 197.221 202.94C196.241 202.94 195.261 202.9 194.281 202.82C193.321 202.74 192.511 202.64 191.851 202.52C191.851 201.52 191.871 200.31 191.911 198.89C191.971 197.47 192.031 195.98 192.091 194.42C192.151 192.86 192.221 191.36 192.301 189.92C192.381 188.48 192.461 187.24 192.541 186.2ZM236.235 203.39C234.275 203.27 232.335 203.15 230.415 203.03C228.495 202.93 226.545 202.85 224.565 202.79C222.965 202.71 221.335 202.63 219.675 202.55C218.015 202.45 216.375 202.36 214.755 202.28C214.615 198.92 214.515 195.66 214.455 192.5C214.415 189.32 214.395 186.34 214.395 183.56C214.395 179.1 214.435 175.31 214.515 172.19C214.595 169.07 214.675 166.83 214.755 165.47C218.535 164.77 222.035 164.26 225.255 163.94C228.475 163.6 231.165 163.39 233.325 163.31C235.505 163.23 236.865 163.19 237.405 163.19C237.405 164.49 237.365 165.77 237.285 167.03C237.205 168.27 237.105 169.58 236.985 170.96L224.145 172.01C224.125 172.27 224.105 172.68 224.085 173.24C224.065 173.78 224.045 174.38 224.025 175.04C224.025 175.68 224.025 176.28 224.025 176.84C224.025 177.4 224.025 177.81 224.025 178.07C224.485 178.07 225.075 178.07 225.795 178.07C226.535 178.05 227.335 178.03 228.195 178.01C229.075 177.99 229.955 177.97 230.835 177.95C231.715 177.93 232.535 177.92 233.295 177.92C234.075 177.9 234.735 177.88 235.275 177.86L235.155 186.08C234.895 186.08 234.385 186.07 233.625 186.05C232.865 186.01 231.985 185.97 230.985 185.93C230.005 185.89 229.015 185.86 228.015 185.84C227.015 185.8 226.135 185.77 225.375 185.75C224.615 185.73 224.095 185.73 223.815 185.75C223.795 185.95 223.775 186.29 223.755 186.77C223.755 187.23 223.745 187.76 223.725 188.36C223.725 188.94 223.725 189.55 223.725 190.19C223.725 190.81 223.715 191.39 223.695 191.93C223.695 192.45 223.695 192.87 223.695 193.19C223.955 193.19 224.655 193.19 225.795 193.19C226.935 193.17 228.105 193.16 229.305 193.16C230.305 193.16 231.305 193.18 232.305 193.22C233.305 193.26 234.235 193.31 235.095 193.37C235.955 193.41 236.655 193.45 237.195 193.49C237.195 194.29 237.155 195.21 237.075 196.25C236.995 197.27 236.905 198.28 236.805 199.28C236.725 200.28 236.625 201.16 236.505 201.92C236.405 202.66 236.315 203.15 236.235 203.39ZM258.256 203.93C254.696 203.93 251.896 203.13 249.856 201.53C247.836 199.93 246.326 197.65 245.326 194.69C244.406 192.03 243.826 188.8 243.586 185C243.366 181.18 243.256 176.87 243.256 172.07C243.256 171.33 243.266 170.56 243.286 169.76C243.306 168.96 243.326 168.15 243.346 167.33C243.366 166.49 243.386 165.68 243.406 164.9C243.446 164.12 243.476 163.4 243.496 162.74C244.316 162.64 245.146 162.57 245.986 162.53C246.826 162.47 247.626 162.44 248.386 162.44C249.406 162.44 250.416 162.47 251.416 162.53C252.416 162.59 253.306 162.66 254.086 162.74C253.966 164.24 253.856 165.87 253.756 167.63C253.656 169.39 253.576 171.19 253.516 173.03C253.476 174.85 253.456 176.62 253.456 178.34C253.456 180.34 253.516 182.12 253.636 183.68C253.756 185.22 253.946 186.54 254.206 187.64C254.586 189.28 255.156 190.49 255.916 191.27C256.676 192.05 257.656 192.44 258.856 192.44C260.176 192.44 261.206 191.99 261.946 191.09C262.706 190.19 263.236 188.92 263.536 187.28C263.836 185.64 263.986 183.73 263.986 181.55C263.986 180.75 263.966 179.72 263.926 178.46C263.906 177.18 263.876 175.8 263.836 174.32C263.796 172.82 263.746 171.34 263.686 169.88C263.626 168.42 263.556 167.1 263.476 165.92C263.396 164.72 263.316 163.79 263.236 163.13C264.036 163.13 264.956 163.17 265.996 163.25C267.056 163.31 268.096 163.38 269.116 163.46C270.156 163.54 271.056 163.63 271.816 163.73C272.576 163.83 273.066 163.91 273.286 163.97C273.466 165.03 273.606 166.19 273.706 167.45C273.806 168.69 273.886 169.98 273.946 171.32C274.006 172.66 274.036 174 274.036 175.34C274.036 179.32 273.826 183.04 273.406 186.5C273.006 189.96 272.246 193 271.126 195.62C270.006 198.22 268.406 200.26 266.326 201.74C264.246 203.2 261.556 203.93 258.256 203.93Z" fill="white"/>
<path d="M28 78C20.1437 81.3922 17.3922 84.1437 14 92C10.6078 84.1437 7.85626 81.3922 0 78C7.85626 74.6078 10.6078 71.8563 14 64C17.3922 71.8563 20.1437 74.6037 28 78Z" fill="#FFCA05"/>
<path d="M317 65.5C309.985 68.5287 307.529 70.9855 304.5 78C301.471 70.9855 299.015 68.5287 292 65.5C299.015 62.4713 301.471 60.0145 304.5 53C307.532 60.0145 309.989 62.4676 317 65.5Z" fill="#BCD530"/>
</svg>
