<svg width="153" height="33" viewBox="0 0 153 33" fill="none" xmlns="http://www.w3.org/2000/svg">
<g clip-path="url(#clip0_605_419)">
<path d="M68.6602 21.9479C67.9072 22.5366 66.7823 23.3277 65.6298 23.7324C63.7106 24.4085 58.6922 23.6864 56.7914 22.2514C56.4194 21.9709 56.5572 21.3822 57.0117 21.2948C60.0145 20.7383 68.8163 18.4892 67.2782 11.4385C65.7905 4.6085 56.1072 1.88571 48.7885 6.01129C46.6764 7.20251 45.0924 8.85826 43.9675 10.7348C44.5323 3.02634 40.0602 0 34.2934 0C31.1253 0 27.9389 1.27861 25.6018 2.51122C25.5926 2.51582 22.9847 4.28195 19.8488 5.9607C18.0948 6.89895 16.8919 7.00934 15.3262 6.93115C14.9084 6.91275 14.8074 6.32864 15.1931 6.16767C16.4511 5.63415 18.2096 4.72808 19.8901 3.33909C17.5622 1.94091 13.6274 0 9.72468 0C3.62727 0 -1.02844 3.38049 0.197474 12.1146C1.42338 20.89 5.271 33 11.9194 33C14.2197 33 18.2601 31.841 21.0701 29.1044C21.5981 28.5939 22.4291 28.5939 22.9572 29.1044C25.7625 31.841 29.8076 33 32.1079 33C36.658 33 39.8949 27.3245 41.883 20.9268C42.0621 22.4538 42.4523 23.8704 43.0263 25.057C45.5102 30.2082 49.9501 33 55.8455 33C62.5169 33 69.0872 29.0584 70.5472 23.1805C70.8136 22.0859 69.5463 21.258 68.6602 21.9479ZM151.085 21.9479C150.332 22.5366 149.208 23.3277 148.055 23.7324C146.136 24.4085 141.117 23.6864 139.217 22.2514C138.845 21.9709 138.982 21.3822 139.437 21.2948C142.44 20.7383 151.242 18.4892 149.703 11.4385C148.216 4.6085 138.532 1.88571 131.214 6.01129C125.263 9.36418 123.5 16.3781 124.409 21.7087C124.226 21.7409 124.047 21.8145 123.877 21.9479C123.124 22.5366 121.999 23.3277 120.846 23.7324C118.927 24.4085 113.909 23.6864 112.008 22.2514C111.636 21.9709 111.774 21.3822 112.228 21.2948C115.231 20.7383 124.033 18.4892 122.495 11.4385C121.007 4.6085 111.324 1.88571 104.005 6.01129C97.9581 9.41937 96.2363 16.6127 97.251 21.9663C95.8735 22.8355 94.0186 23.6404 92.0902 23.3921C89.1242 23.0103 85.1618 20.7567 85.0378 14.2072C86.103 14.497 87.0856 14.635 87.8615 14.635C91.902 14.635 94.8542 10.0035 96.7643 4.51652H86.6631C87.811 1.3476 89.1196 0 89.1196 0C89.1196 0 86.7963 0 81.5988 0C76.4013 0 73.8347 3.2839 72.7741 5.51456C70.685 9.9069 70.8595 14.2624 71.5849 18.664C73.3113 29.1412 80.2857 33 86.2637 33C91.9295 33 96.4107 30.1162 98.5871 25.7331C101.126 30.4474 105.424 33 111.053 33C117.146 33 123.151 29.7115 125.263 24.6615C125.323 24.7948 125.378 24.9282 125.442 25.057C127.926 30.2082 132.366 33 138.262 33C144.933 33 151.503 29.0584 152.963 23.1805C153.234 22.0859 151.972 21.258 151.085 21.9479Z" fill="#1B449C"/>
</g>
<defs>
<clipPath id="clip0_605_419">
<rect width="153" height="33" fill="white"/>
</clipPath>
</defs>
</svg>
