<svg width="65" height="65" viewBox="0 0 65 65" fill="none" xmlns="http://www.w3.org/2000/svg">
<path d="M58.2467 38.6382C59.5855 38.2414 60.5604 37.0867 60.727 35.7003C60.8937 34.314 60.2204 32.9611 59.0138 32.2583C52.5121 28.4707 48.5577 25.43 45.6759 21.763C42.7944 18.0965 40.7756 13.5372 38.638 6.32575C38.2411 4.98668 37.0861 4.01177 35.6994 3.84535C34.3127 3.67893 32.9598 4.35286 32.2573 5.55999C28.4739 12.0612 25.4333 16.0152 21.7659 18.8967C18.0985 21.7781 13.5374 23.7968 6.32555 25.9345C4.98648 26.3314 4.01157 27.4864 3.84515 28.8731C3.67873 30.2598 4.35266 31.6127 5.55979 32.3152C12.061 36.0986 16.015 39.1391 18.8965 42.8066C21.7779 46.474 23.7966 51.0351 25.9343 58.2469C26.3312 59.586 27.4862 60.5609 28.8729 60.7273C30.2596 60.8937 31.6125 60.2198 32.315 59.0127C36.0984 52.5115 39.1389 48.5575 42.8064 45.676C46.4738 42.7945 51.0349 40.7759 58.2467 38.6382Z" fill="#E1EBFF" stroke="#CCDDFF" stroke-width="7" stroke-linejoin="round"/>
</svg>
