<svg width="33" height="33" viewBox="0 0 33 33" fill="none" xmlns="http://www.w3.org/2000/svg">
<path d="M12.193 30.8649C12.947 30.8649 13.5583 30.2537 13.5583 29.4996C13.5583 28.7456 12.947 28.1343 12.193 28.1343C11.4389 28.1343 10.8276 28.7456 10.8276 29.4996C10.8276 30.2537 11.4389 30.8649 12.193 30.8649Z" stroke="#1B449C" stroke-width="3" stroke-linecap="round" stroke-linejoin="round"/>
<path d="M27.212 30.8649C27.9661 30.8649 28.5773 30.2537 28.5773 29.4996C28.5773 28.7456 27.9661 28.1343 27.212 28.1343C26.458 28.1343 25.8467 28.7456 25.8467 29.4996C25.8467 30.2537 26.458 30.8649 27.212 30.8649Z" stroke="#1B449C" stroke-width="3" stroke-linecap="round" stroke-linejoin="round"/>
<path d="M1.27051 2.19238H3.45308C5.35958 2.19238 7.00112 3.53792 7.37529 5.40735L10.3909 20.4741C10.5157 21.1027 10.8577 21.6673 11.3569 22.0692C11.8561 22.4711 12.4808 22.6846 13.1215 22.6723H26.3925C27.0333 22.6846 27.6579 22.4711 28.1571 22.0692C28.6563 21.6673 28.9983 21.1027 29.1232 20.4741L31.3077 9.01901H8.09714" stroke="#1B449C" stroke-width="2.5" stroke-linecap="round" stroke-linejoin="round"/>
<path d="M30.625 9.70166H8.77979L11.5104 21.9896H27.8944L30.625 9.70166Z" fill="#1B449C"/>
</svg>
