<svg width="46" height="46" viewBox="0 0 46 46" fill="none" xmlns="http://www.w3.org/2000/svg">
<g filter="url(#filter0_d_201_1768)">
<circle cx="22" cy="22" r="22" fill="#FFCB05"/>
<circle cx="22" cy="22" r="21.5" stroke="#2D2B74"/>
</g>
<path d="M21.8352 21.3291C20.8358 21.3291 20.1768 22.1124 20.1768 23.1226C20.1768 24.1273 20.8466 24.916 21.8352 24.916C22.8237 24.916 23.4936 24.1327 23.4936 23.1226C23.4936 22.1124 22.8345 21.3291 21.8352 21.3291Z" fill="white"/>
<path d="M36.7337 14.7439C36.5392 14.6197 31.9205 11.7944 31.2399 11.4163C31.1048 11.3353 30.9482 11.2921 30.7915 11.2921C30.6457 11.2921 30.4998 11.3299 30.3756 11.4055C30.3215 11.4055 25.3409 14.5657 24.563 14.9762C23.9526 15.3111 23.2611 15.4786 22.5643 15.4624C21.9485 15.4732 21.338 15.3435 20.7816 15.0897C19.9821 14.7871 14.7692 11.3893 14.7692 11.3893C14.6396 11.3191 14.4937 11.2812 14.3479 11.2812C14.1912 11.2812 14.0346 11.3245 13.8995 11.4055C13.3107 11.735 9.58332 14.0039 8.47051 14.6953L8.38947 14.7439C8.07615 14.9492 7.8871 15.3057 7.8979 15.6839V25.8018C7.93571 26.1637 8.16258 26.4824 8.49211 26.6337C8.92427 26.8552 20.4305 34.0668 21.9809 34.9636C22.1646 35.0662 22.3698 35.1202 22.5751 35.1202C22.7858 35.1202 22.991 35.0608 23.1693 34.9528C24.7521 34.0722 36.2205 26.8606 36.6527 26.6229C36.9822 26.4716 37.2091 26.1529 37.2469 25.791V15.6731C37.2577 15.2895 37.0632 14.9384 36.7337 14.7439ZM18.5506 25.9152H14.9583L14.9529 18.3038H16.2764V24.662H18.556V25.9152H18.5506ZM24.6387 25.926H23.407V25.1752C22.9748 25.7262 22.3104 26.0449 21.6136 26.0395C20.074 26.0395 18.9072 24.7268 18.9072 23.1224C18.9072 21.518 20.074 20.2107 21.6136 20.2107C22.3158 20.1999 22.9748 20.5187 23.407 21.0751V20.3242H24.6387V25.926ZM30.1973 25.926H25.6002V24.9537L28.5389 21.4424H25.6434V20.3242H30.1325V21.3127L27.2046 24.8078H30.1973V25.926Z" fill="white"/>
<defs>
<filter id="filter0_d_201_1768" x="0" y="0" width="46" height="46" filterUnits="userSpaceOnUse" color-interpolation-filters="sRGB">
<feFlood flood-opacity="0" result="BackgroundImageFix"/>
<feColorMatrix in="SourceAlpha" type="matrix" values="0 0 0 0 0 0 0 0 0 0 0 0 0 0 0 0 0 0 127 0" result="hardAlpha"/>
<feOffset dx="2" dy="2"/>
<feComposite in2="hardAlpha" operator="out"/>
<feColorMatrix type="matrix" values="0 0 0 0 0.176471 0 0 0 0 0.168627 0 0 0 0 0.454902 0 0 0 1 0"/>
<feBlend mode="normal" in2="BackgroundImageFix" result="effect1_dropShadow_201_1768"/>
<feBlend mode="normal" in="SourceGraphic" in2="effect1_dropShadow_201_1768" result="shape"/>
</filter>
</defs>
</svg>
