<svg width="42" height="43" viewBox="0 0 42 43" fill="none" xmlns="http://www.w3.org/2000/svg">
<g filter="url(#filter0_d_779_14)">
<circle cx="20.0003" cy="20.3675" r="19.9994" fill="white"/>
<circle cx="20.0003" cy="20.3675" r="19.4994" stroke="#2D2B74"/>
</g>
<path d="M20.3623 7.64111C13.1451 7.64111 7.27344 13.3293 7.27344 20.3018C7.27344 23.8493 8.80251 27.0909 11.249 29.4151C11.5548 29.7209 11.7383 30.149 11.7383 30.6383V32.6567C11.7383 33.513 12.5946 34.0635 13.3286 33.6965L15.7139 32.5956C16.0809 32.4121 16.4479 32.4121 16.8148 32.5344C17.9158 32.8402 19.139 33.0237 20.3623 33.0237C27.5795 33.0237 33.4511 27.3356 33.4511 20.363C33.4511 13.3293 27.5795 7.64111 20.3623 7.64111Z" fill="url(#paint0_radial_779_14)"/>
<path d="M12.4738 24.0331L16.327 17.9168C16.9387 16.9382 18.2231 16.6936 19.1405 17.3664L22.1987 19.6294C22.5045 19.8129 22.8715 19.8129 23.1161 19.6294L27.214 16.5101C27.7645 16.082 28.4984 16.7547 28.1315 17.3664L24.2782 23.4827C23.6666 24.4613 22.3822 24.7059 21.4647 24.0331L18.4066 21.7701C18.1008 21.5866 17.7338 21.5866 17.4891 21.7701L13.3912 24.8282C12.8408 25.2564 12.1068 24.5836 12.4738 24.0331Z" fill="white"/>
<defs>
<filter id="filter0_d_779_14" x="0.000976562" y="0.368164" width="41.999" height="41.9985" filterUnits="userSpaceOnUse" color-interpolation-filters="sRGB">
<feFlood flood-opacity="0" result="BackgroundImageFix"/>
<feColorMatrix in="SourceAlpha" type="matrix" values="0 0 0 0 0 0 0 0 0 0 0 0 0 0 0 0 0 0 127 0" result="hardAlpha"/>
<feOffset dx="2" dy="2"/>
<feComposite in2="hardAlpha" operator="out"/>
<feColorMatrix type="matrix" values="0 0 0 0 0.176471 0 0 0 0 0.168627 0 0 0 0 0.454902 0 0 0 1 0"/>
<feBlend mode="normal" in2="BackgroundImageFix" result="effect1_dropShadow_779_14"/>
<feBlend mode="normal" in="SourceGraphic" in2="effect1_dropShadow_779_14" result="shape"/>
</filter>
<radialGradient id="paint0_radial_779_14" cx="0" cy="0" r="1" gradientUnits="userSpaceOnUse" gradientTransform="translate(12.3633 33.2452) scale(28.3207 28.3207)">
<stop stop-color="#0496FF"/>
<stop offset="0.2045" stop-color="#426FFF"/>
<stop offset="0.3748" stop-color="#7251FF"/>
<stop offset="0.7807" stop-color="#C740CB"/>
<stop offset="1" stop-color="#FF555C"/>
</radialGradient>
</defs>
</svg>
