<svg width="48" height="35" viewBox="0 0 48 35" fill="none" xmlns="http://www.w3.org/2000/svg">
<path d="M10.002 6.39062H47.4466L43.668 23.1683H13.8896" stroke="white" stroke-linecap="round" stroke-linejoin="round"/>
<path d="M11.3906 14.8066H45.14" stroke="white" stroke-linecap="round" stroke-linejoin="round"/>
<path d="M21.2227 6.72266L23.306 22.7225" stroke="white" stroke-linecap="round" stroke-linejoin="round"/>
<path d="M35.6674 6.72266L33.584 22.7225" stroke="white" stroke-linecap="round" stroke-linejoin="round"/>
<path d="M1 1L6.98291 1.8034C7.8612 1.92084 8.57608 2.57275 8.77523 3.43572L14.6747 29.0695C14.8977 30.0363 15.7573 30.7222 16.7496 30.7222H42.3902" stroke="white" stroke-linecap="round" stroke-linejoin="round"/>
<path d="M23.6092 30.834C23.6092 32.5838 22.1913 33.9999 20.4433 33.9999C18.6952 33.9999 17.2773 32.582 17.2773 30.834" stroke="white" stroke-linecap="round" stroke-linejoin="round"/>
<path d="M39.6111 30.834C39.6111 32.5838 38.1933 33.9999 36.4452 33.9999C34.6972 33.9999 33.2793 32.582 33.2793 30.834" stroke="white" stroke-linecap="round" stroke-linejoin="round"/>
</svg>
