<svg width="46" height="46" viewBox="0 0 46 46" fill="none" xmlns="http://www.w3.org/2000/svg">
<g filter="url(#filter0_d_201_1763)">
<circle cx="22" cy="22" r="22" fill="#BCD530"/>
<circle cx="22" cy="22" r="21.5" stroke="#2D2B74"/>
</g>
<path fill-rule="evenodd" clip-rule="evenodd" d="M32.0957 16.2712C32.0957 16.0237 31.8943 15.8223 31.6469 15.8223H26.819C26.6981 12.6689 24.4481 10.1543 21.6918 10.1543C18.9297 10.1543 16.6798 12.6689 16.5647 15.8223H11.7253C11.4836 15.8281 11.288 16.0237 11.288 16.2712C11.288 16.2827 11.288 16.2942 11.288 16.3057H11.2822L11.9728 31.5029C11.9728 31.5432 11.9727 31.5892 11.9785 31.6295C11.9785 31.641 11.9785 31.6468 11.9785 31.6583V31.6928C12.0821 32.7516 12.8532 33.6033 13.8947 33.6435H29.2358C29.2415 33.6435 29.253 33.6435 29.2588 33.6435C29.2645 33.6435 29.276 33.6435 29.2818 33.6435H29.3163C30.3809 33.6148 31.2383 32.7516 31.3303 31.6813V31.6698C31.3303 31.6583 31.3303 31.6468 31.3303 31.6353C31.3303 31.6065 31.3304 31.5835 31.3361 31.5547L32.0899 16.2942C32.0957 16.2827 32.0957 16.2769 32.0957 16.2712ZM21.6918 11.5238C23.7001 11.5238 25.3401 13.4343 25.4149 15.8223H17.963C18.0378 13.4343 19.6778 11.5238 21.6918 11.5238ZM25.5012 27.7338C25.3631 28.8617 24.6783 29.7651 23.6195 30.2197C23.0326 30.4729 22.2385 30.6052 21.6113 30.565C20.633 30.5304 19.7123 30.2888 18.8664 29.8572C18.5615 29.7018 18.1126 29.3911 17.7674 29.1034C17.6811 29.0286 17.6696 28.9825 17.7271 28.902C17.7559 28.8559 17.8134 28.7696 17.9458 28.5797C18.1299 28.3093 18.1529 28.2747 18.1759 28.2402C18.2335 28.1481 18.3313 28.1424 18.4291 28.2172C18.4406 28.2229 18.4406 28.2229 18.4464 28.2287C18.4637 28.2402 18.4636 28.2402 18.4982 28.269C18.5327 28.2978 18.5557 28.315 18.5672 28.3208C19.4822 29.0343 20.5409 29.4486 21.617 29.4889C23.1131 29.4659 24.1835 28.7984 24.3791 27.7683C24.592 26.6347 23.7001 25.6508 21.9565 25.1041C21.4099 24.9315 20.0346 24.379 19.7814 24.2352C18.5903 23.5331 18.0321 22.6182 18.1069 21.4846C18.2277 19.9137 19.6836 18.7455 21.525 18.734C22.3478 18.734 23.1707 18.9009 23.959 19.2347C24.241 19.3497 24.7359 19.626 24.9085 19.7525C25.0063 19.8274 25.0293 19.9079 24.9718 20C24.9373 20.0518 24.8855 20.1381 24.7762 20.3107C24.6323 20.5409 24.6266 20.5466 24.592 20.6042C24.5345 20.6905 24.4654 20.702 24.3618 20.633C23.516 20.0633 22.578 19.7813 21.548 19.7583C20.2647 19.7813 19.3038 20.5466 19.2405 21.5882C19.2232 22.5261 19.9252 23.2109 21.4501 23.7346C24.546 24.7358 25.7256 25.8982 25.5012 27.7338Z" fill="white"/>
<defs>
<filter id="filter0_d_201_1763" x="0" y="0" width="46" height="46" filterUnits="userSpaceOnUse" color-interpolation-filters="sRGB">
<feFlood flood-opacity="0" result="BackgroundImageFix"/>
<feColorMatrix in="SourceAlpha" type="matrix" values="0 0 0 0 0 0 0 0 0 0 0 0 0 0 0 0 0 0 127 0" result="hardAlpha"/>
<feOffset dx="2" dy="2"/>
<feComposite in2="hardAlpha" operator="out"/>
<feColorMatrix type="matrix" values="0 0 0 0 0.176471 0 0 0 0 0.168627 0 0 0 0 0.454902 0 0 0 1 0"/>
<feBlend mode="normal" in2="BackgroundImageFix" result="effect1_dropShadow_201_1763"/>
<feBlend mode="normal" in="SourceGraphic" in2="effect1_dropShadow_201_1763" result="shape"/>
</filter>
</defs>
</svg>
