<svg width="46" height="46" viewBox="0 0 46 46" fill="none" xmlns="http://www.w3.org/2000/svg">
<g filter="url(#filter0_d_201_1775)">
<circle cx="22" cy="22" r="22" fill="#00A3FF"/>
<circle cx="22" cy="22" r="21.5" stroke="#2D2B74"/>
</g>
<path d="M25.2765 20.2972C25.3009 20.2575 25.3193 20.2086 25.3498 20.1781C26.2905 19.2343 27.2313 18.2905 28.1751 17.3498C28.8623 16.6656 30.0046 16.8336 30.4658 17.6796C30.7713 18.2386 30.6705 18.935 30.2184 19.3901C29.2685 20.34 28.3186 21.2899 27.3687 22.2398C27.3382 22.2703 27.2985 22.2917 27.2557 22.3253C27.3076 22.3833 27.3382 22.42 27.3718 22.4536C28.3186 23.4004 29.2685 24.3442 30.2154 25.2941C30.982 26.0638 30.6674 27.368 29.6381 27.6887C29.0853 27.8628 28.5844 27.7407 28.172 27.3314C27.2282 26.3967 26.2906 25.453 25.3529 24.5122C25.3193 24.4786 25.2979 24.4359 25.2704 24.3992C25.2582 24.4053 25.2429 24.4145 25.2307 24.4206C25.2276 24.4603 25.2215 24.5 25.2215 24.5397C25.2215 25.1292 25.2215 25.7156 25.2215 26.3051C25.2185 27.0076 24.7481 27.5849 24.0609 27.7284C23.1873 27.9087 22.3413 27.2336 22.3382 26.3418C22.3352 23.6814 22.3352 21.018 22.3382 18.3577C22.3382 17.6308 22.9155 16.9955 23.6149 16.9374C24.3907 16.8702 25.0566 17.362 25.1971 18.1073C25.2124 18.1958 25.2215 18.2875 25.2215 18.376C25.2246 18.9625 25.2215 19.5459 25.2215 20.1323C25.2215 20.175 25.2215 20.2178 25.2215 20.2606C25.2399 20.2728 25.2582 20.285 25.2765 20.2972Z" fill="white"/>
<path d="M13.6642 23.1992C13.6642 24.2346 13.6642 25.2731 13.6642 26.3085C13.6642 27.0079 13.1939 27.5821 12.5127 27.7288C11.63 27.9181 10.784 27.2309 10.784 26.3299C10.784 24.2254 10.784 22.1179 10.784 20.0135C10.784 19.7905 10.8145 19.8149 10.5793 19.8149C10.1578 19.8119 9.73328 19.818 9.31178 19.8119C8.57568 19.7997 7.94343 19.2132 7.90067 18.5138C7.8518 17.7074 8.36493 17.0538 9.13768 16.9439C9.21098 16.9316 9.29039 16.9316 9.3637 16.9316C11.2727 16.9316 13.1847 16.9316 15.0937 16.9316C15.8084 16.9316 16.3826 17.402 16.5261 18.0923C16.7064 18.9536 16.0375 19.7966 15.1578 19.8119C14.718 19.818 14.2781 19.8149 13.8353 19.8149C13.6612 19.8149 13.6612 19.8149 13.6612 19.9952C13.6642 21.0611 13.6642 22.1301 13.6642 23.1992Z" fill="white"/>
<path d="M32.0879 22.3379C32.0879 21.0153 32.0879 19.6959 32.0879 18.3733C32.0879 17.7441 32.488 17.1944 33.0775 16.9989C34.0121 16.6904 34.9743 17.3837 34.9743 18.3703C34.9743 21.0123 34.9743 23.6573 34.9743 26.2994C34.9743 27.0752 34.4184 27.6738 33.6242 27.7532C32.934 27.8235 32.262 27.3073 32.1154 26.5926C32.094 26.4948 32.0879 26.391 32.0879 26.2902C32.0879 24.9738 32.0879 23.6574 32.0879 22.3379Z" fill="white"/>
<path d="M17.6445 22.3409C17.6445 21.0276 17.6445 19.7111 17.6445 18.3978C17.6445 17.6495 18.1271 17.0783 18.8602 16.9439C19.6848 16.7942 20.5156 17.4631 20.5248 18.3C20.537 19.2652 20.5278 20.2273 20.5278 21.1925C20.5278 22.9151 20.5309 24.6378 20.5248 26.3605C20.5217 27.124 19.8742 27.7471 19.1076 27.7563C18.3379 27.7654 17.6812 27.1637 17.6537 26.4032C17.6384 25.9603 17.6476 25.5144 17.6476 25.0715C17.6445 24.1613 17.6445 23.2511 17.6445 22.3409Z" fill="white"/>
<defs>
<filter id="filter0_d_201_1775" x="0" y="0" width="46" height="46" filterUnits="userSpaceOnUse" color-interpolation-filters="sRGB">
<feFlood flood-opacity="0" result="BackgroundImageFix"/>
<feColorMatrix in="SourceAlpha" type="matrix" values="0 0 0 0 0 0 0 0 0 0 0 0 0 0 0 0 0 0 127 0" result="hardAlpha"/>
<feOffset dx="2" dy="2"/>
<feComposite in2="hardAlpha" operator="out"/>
<feColorMatrix type="matrix" values="0 0 0 0 0.176471 0 0 0 0 0.168627 0 0 0 0 0.454902 0 0 0 1 0"/>
<feBlend mode="normal" in2="BackgroundImageFix" result="effect1_dropShadow_201_1775"/>
<feBlend mode="normal" in="SourceGraphic" in2="effect1_dropShadow_201_1775" result="shape"/>
</filter>
</defs>
</svg>
