<svg width="42" height="42" viewBox="0 0 42 42" fill="none" xmlns="http://www.w3.org/2000/svg">
<g filter="url(#filter0_d_779_9)">
<circle cx="19.9994" cy="20.0008" r="19.9994" fill="#F285A8"/>
<circle cx="19.9994" cy="20.0008" r="19.4994" stroke="#2D2B74"/>
</g>
<path d="M27.1814 13.2649C27.0238 13.1832 26.8663 13.0899 26.7146 12.9965C26.2771 12.7048 25.8745 12.3664 25.5186 11.9813C24.6259 10.9603 24.2934 9.92767 24.1709 9.19838H24.1767C24.0717 8.59744 24.1184 8.20654 24.1242 8.20654H20.0635V23.9184C20.0635 24.1284 20.0635 24.3384 20.0518 24.5426C20.0518 24.566 20.0518 24.5893 20.046 24.6185C20.046 24.6302 20.046 24.6418 20.046 24.6535C20.046 24.6593 20.046 24.6593 20.046 24.6652C19.9585 25.8087 19.3109 26.8355 18.3074 27.4015C17.794 27.6932 17.2164 27.8449 16.6271 27.8449C14.7368 27.8449 13.2024 26.2988 13.2024 24.3968C13.2024 22.4948 14.7368 20.9487 16.6271 20.9487C16.983 20.9487 17.3389 21.007 17.6831 21.1179L17.6889 16.9814C15.6002 16.713 13.4882 17.3256 11.8721 18.685C11.172 19.2918 10.5827 20.021 10.1335 20.832C9.9643 21.1296 9.31667 22.3139 9.23499 24.2451C9.18831 25.3419 9.51503 26.4738 9.67256 26.9405V26.9522C9.77174 27.2264 10.151 28.1716 10.7753 28.9651C11.277 29.601 11.8721 30.1611 12.5372 30.6278V30.6162L12.5489 30.6278C14.515 31.9639 16.6971 31.8764 16.6971 31.8764C17.0763 31.8589 18.3365 31.8764 19.7776 31.1938C21.3704 30.4411 22.2747 29.3151 22.2747 29.3151C22.8523 28.6442 23.3132 27.8799 23.6399 27.0514C24.0075 26.0829 24.13 24.9277 24.13 24.461V16.1237C24.1767 16.1529 24.836 16.5846 24.836 16.5846C24.836 16.5846 25.7811 17.1914 27.2572 17.5881C28.3132 17.8682 29.7426 17.9265 29.7426 17.9265V13.895C29.2351 13.9358 28.2199 13.7783 27.1814 13.2649Z" fill="white"/>
<defs>
<filter id="filter0_d_779_9" x="0" y="0.00146484" width="41.999" height="41.9985" filterUnits="userSpaceOnUse" color-interpolation-filters="sRGB">
<feFlood flood-opacity="0" result="BackgroundImageFix"/>
<feColorMatrix in="SourceAlpha" type="matrix" values="0 0 0 0 0 0 0 0 0 0 0 0 0 0 0 0 0 0 127 0" result="hardAlpha"/>
<feOffset dx="2" dy="2"/>
<feComposite in2="hardAlpha" operator="out"/>
<feColorMatrix type="matrix" values="0 0 0 0 0.176471 0 0 0 0 0.168627 0 0 0 0 0.454902 0 0 0 1 0"/>
<feBlend mode="normal" in2="BackgroundImageFix" result="effect1_dropShadow_779_9"/>
<feBlend mode="normal" in="SourceGraphic" in2="effect1_dropShadow_779_9" result="shape"/>
</filter>
</defs>
</svg>
