<svg width="46" height="46" viewBox="0 0 46 46" fill="none" xmlns="http://www.w3.org/2000/svg">
<g filter="url(#filter0_d_153_2271)">
<circle cx="22" cy="22" r="22" fill="#F285A8"/>
<circle cx="22" cy="22" r="21.5" stroke="#2D2B74"/>
</g>
<path d="M29.9004 14.5898C29.7271 14.4999 29.5539 14.3972 29.387 14.2945C28.9056 13.9736 28.4628 13.6014 28.0713 13.1778C27.0894 12.0547 26.7235 10.9187 26.5888 10.1164H26.5952C26.4797 9.45539 26.531 9.02539 26.5374 9.02539H22.0705V26.3089C22.0705 26.54 22.0705 26.771 22.0577 26.9957C22.0577 27.0213 22.0577 27.047 22.0513 27.0791C22.0513 27.0919 22.0513 27.1048 22.0513 27.1176C22.0513 27.124 22.0513 27.124 22.0513 27.1304C21.955 28.3884 21.2426 29.5179 20.1387 30.1405C19.574 30.4614 18.9386 30.6282 18.2904 30.6282C16.2109 30.6282 14.523 28.9275 14.523 26.8352C14.523 24.743 16.2109 23.0422 18.2904 23.0422C18.6819 23.0422 19.0733 23.1064 19.452 23.2283L19.4584 18.678C17.1608 18.3828 14.8375 19.0567 13.0597 20.552C12.2896 21.2195 11.6414 22.0218 11.1472 22.9138C10.961 23.2412 10.2486 24.544 10.1588 26.6683C10.1074 27.8749 10.4668 29.12 10.6401 29.6334V29.6463C10.7492 29.9479 11.1664 30.9876 11.8531 31.8605C12.4051 32.56 13.0597 33.1762 13.7914 33.6896V33.6768L13.8042 33.6896C15.967 35.1593 18.3674 35.063 18.3674 35.063C18.7845 35.0438 20.1708 35.063 21.756 34.3121C23.5081 33.4842 24.5029 32.2456 24.5029 32.2456C25.1383 31.5075 25.6453 30.6667 26.0047 29.7554C26.409 28.69 26.5438 27.4192 26.5438 26.9058V17.7346C26.5952 17.7666 27.3204 18.2416 27.3204 18.2416C27.3204 18.2416 28.3601 18.909 29.9839 19.3455C31.1455 19.6535 32.7179 19.7177 32.7179 19.7177V15.2829C32.1595 15.3278 31.0428 15.1545 29.9004 14.5898Z" fill="white"/>
<defs>
<filter id="filter0_d_153_2271" x="0" y="0" width="46" height="46" filterUnits="userSpaceOnUse" color-interpolation-filters="sRGB">
<feFlood flood-opacity="0" result="BackgroundImageFix"/>
<feColorMatrix in="SourceAlpha" type="matrix" values="0 0 0 0 0 0 0 0 0 0 0 0 0 0 0 0 0 0 127 0" result="hardAlpha"/>
<feOffset dx="2" dy="2"/>
<feComposite in2="hardAlpha" operator="out"/>
<feColorMatrix type="matrix" values="0 0 0 0 0.176471 0 0 0 0 0.168627 0 0 0 0 0.454902 0 0 0 1 0"/>
<feBlend mode="normal" in2="BackgroundImageFix" result="effect1_dropShadow_153_2271"/>
<feBlend mode="normal" in="SourceGraphic" in2="effect1_dropShadow_153_2271" result="shape"/>
</filter>
</defs>
</svg>
