<svg width="42" height="43" viewBox="0 0 42 43" fill="none" xmlns="http://www.w3.org/2000/svg">
<g filter="url(#filter0_d_779_22)">
<circle cx="20.0003" cy="20.5502" r="19.9994" fill="white"/>
<circle cx="20.0003" cy="20.5502" r="19.4994" stroke="#2D2B74"/>
</g>
<path d="M6.58758 15.0957C9.1997 15.0957 11.8561 15.0957 14.4682 15.0957C14.4682 15.4056 14.4682 15.6713 14.3797 15.9812C14.3354 16.2025 14.2026 16.4239 14.0698 16.601C13.8484 16.8666 13.627 17.1323 13.4499 17.3536C11.8561 19.3459 10.3065 21.294 8.71269 23.2863C10.6164 23.2863 12.5202 23.2863 14.4682 23.2863C14.4682 23.5962 14.4682 23.9061 14.4682 24.216C14.4682 24.5702 14.1583 24.8358 13.8041 24.8358C11.3248 24.8358 8.84551 24.8358 6.36621 24.8358C6.36621 24.5259 6.36621 24.2603 6.41048 23.9503C6.45476 23.6847 6.58758 23.4633 6.76467 23.2863C8.5356 21.1169 10.3065 18.9032 12.0775 16.7338C10.2623 16.7338 8.44705 16.7338 6.58758 16.7338C6.58758 16.2025 6.58758 15.6713 6.58758 15.0957Z" fill="#0068FF"/>
<path d="M23.9873 15.0957C24.5629 15.0957 25.0941 15.0957 25.6697 15.0957C25.6697 18.3719 25.6697 21.6039 25.6697 24.8801C25.2712 24.8801 24.917 24.8801 24.5186 24.8801C24.2087 24.8801 23.9873 24.6144 23.9873 24.3045C23.9873 21.2497 23.9873 18.1506 23.9873 15.0957Z" fill="#0068FF"/>
<path d="M30.4947 17.2214C31.4687 17.1772 32.4427 17.4871 33.1511 18.1069C33.8152 18.6825 34.3022 19.4794 34.4793 20.3648C34.6564 21.2503 34.4793 22.2243 34.0365 23.0212C33.5938 23.8182 32.7969 24.438 31.9114 24.7479C30.9374 25.0578 29.8748 25.0135 28.9894 24.5708C28.1039 24.1723 27.4398 23.4197 27.0856 22.49C26.6872 21.516 26.7315 20.4091 27.1742 19.4351C27.5284 18.6382 28.1482 17.9741 28.9451 17.6199C29.3878 17.3985 29.9191 17.2214 30.4947 17.2214ZM30.3619 18.8153C29.5649 18.9038 28.8566 19.4794 28.5467 20.232C28.3253 20.7633 28.3253 21.3831 28.5467 21.9144C28.7237 22.3571 29.0337 22.7556 29.4321 22.977C29.8748 23.2426 30.3619 23.3754 30.8931 23.3312C31.2916 23.2869 31.6901 23.1541 32 22.8884C32.3984 22.5785 32.7083 22.18 32.8412 21.693C32.974 21.1618 32.9297 20.5862 32.7083 20.0992C32.487 19.6122 32.0885 19.2137 31.6458 18.9924C31.2473 18.8596 30.8046 18.771 30.3619 18.8153Z" fill="#0068FF"/>
<path d="M17.168 17.5754C17.8321 17.2655 18.5847 17.1769 19.3373 17.2655C19.9572 17.354 20.5327 17.6196 21.0197 17.9738C21.0197 17.7967 21.0197 17.6196 21.0197 17.4425C21.551 17.4425 22.0823 17.4425 22.6136 17.4425C22.6136 19.9218 22.6136 22.4011 22.6136 24.8362C22.3037 24.8362 21.9937 24.8362 21.6396 24.8362C21.2854 24.8362 21.0197 24.5263 21.0197 24.1721C20.2228 24.7476 19.1603 25.0133 18.1862 24.8804C17.3451 24.7476 16.5481 24.3492 15.9726 23.7293C15.397 23.1538 15.0428 22.3569 14.9543 21.56C14.8658 20.8073 14.9986 20.0104 15.3528 19.302C15.7069 18.5937 16.371 17.9296 17.168 17.5754ZM18.629 18.8593C17.8321 18.9036 17.0794 19.3906 16.7252 20.1432C16.4596 20.6745 16.4153 21.25 16.5924 21.8256C16.7252 22.2683 16.9909 22.6668 17.3893 22.9324C17.7878 23.2423 18.2305 23.3752 18.7175 23.3752C19.2045 23.3752 19.6915 23.2423 20.09 22.9324C20.4885 22.6225 20.7984 22.2241 20.9312 21.7371C21.064 21.25 21.064 20.763 20.8869 20.276C20.7098 19.8776 20.4442 19.4791 20.09 19.2577C19.6473 18.9478 19.116 18.815 18.629 18.8593Z" fill="#0068FF"/>
<defs>
<filter id="filter0_d_779_22" x="0.000976562" y="0.550781" width="41.999" height="41.9985" filterUnits="userSpaceOnUse" color-interpolation-filters="sRGB">
<feFlood flood-opacity="0" result="BackgroundImageFix"/>
<feColorMatrix in="SourceAlpha" type="matrix" values="0 0 0 0 0 0 0 0 0 0 0 0 0 0 0 0 0 0 127 0" result="hardAlpha"/>
<feOffset dx="2" dy="2"/>
<feComposite in2="hardAlpha" operator="out"/>
<feColorMatrix type="matrix" values="0 0 0 0 0.176471 0 0 0 0 0.168627 0 0 0 0 0.454902 0 0 0 1 0"/>
<feBlend mode="normal" in2="BackgroundImageFix" result="effect1_dropShadow_779_22"/>
<feBlend mode="normal" in="SourceGraphic" in2="effect1_dropShadow_779_22" result="shape"/>
</filter>
</defs>
</svg>
