<svg width="46" height="46" viewBox="0 0 46 46" fill="none" xmlns="http://www.w3.org/2000/svg">
<g filter="url(#filter0_d_153_2284)">
<circle cx="22" cy="22" r="22" fill="white"/>
<circle cx="22" cy="22" r="21.5" stroke="#2D2B74"/>
</g>
<path d="M7.24351 16C10.1169 16 13.0391 16 15.9125 16C15.9125 16.3409 15.9125 16.6331 15.8151 16.974C15.7664 17.2176 15.6203 17.4611 15.4742 17.6559C15.2307 17.9481 14.9871 18.2403 14.7923 18.4838C13.0391 20.6754 11.3345 22.8183 9.58121 25.0099C11.6754 25.0099 13.7696 25.0099 15.9125 25.0099C15.9125 25.3508 15.9125 25.6917 15.9125 26.0326C15.9125 26.4222 15.5716 26.7145 15.1819 26.7145C12.4546 26.7145 9.72732 26.7145 7 26.7145C7 26.3735 7 26.0813 7.0487 25.7404C7.0974 25.4482 7.24351 25.2047 7.43832 25.0099C9.3864 22.6235 11.3345 20.1884 13.2826 17.802C11.2858 17.802 9.289 17.802 7.24351 17.802C7.24351 17.2176 7.24351 16.6331 7.24351 16Z" fill="#0068FF"/>
<path d="M26.3833 16C27.0164 16 27.6009 16 28.234 16C28.234 19.604 28.234 23.1592 28.234 26.7632C27.7957 26.7632 27.4061 26.7632 26.9677 26.7632C26.6268 26.7632 26.3833 26.4709 26.3833 26.13C26.3833 22.7696 26.3833 19.3604 26.3833 16Z" fill="#0068FF"/>
<path d="M33.5427 18.3376C34.6142 18.2889 35.6856 18.6298 36.4648 19.3116C37.1954 19.9448 37.7311 20.8214 37.9259 21.7954C38.1207 22.7695 37.9259 23.8409 37.4389 24.7176C36.9519 25.5942 36.0752 26.276 35.1012 26.6169C34.0297 26.9579 32.8609 26.9092 31.8868 26.4221C30.9128 25.9838 30.1823 25.1559 29.7926 24.1331C29.3543 23.0617 29.403 21.8441 29.8901 20.7727C30.2797 19.8961 30.9615 19.1655 31.8381 18.7759C32.3252 18.5324 32.9096 18.3376 33.5427 18.3376ZM33.3966 20.0909C32.52 20.1883 31.7407 20.8214 31.3998 21.6493C31.1563 22.2338 31.1563 22.9156 31.3998 23.5C31.5946 23.987 31.9355 24.4253 32.3739 24.6689C32.8609 24.9611 33.3966 25.1072 33.981 25.0585C34.4193 25.0098 34.8577 24.8637 35.1986 24.5715C35.6369 24.2305 35.9778 23.7922 36.1239 23.2565C36.27 22.6721 36.2213 22.0389 35.9778 21.5032C35.7343 20.9675 35.296 20.5292 34.809 20.2857C34.3706 20.1396 33.8836 20.0422 33.3966 20.0909Z" fill="#0068FF"/>
<path d="M18.8828 18.7273C19.6133 18.3864 20.4412 18.289 21.2692 18.3864C21.951 18.4838 22.5841 18.776 23.1199 19.1656C23.1199 18.9708 23.1199 18.776 23.1199 18.5812C23.7043 18.5812 24.2887 18.5812 24.8731 18.5812C24.8731 21.3085 24.8731 24.0358 24.8731 26.7144C24.5322 26.7144 24.1913 26.7144 23.8017 26.7144C23.4121 26.7144 23.1199 26.3735 23.1199 25.9839C22.2432 26.617 21.0744 26.9092 20.0029 26.7631C19.0776 26.617 18.201 26.1787 17.5678 25.4969C16.9347 24.8638 16.5451 23.9871 16.4477 23.1105C16.3503 22.2826 16.4964 21.4059 16.886 20.6267C17.2756 19.8474 18.0061 19.1169 18.8828 18.7273ZM20.49 20.1397C19.6133 20.1884 18.7854 20.7241 18.3958 21.552C18.1035 22.1364 18.0548 22.7696 18.2497 23.4027C18.3958 23.8897 18.688 24.328 19.1263 24.6203C19.5646 24.9612 20.0516 25.1073 20.5874 25.1073C21.1231 25.1073 21.6588 24.9612 22.0971 24.6203C22.5354 24.2793 22.8764 23.841 23.0225 23.3053C23.1686 22.7696 23.1686 22.2338 22.9738 21.6981C22.7789 21.2598 22.4867 20.8215 22.0971 20.578C21.6101 20.2371 21.0257 20.091 20.49 20.1397Z" fill="#0068FF"/>
<defs>
<filter id="filter0_d_153_2284" x="0" y="0" width="46" height="46" filterUnits="userSpaceOnUse" color-interpolation-filters="sRGB">
<feFlood flood-opacity="0" result="BackgroundImageFix"/>
<feColorMatrix in="SourceAlpha" type="matrix" values="0 0 0 0 0 0 0 0 0 0 0 0 0 0 0 0 0 0 127 0" result="hardAlpha"/>
<feOffset dx="2" dy="2"/>
<feComposite in2="hardAlpha" operator="out"/>
<feColorMatrix type="matrix" values="0 0 0 0 0.176471 0 0 0 0 0.168627 0 0 0 0 0.454902 0 0 0 1 0"/>
<feBlend mode="normal" in2="BackgroundImageFix" result="effect1_dropShadow_153_2284"/>
<feBlend mode="normal" in="SourceGraphic" in2="effect1_dropShadow_153_2284" result="shape"/>
</filter>
</defs>
</svg>
