<svg width="282" height="377" viewBox="0 0 282 377" fill="none" xmlns="http://www.w3.org/2000/svg">
<path d="M255.17 0.0302734H26.8201C12.2011 0.0302734 0.350098 11.8813 0.350098 26.5003V349.81C0.350098 364.429 12.2011 376.28 26.8201 376.28H255.17C269.789 376.28 281.64 364.429 281.64 349.81V26.5003C281.64 11.8813 269.789 0.0302734 255.17 0.0302734Z" fill="#FFD744"/>
<mask id="mask0_1231_275" style="mask-type:luminance" maskUnits="userSpaceOnUse" x="0" y="0" width="282" height="377">
<path d="M255.17 0.0302734H26.8201C12.2011 0.0302734 0.350098 11.8813 0.350098 26.5003V349.81C0.350098 364.429 12.2011 376.28 26.8201 376.28H255.17C269.789 376.28 281.64 364.429 281.64 349.81V26.5003C281.64 11.8813 269.789 0.0302734 255.17 0.0302734Z" fill="white"/>
</mask>
<g mask="url(#mask0_1231_275)">
<mask id="mask1_1231_275" style="mask-type:luminance" maskUnits="userSpaceOnUse" x="0" y="0" width="282" height="377">
<path d="M255.17 0.0302734H26.8201C12.2011 0.0302734 0.350098 11.8813 0.350098 26.5003V349.81C0.350098 364.429 12.2011 376.28 26.8201 376.28H255.17C269.789 376.28 281.64 364.429 281.64 349.81V26.5003C281.64 11.8813 269.789 0.0302734 255.17 0.0302734Z" fill="white"/>
</mask>
<g mask="url(#mask1_1231_275)">
<path d="M321.44 343.43C318.86 343.43 316.37 343.83 314.05 344.58C314.46 342.37 314.67 340.11 314.67 337.79C314.67 316.53 297.43 299.31 276.17 299.31C264.14 299.31 253.38 304.84 246.33 313.48C240.8 286.05 216.58 265.4 187.52 265.4C175.32 265.4 163.94 269.04 154.47 275.32C154.6 274.28 154.66 273.23 154.66 272.15C154.66 257.15 142.51 244.99 127.52 244.99C123.77 244.99 120.18 245.74 116.92 247.14C115.71 226.54 98.62 210.21 77.72 210.21C63.74 210.21 51.4599 217.53 44.4999 228.56C37.1999 225.16 29.05 223.28 20.47 223.28C-11.16 223.28 -36.8 248.91 -36.8 280.55C-36.8 288.21 -35.2901 295.51 -32.5601 302.17C-53.7401 305.87 -69.8101 324.35 -69.8101 346.59C-69.8101 371.53 -49.61 391.73 -24.67 391.73H321.44C334.78 391.73 345.58 380.92 345.58 367.59C345.58 354.26 334.77 343.45 321.44 343.45V343.43Z" fill="#FFCC0F"/>
</g>
<path d="M68.1 267.081V277.251L48.1899 272.831L68.1 267.081Z" fill="#FFD744"/>
<path d="M69.79 265.551H68.67C68.3 265.551 68 265.851 68 266.221V314.571C68 314.941 68.3 315.241 68.67 315.241H69.79C70.1601 315.241 70.46 314.941 70.46 314.571V266.221C70.46 265.851 70.1601 265.551 69.79 265.551Z" fill="#FDBF1E"/>
<path d="M52.33 193.81H45.56C45.25 193.81 45 194.07 45 194.39V201.04H40.33V194.32C40.33 193.93 40.01 193.61 39.62 193.61H32.75C32.43 193.61 32.16 193.87 32.16 194.2V200.35C32.16 200.49 32.04 200.61 31.9 200.61H26.98C26.84 200.61 26.72 200.49 26.72 200.35V194.21C26.72 193.88 26.45 193.61 26.12 193.61H19.03C18.72 193.61 18.48 193.86 18.48 194.16V200.35C18.48 200.49 18.36 200.61 18.22 200.61H13.3C13.16 200.61 13.04 200.49 13.04 200.35V194.17C13.04 193.86 12.79 193.61 12.48 193.61H5.47C5.1 193.61 4.79001 193.91 4.79001 194.29V200.35C4.79001 200.49 4.67 200.61 4.53 200.61H-0.389984C-0.529984 200.61 -0.649994 200.49 -0.649994 200.35V194.41C-0.649994 193.97 -1.00998 193.61 -1.44998 193.61H-7.88998C-8.39998 193.61 -8.82004 194.03 -8.82004 194.54V201.04H-13.49V194.39C-13.49 194.07 -13.74 193.81 -14.05 193.81H-20.82C-21.13 193.81 -21.38 194.07 -21.38 194.39V210.34C-21.38 211.03 -20.84 211.59 -20.18 211.59H-8.82999L-21.39 335.71C-21.51 338.75 48.97 339.3 48.97 336L40.3 211.59H51.65C52.31 211.59 52.85 211.03 52.85 210.34V194.39C52.85 194.07 52.6 193.81 52.29 193.81H52.33Z" fill="#FDBF1E"/>
<path d="M20.71 392.49C19.87 392.46 19.25 391.69 19.41 390.86L36.18 302.29C36.18 301.62 36.72 301.08 37.39 301.08H100.3C100.97 301.08 101.51 301.62 101.51 302.29L118.85 391.4C119.01 392.22 118.41 393 117.57 393.04C105.87 393.62 32.5 392.87 20.73 392.49H20.71Z" fill="#FFD744"/>
<path d="M55.4302 392.791V353.191C55.4302 349.071 58.7702 345.721 62.9002 345.721H75.3402C79.4602 345.721 82.8102 349.061 82.8102 353.191V392.791C82.8102 392.971 82.6602 393.121 82.4802 393.121H55.7802C55.6002 393.121 55.4502 392.971 55.4502 392.791H55.4302Z" fill="#FFCC0F"/>
<path d="M4.32007 263.87V234.24C4.32007 230.79 7.12006 228 10.5601 228H20.9601C24.4101 228 27.2001 230.8 27.2001 234.24V263.87C27.2001 264.02 27.0801 264.14 26.9301 264.14H4.58008C4.43008 264.14 4.31006 264.02 4.31006 263.87H4.32007Z" fill="#FFD744"/>
<path d="M251.16 187.78C250.71 185.34 240.97 172.22 234.95 173.35C229.21 174.42 224.24 188.14 224.99 193.09C225.73 197.96 228.6 212.45 228.6 212.45C228.74 213.23 229.49 213.74 230.27 213.59L238.42 212.07L245.73 251.31C245.92 252.32 246.89 252.99 247.9 252.8L251.4 252.15C252.41 251.96 253.08 250.99 252.89 249.98L245.58 210.74L253.8 209.21C254.58 209.07 255.09 208.32 254.94 207.54C254.94 207.54 252.05 192.62 251.15 187.77L251.16 187.78ZM249.2 250.09C248.48 250.22 247.79 249.75 247.66 249.03C247.53 248.31 248 247.62 248.72 247.49C249.44 247.36 250.13 247.83 250.26 248.55C250.39 249.27 249.92 249.96 249.2 250.09Z" fill="#FFCC0F"/>
<path d="M292.1 203.1L291.1 202.89C290.19 202.7 289.3 203.3 289.11 204.23L287.85 210.36C287.66 211.29 286.77 211.88 285.86 211.7C284.95 211.51 284.37 210.61 284.56 209.68L285.82 203.55C286.01 202.62 285.43 201.72 284.52 201.53L283.14 201.24C282.23 201.05 281.34 201.65 281.15 202.58L279.89 208.71C279.7 209.64 278.81 210.23 277.9 210.05C276.99 209.86 276.41 208.96 276.6 208.03L277.86 201.9C278.05 200.97 277.47 200.07 276.56 199.88L275.18 199.59C274.27 199.4 273.38 200 273.19 200.93L271.93 207.06C271.74 207.99 270.85 208.58 269.94 208.4C269.03 208.21 268.45 207.31 268.64 206.38L269.9 200.25C270.09 199.32 269.51 198.42 268.6 198.23L267.6 198.02C266.69 197.83 265.8 198.43 265.61 199.36L262.09 216.43C261.36 219.99 263.59 223.47 267.09 224.19L270.79 224.95L261.92 267.98C261.69 269.09 262.39 270.17 263.48 270.4L267.25 271.18C268.34 271.4 269.41 270.69 269.63 269.58L278.5 226.55L282.2 227.31C285.7 228.03 289.13 225.73 289.86 222.16L293.38 205.09C293.57 204.16 292.99 203.26 292.08 203.07L292.1 203.1ZM265.92 268.19C265.15 268.03 264.65 267.26 264.82 266.48C264.98 265.69 265.74 265.18 266.51 265.34C267.28 265.5 267.78 266.27 267.61 267.05C267.45 267.84 266.69 268.35 265.92 268.19Z" fill="#FFCC0F"/>
<path d="M223.36 261.54L221.24 241.72C221.26 240.71 222.1 239.91 223.11 239.93L288.78 241.35C289.79 241.37 290.59 242.21 290.57 243.22L287.45 262.9C287.18 264 286.68 264.74 285.67 264.72L225.16 263.41C224.15 263.39 223.35 262.55 223.37 261.54H223.36Z" fill="#FCB614"/>
<path d="M229 316.21L224.59 263.39L286.26 264.72L280.65 317.4C280.37 320.06 278.09 322.06 275.41 321.99L233.97 320.9C231.35 320.83 229.21 318.8 228.99 316.2L229 316.21Z" fill="#FDBF1E"/>
</g>
<path d="M140.74 275.27C131.36 275.27 122.9 274.06 115.35 271.62C107.8 269.19 101.39 265.59 96.14 260.81C90.89 256.04 86.96 250.18 84.36 243.23C87.14 241.23 90.48 239.19 94.39 237.11C98.3 235.03 102.31 233.07 106.43 231.25C110.55 229.43 114.22 227.95 117.43 226.82C119.34 231.77 122.16 235.85 125.89 239.06C129.62 242.27 134.79 243.88 141.39 243.88C147.99 243.88 153.28 242.32 157.27 239.19C161.26 236.07 163.26 231.47 163.26 225.39C163.26 219.31 161.31 214.06 157.4 210.42C153.49 206.77 147.89 204.17 140.6 202.61C133.31 201.05 124.67 200.27 114.69 200.27C113.91 197.93 113.17 194.15 112.48 188.94C111.78 183.73 111.44 178.22 111.44 172.4C118.12 172.4 124.68 171.36 131.1 169.28C137.52 167.2 142.82 164.31 146.98 160.62C151.15 156.93 153.23 152.66 153.23 147.79C153.23 143.8 152.04 140.5 149.65 137.89C147.26 135.29 143.6 133.98 138.65 133.98C134.48 133.98 130.25 134.85 125.95 136.58C121.65 138.32 117.79 140.42 114.36 142.89C110.93 145.36 108.31 147.73 106.48 149.99C102.75 146.95 99.08 143.81 95.48 140.55C91.88 137.3 88.86 134.43 86.43 131.96C84 129.49 82.52 127.95 82 127.34C84.26 124.65 88.01 121.22 93.26 117.05C98.51 112.88 105.3 109.17 113.64 105.92C121.97 102.66 131.74 101.04 142.94 101.04C151.62 101.04 159.63 102.69 166.96 105.99C174.29 109.29 180.17 114.09 184.6 120.38C189.03 126.67 191.24 134.29 191.24 143.23C191.24 148.79 189.85 154.04 187.07 158.98C184.29 163.93 180.62 168.2 176.07 171.81C171.51 175.41 166.59 177.99 161.29 179.56C168.23 180.86 174.64 183.36 180.5 187.05C186.36 190.74 191.07 195.58 194.63 201.57C198.19 207.56 199.97 214.72 199.97 223.05C199.97 233.99 197.26 243.36 191.83 251.17C186.4 258.98 179.22 264.95 170.28 269.07C161.34 273.19 151.49 275.25 140.72 275.25L140.74 275.27Z" fill="white"/>
<path d="M117.16 300.17C117.12 299.99 117.08 299.73 117.05 299.39C117.02 299.05 117 298.7 116.97 298.33C116.95 297.96 116.93 297.63 116.92 297.33C116.91 297.04 116.9 296.83 116.9 296.72C117.83 296.65 118.9 296.59 120.09 296.54C121.29 296.49 122.5 296.46 123.72 296.46C124.65 296.46 125.55 296.48 126.43 296.52C127.31 296.56 128.11 296.63 128.84 296.74C128.84 297.43 128.83 298.08 128.78 298.67C128.73 299.27 128.67 299.71 128.6 300.01C128.44 300.01 128.21 300.01 127.91 300.01C127.61 300.01 127.28 300.01 126.92 300C126.56 299.99 126.2 300 125.85 299.99C125.5 299.99 125.2 299.98 124.94 299.97C124.94 300.28 124.97 300.73 124.99 301.34C125.01 301.94 125.04 302.63 125.08 303.41C125.11 304.18 125.15 305 125.19 305.85C125.23 306.7 125.27 307.53 125.31 308.35C125.35 309.17 125.38 309.91 125.41 310.59C125.44 311.27 125.46 311.83 125.49 312.27C125.52 312.71 125.52 312.97 125.52 313.05C125.19 313.1 124.75 313.15 124.22 313.19C123.69 313.23 123.16 313.27 122.63 313.29C122.1 313.31 121.67 313.33 121.34 313.33C121.32 312.84 121.29 312.25 121.26 311.55C121.23 310.85 121.21 310.1 121.2 309.29C121.19 308.48 121.17 307.64 121.15 306.79C121.13 305.94 121.12 305.1 121.11 304.28C121.11 303.46 121.1 302.71 121.1 302.03V300.95C121.1 300.62 121.1 300.32 121.11 300.05C120.83 300.07 120.52 300.08 120.19 300.09C119.86 300.1 119.51 300.12 119.16 300.13C118.81 300.14 118.46 300.16 118.12 300.17C117.78 300.17 117.46 300.18 117.16 300.18V300.17Z" fill="white"/>
<path d="M138.65 300.901C138.86 300.821 139.16 300.771 139.54 300.731C139.93 300.691 140.3 300.671 140.67 300.671C140.98 300.671 141.32 300.681 141.7 300.711C142.08 300.731 142.38 300.761 142.61 300.801C142.72 301.471 142.8 302.161 142.86 302.841C142.92 303.521 142.95 304.201 142.95 304.871C142.95 306.091 142.84 307.251 142.63 308.331C142.42 309.411 142.07 310.371 141.59 311.191C141.11 312.021 140.46 312.661 139.65 313.131C138.84 313.601 137.85 313.841 136.66 313.841C135.4 313.841 134.36 313.591 133.55 313.101C132.73 312.601 132.1 311.911 131.64 311.021C131.18 310.131 130.86 309.101 130.68 307.911C130.5 306.721 130.41 305.441 130.41 304.071C130.41 303.461 130.42 302.841 130.45 302.211C130.48 301.581 130.52 300.951 130.57 300.331C130.79 300.311 131.07 300.301 131.43 300.291C131.79 300.281 132.11 300.281 132.4 300.291C132.82 300.291 133.24 300.311 133.66 300.361C134.08 300.411 134.41 300.471 134.65 300.541C134.59 301.111 134.54 301.721 134.5 302.371C134.46 303.021 134.44 303.681 134.44 304.341C134.44 305.441 134.51 306.431 134.66 307.311C134.81 308.191 135.05 308.891 135.39 309.411C135.73 309.931 136.19 310.191 136.78 310.191C137.33 310.191 137.77 309.961 138.1 309.491C138.43 309.021 138.67 308.401 138.81 307.611C138.96 306.821 139.03 305.941 139.03 304.971C139.03 304.241 138.99 303.511 138.92 302.801C138.85 302.091 138.76 301.461 138.65 300.911V300.901Z" fill="white"/>
<path d="M151.7 313.4C149.49 313.4 147.83 312.81 146.71 311.64C145.59 310.47 145.04 308.77 145.04 306.53C145.04 305.04 145.33 303.8 145.9 302.81C146.48 301.82 147.27 301.08 148.29 300.58C149.31 300.08 150.49 299.83 151.83 299.83C153.17 299.83 154.33 300.14 155.24 300.77C156.15 301.4 156.82 302.26 157.27 303.36C157.72 304.46 157.95 305.73 157.95 307.17C157.95 308.43 157.71 309.52 157.22 310.46C156.74 311.39 156.03 312.12 155.1 312.63C154.17 313.14 153.04 313.4 151.69 313.4H151.7ZM154.12 299.32C153.9 299.05 153.67 298.78 153.41 298.49C153.15 298.2 152.9 297.93 152.65 297.66C152.4 297.39 152.19 297.16 152.01 296.97C151.83 296.78 151.72 296.66 151.67 296.61H152.02C151.94 296.68 151.78 296.8 151.56 296.99C151.34 297.17 151.08 297.39 150.79 297.64C150.5 297.89 150.2 298.15 149.9 298.41C149.6 298.67 149.32 298.93 149.08 299.16C148.85 299.08 148.58 298.96 148.25 298.78C147.93 298.6 147.61 298.4 147.29 298.19C146.97 297.98 146.71 297.77 146.49 297.58C146.87 297.28 147.26 296.97 147.66 296.66C148.06 296.35 148.47 296.05 148.86 295.77C149.25 295.49 149.6 295.24 149.92 295.02C150.24 294.8 150.48 294.64 150.65 294.54C150.79 294.54 151.03 294.52 151.36 294.52C151.69 294.52 152.03 294.51 152.37 294.51H153.15C153.48 294.81 153.85 295.17 154.28 295.59C154.71 296.01 155.14 296.42 155.57 296.85C156 297.28 156.37 297.65 156.68 297.99C156.25 298.29 155.81 298.56 155.35 298.79C154.89 299.02 154.48 299.2 154.12 299.33V299.32ZM151.56 309.81C152.02 309.81 152.43 309.73 152.78 309.57C153.14 309.41 153.43 309.18 153.68 308.89C153.93 308.6 154.11 308.25 154.24 307.85C154.36 307.45 154.43 307.01 154.43 306.54C154.43 305.8 154.32 305.14 154.11 304.57C153.9 304 153.58 303.55 153.17 303.23C152.76 302.91 152.25 302.75 151.64 302.75C150.98 302.75 150.44 302.92 150.03 303.25C149.61 303.58 149.31 304.02 149.11 304.56C148.91 305.1 148.82 305.67 148.82 306.28C148.82 307.3 149.06 308.15 149.53 308.82C150 309.49 150.68 309.82 151.57 309.82L151.56 309.81ZM154.77 295.27C154.77 295.05 154.77 294.78 154.79 294.46C154.8 294.13 154.81 293.91 154.82 293.78C155.43 293.78 155.89 293.74 156.2 293.67C156.51 293.6 156.66 293.45 156.66 293.21C156.66 293 156.55 292.88 156.33 292.85C156.11 292.82 155.87 292.8 155.61 292.8C155.28 292.8 154.92 292.83 154.5 292.89C154.09 292.95 153.79 292.99 153.59 293.03L153.18 291.43C153.27 291.4 153.5 291.35 153.86 291.31C154.22 291.26 154.61 291.21 155.05 291.17C155.48 291.13 155.84 291.11 156.14 291.11C157.08 291.11 157.84 291.23 158.41 291.47C158.99 291.71 159.27 292.17 159.27 292.85C159.27 293.33 159.14 293.69 158.88 293.93C158.62 294.17 158.31 294.33 157.95 294.41C157.59 294.49 157.26 294.55 156.96 294.57C156.96 294.65 156.96 294.76 156.96 294.92C156.96 295.08 156.96 295.23 156.95 295.38C156.95 295.53 156.94 295.63 156.93 295.68L154.78 295.27H154.77Z" fill="white"/>
<path d="M162.8 300.041C162.05 300.041 161.42 299.821 160.91 299.381C160.4 298.941 160.15 298.371 160.15 297.651C160.15 297.161 160.27 296.741 160.51 296.391C160.75 296.041 161.07 295.771 161.45 295.581C161.84 295.391 162.25 295.301 162.68 295.301C163.37 295.301 163.94 295.531 164.4 295.971C164.86 296.421 165.08 297.001 165.08 297.711C165.08 298.371 164.86 298.921 164.43 299.371C164 299.821 163.45 300.041 162.79 300.041H162.8ZM164.2 313.101C164.06 313.101 163.79 313.131 163.39 313.161C162.99 313.191 162.58 313.201 162.13 313.201C161.8 313.201 161.48 313.191 161.15 313.171C160.82 313.151 160.5 313.121 160.18 313.091C160.22 312.871 160.27 312.431 160.32 311.761C160.37 311.091 160.43 310.301 160.48 309.391C160.53 308.481 160.59 307.541 160.64 306.571C160.69 305.601 160.74 304.691 160.76 303.841C160.79 302.991 160.8 302.311 160.8 301.791C160.97 301.791 161.21 301.771 161.54 301.751C161.87 301.731 162.22 301.721 162.59 301.711C162.96 301.701 163.32 301.691 163.66 301.671C164 301.651 164.27 301.651 164.47 301.651C164.51 301.911 164.55 302.321 164.57 302.901C164.59 303.471 164.61 304.121 164.61 304.821C164.61 305.581 164.6 306.381 164.58 307.231C164.56 308.081 164.53 308.901 164.49 309.701C164.45 310.501 164.4 311.201 164.35 311.801C164.29 312.401 164.23 312.841 164.18 313.091L164.2 313.101Z" fill="white"/>
<path d="M61.3198 0C67.7798 0 73.0198 5.24 73.0198 11.71V25.86C73.0198 37.44 82.4098 46.83 93.9898 46.83H188.01C199.59 46.83 208.98 37.44 208.98 25.86V11.71C208.97 5.24 214.21 0 220.68 0" fill="white"/>
<path d="M254.95 1.99953C268.77 1.99953 280.01 13.2395 280.01 27.0595V349.26C280.01 363.08 268.77 374.32 254.95 374.32H27.04C13.22 374.32 1.98004 363.08 1.98004 349.26V27.0595C1.98004 13.2395 13.22 1.99953 27.04 1.99953H254.95ZM254.95 0.0195312H27.04C12.1 0.0195312 0 12.1295 0 27.0595V349.26C0 364.2 12.11 376.3 27.04 376.3H254.95C269.89 376.3 281.99 364.19 281.99 349.26V27.0595C281.99 12.1195 269.88 0.0195312 254.95 0.0195312Z" fill="#1B4799"/>
<path d="M110.532 10.681H115.768C115.836 10.7943 115.898 10.9417 115.955 11.123C116.012 11.293 116.04 11.48 116.04 11.684C116.04 12.0467 115.955 12.3187 115.785 12.5C115.626 12.6813 115.405 12.772 115.122 12.772H110.549L110.532 10.681ZM112.929 12.772H107.693C107.625 12.6587 107.563 12.517 107.506 12.347C107.449 12.1657 107.421 11.9673 107.421 11.752C107.421 11.3893 107.5 11.123 107.659 10.953C107.829 10.7717 108.05 10.681 108.322 10.681H112.912L112.929 12.772ZM112.98 12.313V20.983C112.878 21.0057 112.714 21.034 112.487 21.068C112.26 21.102 112.028 21.119 111.79 21.119C111.291 21.119 110.934 21.0283 110.719 20.847C110.515 20.6657 110.413 20.354 110.413 19.912V12.313H112.98ZM116.916 16.597H119.415V17.804C119.415 18.3253 119.551 18.705 119.823 18.943C120.095 19.1697 120.474 19.283 120.962 19.283C121.268 19.283 121.523 19.2547 121.727 19.198C121.942 19.1413 122.101 19.079 122.203 19.011V16.597H124.702V19.317C124.702 19.589 124.651 19.8213 124.549 20.014C124.447 20.2067 124.277 20.3767 124.039 20.524C123.676 20.7507 123.228 20.9263 122.696 21.051C122.174 21.187 121.591 21.255 120.945 21.255C120.14 21.255 119.432 21.136 118.82 20.898C118.219 20.66 117.749 20.2917 117.409 19.793C117.08 19.283 116.916 18.6257 116.916 17.821V16.597ZM122.203 17.362V12.874C122.305 12.84 122.458 12.806 122.662 12.772C122.866 12.738 123.087 12.721 123.325 12.721C123.812 12.721 124.163 12.806 124.379 12.976C124.594 13.1347 124.702 13.4463 124.702 13.911V17.362H122.203ZM116.916 17.362V12.874C117.018 12.84 117.171 12.806 117.375 12.772C117.579 12.738 117.8 12.721 118.038 12.721C118.525 12.721 118.876 12.806 119.092 12.976C119.307 13.1347 119.415 13.4463 119.415 13.911V17.362H116.916ZM117.987 10.069C117.975 10.0237 117.964 9.967 117.953 9.899C117.953 9.81967 117.953 9.75733 117.953 9.712C117.953 9.36067 118.055 9.083 118.259 8.879C118.474 8.675 118.74 8.573 119.058 8.573C119.25 8.573 119.437 8.61267 119.619 8.692C119.8 8.77133 119.976 8.913 120.146 9.117L121.659 11.004C121.625 11.3553 121.5 11.616 121.285 11.786C121.081 11.956 120.86 12.041 120.622 12.041C120.406 12.041 120.225 12.007 120.078 11.939C119.942 11.871 119.794 11.769 119.636 11.633L117.987 10.069ZM124.328 15.781C124.248 15.6677 124.18 15.458 124.124 15.152C124.078 14.8347 124.056 14.5287 124.056 14.234C124.464 14.234 124.804 14.1093 125.076 13.86C125.348 13.5993 125.484 13.1687 125.484 12.568V11.99C125.631 11.9107 125.773 11.854 125.909 11.82C126.045 11.7747 126.215 11.752 126.419 11.752C126.736 11.752 127.002 11.8313 127.218 11.99C127.444 12.1373 127.558 12.3923 127.558 12.755V12.874C127.558 13.4973 127.422 14.03 127.15 14.472C126.889 14.9027 126.538 15.2313 126.096 15.458C125.665 15.6733 125.189 15.781 124.668 15.781H124.328ZM134.814 10.409C136.049 10.409 137.007 10.6697 137.687 11.191C138.367 11.7123 138.707 12.432 138.707 13.35C138.707 13.7353 138.633 14.081 138.486 14.387C138.35 14.6817 138.163 14.931 137.925 15.135C137.698 15.339 137.46 15.4977 137.211 15.611C137.528 15.713 137.817 15.8717 138.078 16.087C138.339 16.3023 138.554 16.5743 138.724 16.903C138.894 17.2317 138.979 17.6397 138.979 18.127C138.979 18.7843 138.803 19.3453 138.452 19.81C138.101 20.2747 137.613 20.6317 136.99 20.881C136.378 21.1303 135.664 21.255 134.848 21.255C134.111 21.255 133.482 21.1813 132.961 21.034C132.451 20.8867 132.06 20.6883 131.788 20.439C131.516 20.1897 131.38 19.912 131.38 19.606C131.38 19.334 131.442 19.1017 131.567 18.909C131.703 18.705 131.867 18.552 132.06 18.45C132.309 18.6087 132.627 18.7787 133.012 18.96C133.409 19.1413 133.919 19.232 134.542 19.232C135.154 19.232 135.624 19.113 135.953 18.875C136.282 18.637 136.446 18.3197 136.446 17.923C136.446 17.5263 136.31 17.2203 136.038 17.005C135.766 16.7897 135.324 16.682 134.712 16.682H133.165C133.097 16.58 133.035 16.4497 132.978 16.291C132.933 16.121 132.91 15.9283 132.91 15.713C132.91 15.4863 132.933 15.288 132.978 15.118C133.035 14.948 133.097 14.812 133.165 14.71H134.678C135.211 14.71 135.596 14.6137 135.834 14.421C136.072 14.2283 136.191 13.9507 136.191 13.588C136.191 13.2253 136.038 12.942 135.732 12.738C135.437 12.534 135.007 12.432 134.44 12.432C133.964 12.432 133.539 12.4943 133.165 12.619C132.802 12.7323 132.502 12.874 132.264 13.044C132.094 12.9307 131.947 12.7833 131.822 12.602C131.709 12.4207 131.652 12.211 131.652 11.973C131.652 11.633 131.782 11.3497 132.043 11.123C132.315 10.8963 132.689 10.7207 133.165 10.596C133.641 10.4713 134.191 10.409 134.814 10.409ZM146.575 16.512V18.331C146.575 18.6597 146.677 18.8977 146.881 19.045C147.085 19.181 147.369 19.249 147.731 19.249C147.913 19.249 148.1 19.232 148.292 19.198C148.485 19.164 148.655 19.1187 148.802 19.062C148.893 19.164 148.972 19.2887 149.04 19.436C149.108 19.572 149.142 19.7363 149.142 19.929C149.142 20.3143 148.984 20.6317 148.666 20.881C148.36 21.119 147.833 21.238 147.085 21.238C146.145 21.238 145.408 21.0283 144.875 20.609C144.354 20.1783 144.093 19.4757 144.093 18.501V16.512H146.575ZM145.657 13.027H148.938C148.995 13.1177 149.052 13.248 149.108 13.418C149.165 13.588 149.193 13.775 149.193 13.979C149.193 14.319 149.114 14.5683 148.955 14.727C148.808 14.8857 148.604 14.965 148.343 14.965H145.657V13.027ZM144.093 16.937V10.834C144.195 10.8 144.348 10.766 144.552 10.732C144.756 10.6867 144.972 10.664 145.198 10.664C145.674 10.664 146.02 10.749 146.235 10.919C146.462 11.089 146.575 11.395 146.575 11.837V16.937H144.093ZM150.683 16.597H153.182V17.804C153.182 18.3253 153.318 18.705 153.59 18.943C153.862 19.1697 154.242 19.283 154.729 19.283C155.035 19.283 155.29 19.2547 155.494 19.198C155.71 19.1413 155.868 19.079 155.97 19.011V16.597H158.469V19.317C158.469 19.589 158.418 19.8213 158.316 20.014C158.214 20.2067 158.044 20.3767 157.806 20.524C157.444 20.7507 156.996 20.9263 156.463 21.051C155.942 21.187 155.358 21.255 154.712 21.255C153.908 21.255 153.199 21.136 152.587 20.898C151.987 20.66 151.516 20.2917 151.176 19.793C150.848 19.283 150.683 18.6257 150.683 17.821V16.597ZM155.97 17.362V12.874C156.072 12.84 156.225 12.806 156.429 12.772C156.633 12.738 156.854 12.721 157.092 12.721C157.58 12.721 157.931 12.806 158.146 12.976C158.362 13.1347 158.469 13.4463 158.469 13.911V17.362H155.97ZM150.683 17.362V12.874C150.785 12.84 150.938 12.806 151.142 12.772C151.346 12.738 151.567 12.721 151.805 12.721C152.293 12.721 152.644 12.806 152.859 12.976C153.075 13.1347 153.182 13.4463 153.182 13.911V17.362H150.683ZM167.296 6.023C167.817 6.023 168.254 6.159 168.605 6.431C168.968 6.69167 169.149 7.077 169.149 7.587C169.149 7.98367 169.019 8.28967 168.758 8.505C168.497 8.709 168.214 8.82233 167.908 8.845V9.355C167.829 9.389 167.738 9.41733 167.636 9.44C167.545 9.45133 167.426 9.457 167.279 9.457C167.052 9.457 166.877 9.42867 166.752 9.372C166.639 9.31533 166.582 9.21333 166.582 9.066V8.437C166.582 8.27833 166.616 8.165 166.684 8.097C166.752 8.01767 166.86 7.978 167.007 7.978H167.109C167.494 7.978 167.687 7.842 167.687 7.57C167.687 7.44533 167.636 7.349 167.534 7.281C167.432 7.20167 167.285 7.162 167.092 7.162C166.922 7.162 166.758 7.19033 166.599 7.247C166.44 7.30367 166.304 7.36033 166.191 7.417C165.976 7.26967 165.868 7.07133 165.868 6.822C165.868 6.57267 165.998 6.38 166.259 6.244C166.531 6.09667 166.877 6.023 167.296 6.023ZM168.673 16.92C168.673 17.804 168.497 18.5747 168.146 19.232C167.795 19.878 167.296 20.3767 166.65 20.728C166.004 21.0793 165.245 21.255 164.372 21.255C163.511 21.255 162.751 21.085 162.094 20.745C161.448 20.3937 160.949 19.895 160.598 19.249C160.247 18.5917 160.071 17.8153 160.071 16.92C160.071 16.036 160.247 15.271 160.598 14.625C160.961 13.979 161.465 13.4803 162.111 13.129C162.768 12.7663 163.522 12.585 164.372 12.585C165.233 12.585 165.987 12.7663 166.633 13.129C167.279 13.4803 167.778 13.9847 168.129 14.642C168.492 15.288 168.673 16.0473 168.673 16.92ZM164.372 14.574C163.839 14.574 163.414 14.778 163.097 15.186C162.791 15.594 162.638 16.172 162.638 16.92C162.638 17.6793 162.785 18.263 163.08 18.671C163.386 19.079 163.817 19.283 164.372 19.283C164.927 19.283 165.352 19.079 165.647 18.671C165.953 18.2517 166.106 17.668 166.106 16.92C166.106 16.1833 165.953 15.611 165.647 15.203C165.341 14.7837 164.916 14.574 164.372 14.574ZM164.372 10.392C164.077 10.7207 163.828 10.9983 163.624 11.225C163.42 11.4403 163.199 11.6897 162.961 11.973C162.576 11.973 162.27 11.8823 162.043 11.701C161.816 11.5197 161.703 11.293 161.703 11.021C161.703 10.817 161.754 10.6413 161.856 10.494C161.969 10.3467 162.134 10.1653 162.349 9.95L163.046 9.236C163.239 9.04333 163.443 8.89033 163.658 8.777C163.873 8.66367 164.123 8.607 164.406 8.607C164.667 8.607 164.905 8.658 165.12 8.76C165.347 8.862 165.596 9.07733 165.868 9.406L167.126 10.953C167.126 11.225 167.047 11.4573 166.888 11.65C166.729 11.8427 166.48 11.939 166.14 11.939C165.947 11.939 165.772 11.888 165.613 11.786C165.466 11.6727 165.313 11.5253 165.154 11.344L164.372 10.392ZM170.188 10.494C170.188 10.1087 170.318 9.78567 170.579 9.525C170.851 9.26433 171.191 9.134 171.599 9.134C172.007 9.134 172.341 9.26433 172.602 9.525C172.863 9.78567 172.993 10.1087 172.993 10.494C172.993 10.868 172.863 11.191 172.602 11.463C172.341 11.7237 172.007 11.854 171.599 11.854C171.191 11.854 170.851 11.7237 170.579 11.463C170.318 11.191 170.188 10.868 170.188 10.494ZM172.857 16.512V20.983C172.744 21.0057 172.585 21.034 172.381 21.068C172.177 21.102 171.956 21.119 171.718 21.119C171.242 21.119 170.891 21.034 170.664 20.864C170.449 20.694 170.341 20.388 170.341 19.946V16.512H172.857ZM170.341 17.804V12.942C170.454 12.908 170.613 12.874 170.817 12.84C171.021 12.806 171.242 12.789 171.48 12.789C171.956 12.789 172.302 12.874 172.517 13.044C172.744 13.2027 172.857 13.5087 172.857 13.962V17.804H170.341ZM107.67 31.007C107.624 30.9163 107.579 30.8087 107.534 30.684C107.488 30.5593 107.466 30.429 107.466 30.293C107.466 29.8057 107.687 29.562 108.129 29.562H112.43C112.475 29.63 112.52 29.7263 112.566 29.851C112.611 29.9757 112.634 30.1117 112.634 30.259C112.634 30.7577 112.413 31.007 111.971 31.007H107.67ZM109.03 32.86H111.529V38.317C111.529 38.5777 111.472 38.8043 111.359 38.997C111.245 39.1783 111.064 39.3427 110.815 39.49C110.509 39.694 110.106 39.8697 109.608 40.017C109.12 40.1757 108.554 40.255 107.908 40.255C106.967 40.255 106.157 40.0963 105.477 39.779C104.797 39.4617 104.27 38.9857 103.896 38.351C103.533 37.705 103.352 36.906 103.352 35.954C103.352 34.9567 103.539 34.1407 103.913 33.506C104.287 32.86 104.797 32.3783 105.443 32.061C106.089 31.7437 106.803 31.585 107.585 31.585C107.993 31.585 108.355 31.6303 108.673 31.721C109.001 31.8117 109.262 31.9193 109.455 32.044V34.118C109.296 33.982 109.086 33.8573 108.826 33.744C108.565 33.6307 108.265 33.574 107.925 33.574C107.517 33.574 107.16 33.659 106.854 33.829C106.548 33.9877 106.31 34.2427 106.14 34.594C105.97 34.9453 105.885 35.3987 105.885 35.954C105.885 36.7473 106.06 37.331 106.412 37.705C106.774 38.079 107.267 38.266 107.891 38.266C108.151 38.266 108.372 38.2377 108.554 38.181C108.746 38.1243 108.905 38.062 109.03 37.994V32.86ZM109.013 33.353V28.542C109.126 28.508 109.285 28.4797 109.489 28.457C109.693 28.423 109.908 28.406 110.135 28.406C110.622 28.406 110.973 28.491 111.189 28.661C111.415 28.8197 111.529 29.1257 111.529 29.579V33.353H109.013ZM120.913 25.669C121.333 25.669 121.644 25.7597 121.848 25.941C122.052 26.1223 122.154 26.3263 122.154 26.553C122.154 26.7343 122.109 26.8987 122.018 27.046C121.928 27.182 121.792 27.3407 121.61 27.522L120.539 28.627C120.199 28.627 119.927 28.5477 119.723 28.389C119.531 28.2303 119.434 28.049 119.434 27.845C119.434 27.743 119.451 27.641 119.485 27.539C119.531 27.437 119.604 27.318 119.706 27.182L120.913 25.669ZM114.691 35.41L118.924 34.747C118.89 34.4183 118.749 34.1237 118.499 33.863C118.25 33.591 117.882 33.455 117.394 33.455C116.873 33.455 116.442 33.6307 116.102 33.982C115.762 34.322 115.587 34.815 115.575 35.461L115.643 36.617C115.757 37.2403 116.029 37.688 116.459 37.96C116.89 38.2207 117.4 38.351 117.989 38.351C118.465 38.351 118.913 38.2887 119.332 38.164C119.752 38.028 120.092 37.8807 120.352 37.722C120.511 37.824 120.647 37.9657 120.76 38.147C120.874 38.3283 120.93 38.521 120.93 38.725C120.93 39.065 120.794 39.3483 120.522 39.575C120.262 39.8017 119.893 39.9717 119.417 40.085C118.953 40.1983 118.42 40.255 117.819 40.255C116.947 40.255 116.165 40.0907 115.473 39.762C114.782 39.4333 114.238 38.9403 113.841 38.283C113.445 37.6257 113.246 36.804 113.246 35.818C113.246 35.0927 113.36 34.4637 113.586 33.931C113.813 33.3983 114.119 32.962 114.504 32.622C114.901 32.2707 115.343 32.01 115.83 31.84C116.329 31.67 116.845 31.585 117.377 31.585C118.159 31.585 118.839 31.7437 119.417 32.061C120.007 32.367 120.466 32.7863 120.794 33.319C121.123 33.8517 121.287 34.4693 121.287 35.172C121.287 35.5233 121.191 35.7897 120.998 35.971C120.806 36.141 120.539 36.2543 120.199 36.311L114.793 37.11L114.691 35.41ZM117.394 29.392C117.111 29.7207 116.867 29.9983 116.663 30.225C116.459 30.4403 116.238 30.6897 116 30.973C115.615 30.973 115.303 30.8823 115.065 30.701C114.839 30.5197 114.725 30.293 114.725 30.021C114.725 29.817 114.782 29.6413 114.895 29.494C115.009 29.3467 115.173 29.1653 115.388 28.95L116.085 28.236C116.278 28.0433 116.482 27.8903 116.697 27.777C116.913 27.6637 117.162 27.607 117.445 27.607C117.706 27.607 117.944 27.658 118.159 27.76C118.386 27.862 118.635 28.0773 118.907 28.406L120.165 29.953C120.165 30.225 120.08 30.4573 119.91 30.65C119.752 30.8427 119.508 30.939 119.179 30.939C118.987 30.939 118.811 30.888 118.652 30.786C118.505 30.6727 118.352 30.5253 118.193 30.344L117.394 29.392ZM130.653 36.311H128.154V34.798C128.154 34.3673 128.03 34.0557 127.78 33.863C127.531 33.6703 127.208 33.574 126.811 33.574C126.528 33.574 126.267 33.608 126.029 33.676C125.791 33.744 125.57 33.829 125.366 33.931V36.311H122.867V33.659C122.867 33.3757 122.924 33.1433 123.037 32.962C123.162 32.7693 123.343 32.5993 123.581 32.452C123.944 32.2027 124.403 31.9987 124.958 31.84C125.525 31.67 126.148 31.585 126.828 31.585C128.052 31.585 128.993 31.857 129.65 32.401C130.319 32.9337 130.653 33.7043 130.653 34.713V36.311ZM125.366 35.529V39.983C125.264 40.0057 125.111 40.034 124.907 40.068C124.703 40.102 124.482 40.119 124.244 40.119C123.768 40.119 123.417 40.034 123.19 39.864C122.975 39.694 122.867 39.388 122.867 38.946V35.529H125.366ZM130.653 35.529V39.983C130.551 40.0057 130.398 40.034 130.194 40.068C129.99 40.102 129.769 40.119 129.531 40.119C129.055 40.119 128.704 40.034 128.477 39.864C128.262 39.694 128.154 39.388 128.154 38.946V35.529H130.653ZM138.616 31.194L138.412 33.659C138.616 33.591 138.843 33.5287 139.092 33.472C139.353 33.4153 139.659 33.387 140.01 33.387C140.769 33.387 141.404 33.5343 141.914 33.829C142.435 34.1123 142.826 34.509 143.087 35.019C143.359 35.5177 143.495 36.09 143.495 36.736C143.495 37.3707 143.348 37.9543 143.053 38.487C142.758 39.0197 142.305 39.4503 141.693 39.779C141.081 40.0963 140.299 40.255 139.347 40.255C138.667 40.255 138.072 40.1813 137.562 40.034C137.052 39.898 136.65 39.6997 136.355 39.439C136.072 39.1783 135.93 38.8667 135.93 38.504C135.93 38.2207 136.015 37.9827 136.185 37.79C136.355 37.586 136.536 37.433 136.729 37.331C137.024 37.569 137.364 37.7843 137.749 37.977C138.134 38.1583 138.616 38.249 139.194 38.249C139.795 38.249 140.237 38.1073 140.52 37.824C140.815 37.5293 140.962 37.1723 140.962 36.753C140.962 36.3337 140.826 35.9993 140.554 35.75C140.282 35.4893 139.874 35.359 139.33 35.359C139.001 35.359 138.718 35.3987 138.48 35.478C138.242 35.5573 137.993 35.665 137.732 35.801C137.233 35.7783 136.837 35.6423 136.542 35.393C136.259 35.1323 136.117 34.7583 136.117 34.271C136.117 34.2257 136.117 34.1747 136.117 34.118C136.128 34.05 136.14 33.9423 136.151 33.795L136.372 31.041C136.406 30.6217 136.536 30.2873 136.763 30.038C137.001 29.7887 137.335 29.664 137.766 29.664H139.041L138.616 31.194ZM137.97 29.664H142.73C142.798 29.766 142.86 29.902 142.917 30.072C142.974 30.242 143.002 30.429 143.002 30.633C143.002 30.9957 142.923 31.2677 142.764 31.449C142.605 31.619 142.384 31.704 142.101 31.704H137.97V29.664ZM150.917 35.512V37.331C150.917 37.6597 151.019 37.8977 151.223 38.045C151.427 38.181 151.71 38.249 152.073 38.249C152.254 38.249 152.441 38.232 152.634 38.198C152.826 38.164 152.996 38.1187 153.144 38.062C153.234 38.164 153.314 38.2887 153.382 38.436C153.45 38.572 153.484 38.7363 153.484 38.929C153.484 39.3143 153.325 39.6317 153.008 39.881C152.702 40.119 152.175 40.238 151.427 40.238C150.486 40.238 149.749 40.0283 149.217 39.609C148.695 39.1783 148.435 38.4757 148.435 37.501V35.512H150.917ZM149.999 32.027H153.28C153.336 32.1177 153.393 32.248 153.45 32.418C153.506 32.588 153.535 32.775 153.535 32.979C153.535 33.319 153.455 33.5683 153.297 33.727C153.149 33.8857 152.945 33.965 152.685 33.965H149.999V32.027ZM148.435 35.937V29.834C148.537 29.8 148.69 29.766 148.894 29.732C149.098 29.6867 149.313 29.664 149.54 29.664C150.016 29.664 150.361 29.749 150.577 29.919C150.803 30.089 150.917 30.395 150.917 30.837V35.937H148.435ZM155.025 35.597H157.524V36.804C157.524 37.3253 157.66 37.705 157.932 37.943C158.204 38.1697 158.583 38.283 159.071 38.283C159.377 38.283 159.632 38.2547 159.836 38.198C160.051 38.1413 160.21 38.079 160.312 38.011V35.597H162.811V38.317C162.811 38.589 162.76 38.8213 162.658 39.014C162.556 39.2067 162.386 39.3767 162.148 39.524C161.785 39.7507 161.337 39.9263 160.805 40.051C160.283 40.187 159.7 40.255 159.054 40.255C158.249 40.255 157.541 40.136 156.929 39.898C156.328 39.66 155.858 39.2917 155.518 38.793C155.189 38.283 155.025 37.6257 155.025 36.821V35.597ZM160.312 36.362V31.874C160.414 31.84 160.567 31.806 160.771 31.772C160.975 31.738 161.196 31.721 161.434 31.721C161.921 31.721 162.272 31.806 162.488 31.976C162.703 32.1347 162.811 32.4463 162.811 32.911V36.362H160.312ZM155.025 36.362V31.874C155.127 31.84 155.28 31.806 155.484 31.772C155.688 31.738 155.909 31.721 156.147 31.721C156.634 31.721 156.985 31.806 157.201 31.976C157.416 32.1347 157.524 32.4463 157.524 32.911V36.362H155.025ZM171.637 25.023C172.159 25.023 172.595 25.159 172.946 25.431C173.309 25.6917 173.49 26.077 173.49 26.587C173.49 26.9837 173.36 27.2897 173.099 27.505C172.839 27.709 172.555 27.8223 172.249 27.845V28.355C172.17 28.389 172.079 28.4173 171.977 28.44C171.887 28.4513 171.768 28.457 171.62 28.457C171.394 28.457 171.218 28.4287 171.093 28.372C170.98 28.3153 170.923 28.2133 170.923 28.066V27.437C170.923 27.2783 170.957 27.165 171.025 27.097C171.093 27.0177 171.201 26.978 171.348 26.978H171.45C171.836 26.978 172.028 26.842 172.028 26.57C172.028 26.4453 171.977 26.349 171.875 26.281C171.773 26.2017 171.626 26.162 171.433 26.162C171.263 26.162 171.099 26.1903 170.94 26.247C170.782 26.3037 170.646 26.3603 170.532 26.417C170.317 26.2697 170.209 26.0713 170.209 25.822C170.209 25.5727 170.34 25.38 170.6 25.244C170.872 25.0967 171.218 25.023 171.637 25.023ZM173.014 35.92C173.014 36.804 172.839 37.5747 172.487 38.232C172.136 38.878 171.637 39.3767 170.991 39.728C170.345 40.0793 169.586 40.255 168.713 40.255C167.852 40.255 167.093 40.085 166.435 39.745C165.789 39.3937 165.291 38.895 164.939 38.249C164.588 37.5917 164.412 36.8153 164.412 35.92C164.412 35.036 164.588 34.271 164.939 33.625C165.302 32.979 165.806 32.4803 166.452 32.129C167.11 31.7663 167.863 31.585 168.713 31.585C169.575 31.585 170.328 31.7663 170.974 32.129C171.62 32.4803 172.119 32.9847 172.47 33.642C172.833 34.288 173.014 35.0473 173.014 35.92ZM168.713 33.574C168.181 33.574 167.756 33.778 167.438 34.186C167.132 34.594 166.979 35.172 166.979 35.92C166.979 36.6793 167.127 37.263 167.421 37.671C167.727 38.079 168.158 38.283 168.713 38.283C169.269 38.283 169.694 38.079 169.988 37.671C170.294 37.2517 170.447 36.668 170.447 35.92C170.447 35.1833 170.294 34.611 169.988 34.203C169.682 33.7837 169.257 33.574 168.713 33.574ZM168.713 29.392C168.419 29.7207 168.169 29.9983 167.965 30.225C167.761 30.4403 167.54 30.6897 167.302 30.973C166.917 30.973 166.611 30.8823 166.384 30.701C166.158 30.5197 166.044 30.293 166.044 30.021C166.044 29.817 166.095 29.6413 166.197 29.494C166.311 29.3467 166.475 29.1653 166.69 28.95L167.387 28.236C167.58 28.0433 167.784 27.8903 167.999 27.777C168.215 27.6637 168.464 27.607 168.747 27.607C169.008 27.607 169.246 27.658 169.461 27.76C169.688 27.862 169.937 28.0773 170.209 28.406L171.467 29.953C171.467 30.225 171.388 30.4573 171.229 30.65C171.071 30.8427 170.821 30.939 170.481 30.939C170.289 30.939 170.113 30.888 169.954 30.786C169.807 30.6727 169.654 30.5253 169.495 30.344L168.713 29.392ZM174.529 29.494C174.529 29.1087 174.66 28.7857 174.92 28.525C175.192 28.2643 175.532 28.134 175.94 28.134C176.348 28.134 176.683 28.2643 176.943 28.525C177.204 28.7857 177.334 29.1087 177.334 29.494C177.334 29.868 177.204 30.191 176.943 30.463C176.683 30.7237 176.348 30.854 175.94 30.854C175.532 30.854 175.192 30.7237 174.92 30.463C174.66 30.191 174.529 29.868 174.529 29.494ZM177.198 35.512V39.983C177.085 40.0057 176.926 40.034 176.722 40.068C176.518 40.102 176.297 40.119 176.059 40.119C175.583 40.119 175.232 40.034 175.005 39.864C174.79 39.694 174.682 39.388 174.682 38.946V35.512H177.198ZM174.682 36.804V31.942C174.796 31.908 174.954 31.874 175.158 31.84C175.362 31.806 175.583 31.789 175.821 31.789C176.297 31.789 176.643 31.874 176.858 32.044C177.085 32.2027 177.198 32.5087 177.198 32.962V36.804H174.682Z" fill="#1B449C"/>
</svg>
