<svg width="282" height="377" viewBox="0 0 282 377" fill="none" xmlns="http://www.w3.org/2000/svg">
<path d="M255.17 0.0302734H26.8201C12.2011 0.0302734 0.350098 11.8813 0.350098 26.5003V349.81C0.350098 364.429 12.2011 376.28 26.8201 376.28H255.17C269.789 376.28 281.64 364.429 281.64 349.81V26.5003C281.64 11.8813 269.789 0.0302734 255.17 0.0302734Z" fill="#D4DF5B"/>
<mask id="mask0_1231_276" style="mask-type:luminance" maskUnits="userSpaceOnUse" x="0" y="0" width="282" height="377">
<path d="M255.17 0.0302734H26.8201C12.2011 0.0302734 0.350098 11.8813 0.350098 26.5003V349.81C0.350098 364.429 12.2011 376.28 26.8201 376.28H255.17C269.789 376.28 281.64 364.429 281.64 349.81V26.5003C281.64 11.8813 269.789 0.0302734 255.17 0.0302734Z" fill="white"/>
</mask>
<g mask="url(#mask0_1231_276)">
<mask id="mask1_1231_276" style="mask-type:luminance" maskUnits="userSpaceOnUse" x="0" y="0" width="282" height="377">
<path d="M255.17 0.0302734H26.8201C12.2011 0.0302734 0.350098 11.8813 0.350098 26.5003V349.81C0.350098 364.429 12.2011 376.28 26.8201 376.28H255.17C269.789 376.28 281.64 364.429 281.64 349.81V26.5003C281.64 11.8813 269.789 0.0302734 255.17 0.0302734Z" fill="white"/>
</mask>
<g mask="url(#mask1_1231_276)">
<path d="M321.43 343.43C318.85 343.43 316.36 343.83 314.04 344.58C314.45 342.37 314.66 340.11 314.66 337.79C314.66 316.53 297.42 299.31 276.16 299.31C264.13 299.31 253.37 304.84 246.32 313.48C240.79 286.05 216.57 265.4 187.51 265.4C175.31 265.4 163.93 269.04 154.46 275.32C154.59 274.28 154.65 273.23 154.65 272.15C154.65 257.15 142.5 244.99 127.51 244.99C123.76 244.99 120.17 245.74 116.91 247.14C115.7 226.54 98.6102 210.21 77.7102 210.21C63.7302 210.21 51.4502 217.53 44.4902 228.56C37.1902 225.16 29.0402 223.28 20.4602 223.28C-11.1698 223.28 -36.8098 248.91 -36.8098 280.55C-36.8098 288.21 -35.2998 295.51 -32.5698 302.17C-53.7498 305.87 -69.8198 324.35 -69.8198 346.59C-69.8198 371.53 -49.6198 391.73 -24.6798 391.73H321.43C334.77 391.73 345.57 380.92 345.57 367.59C345.57 354.26 334.76 343.45 321.43 343.45V343.43Z" fill="#C0D73E"/>
</g>
<path fill-rule="evenodd" clip-rule="evenodd" d="M245.16 328.78C245.11 327.72 245.06 326.67 245.03 325.61C244.99 324.51 244.94 323.41 244.97 322.31C245 321.14 245.05 319.97 245.12 318.79C245.15 318.24 245.19 317.68 245.24 317.13C245.28 316.59 245.31 316.04 245.42 315.5C245.57 314.77 246.3 314.25 247.02 314.24C247.85 314.24 248.57 314.85 248.69 315.67C248.76 316.17 248.72 316.7 248.7 317.21C248.68 317.79 248.66 318.38 248.65 318.96C248.62 320.05 248.59 321.13 248.56 322.21C248.5 324.38 248.49 326.56 248.57 328.73C248.61 329.66 247.8 330.44 246.89 330.45C246.89 330.45 246.88 330.45 246.87 330.45C245.93 330.45 245.21 329.69 245.17 328.77L245.16 328.78Z" fill="#758D3D"/>
<path fill-rule="evenodd" clip-rule="evenodd" d="M247.16 316.991C246.7 316.631 246.31 316.181 245.92 315.751C245.6 315.401 245.31 315.031 245.02 314.651C244.96 314.571 244.89 314.481 244.83 314.401C244.55 314.561 244.27 314.711 243.99 314.861C242.18 315.811 239.89 316.841 237.96 315.601C237.23 315.131 236.73 314.421 236.51 313.601C236.35 313.031 236.34 312.391 236.48 311.791C236.05 311.761 235.62 311.721 235.19 311.671C234.46 311.591 233.75 311.441 233.05 311.231C232.16 310.961 231.25 310.461 230.7 309.711C230.39 309.281 230.12 308.741 230.1 308.201C230.08 307.691 230.1 307.141 230.36 306.681C230.59 306.261 230.83 305.911 231.18 305.591C231.53 305.271 231.97 305.021 232.42 304.851C233.2 304.551 234.03 304.421 234.85 304.311C234.79 303.791 234.8 303.261 234.88 302.761C235.04 301.841 235.43 301.021 236 300.281C236.56 299.561 237.42 299.031 238.28 298.771C239.28 298.461 240.33 298.471 241.35 298.631C242.17 298.761 242.97 298.951 243.75 299.201C244.24 298.381 245.15 297.841 246.17 297.901C246.44 297.911 246.71 297.951 246.97 298.031C247.35 298.151 247.65 298.361 247.96 298.601C248.3 298.861 248.56 299.231 248.78 299.601C249.03 299.021 249.36 298.441 249.76 297.951C249.94 297.731 250.14 297.521 250.34 297.321C250.6 297.071 250.91 296.891 251.21 296.711C251.73 296.391 252.47 296.271 253.07 296.341C253.81 296.431 254.49 296.721 255.01 297.271C255.51 297.791 255.8 298.461 255.89 299.181C255.96 299.721 255.89 300.241 255.78 300.761C255.7 301.121 255.59 301.471 255.48 301.831C255.61 301.791 255.74 301.751 255.87 301.701C256.43 301.521 257.03 301.341 257.63 301.371C258.4 301.411 259.13 301.791 259.57 302.421C260.03 303.071 260.14 303.891 259.89 304.641C259.85 304.761 259.81 304.871 259.75 304.981C260.4 304.911 261.06 304.861 261.71 304.981C262.23 305.081 262.72 305.351 263.08 305.741C263.55 306.251 263.74 306.881 263.73 307.561C263.73 308.671 262.99 309.501 262.08 310.021C262.21 310.321 262.31 310.641 262.38 310.971C262.48 311.511 262.47 312.031 262.38 312.571C262.27 313.211 261.93 313.791 261.53 314.291C260.87 315.121 259.77 315.571 258.75 315.701C257.96 315.801 257.18 315.691 256.41 315.521C255.8 315.391 255.19 315.241 254.59 315.101C254.28 315.691 253.87 316.211 253.38 316.701C252.56 317.531 251.43 318.071 250.27 318.141C250.2 318.141 250.12 318.141 250.05 318.141C248.96 318.141 247.97 317.641 247.13 316.971L247.16 316.991Z" fill="#FCFAE1"/>
<path fill-rule="evenodd" clip-rule="evenodd" d="M246.17 310.811C245.79 310.771 245.39 310.681 245.04 310.541C244.58 310.361 244.21 310.101 243.83 309.781C243.38 309.401 243.09 308.741 243.01 308.171C242.93 307.591 243.04 306.961 243.33 306.441C243.81 305.581 244.68 305.081 245.61 304.911C245.66 304.861 245.71 304.821 245.77 304.781C246.25 304.441 246.74 304.171 247.33 304.081C247.62 304.041 247.92 304.021 248.22 304.031C249.19 304.071 250.07 304.371 250.93 304.801C251.85 305.261 252.53 306.171 252.68 307.191C252.86 308.421 252.16 309.591 251.07 310.131C250.34 310.491 249.48 310.631 248.69 310.751C248.21 310.821 247.72 310.861 247.23 310.861C246.88 310.861 246.53 310.841 246.18 310.811H246.17Z" fill="#F7E780"/>
<path d="M86.61 416.699H86.6C85.97 416.939 85.33 417.179 84.69 417.409C70.91 422.349 54.74 423.879 36.51 420.619C17.19 417.169 0.380007 407.029 -11.52 392.899C-25.72 376.059 -32.95 353.559 -29.1 329.969C-27.95 322.939 -25.94 316.089 -23.12 309.609C-22.64 308.459 -22.14 307.339 -21.59 306.219C-21.59 306.229 -21.57 306.209 -21.57 306.209C-15.8 294.339 -7.33996 283.909 3.26004 276.179C22.64 262.029 50.86 254.469 74.78 262.279C82.05 264.649 88.63 267.549 94.56 270.879C95.61 271.469 96.64 272.069 97.64 272.689C99.07 273.559 100.47 274.469 101.8 275.389C157.66 313.679 143.5 394.689 86.62 416.719L86.61 416.699Z" fill="#A9C338"/>
<path d="M1.19995 277.7C1.85995 277.18 2.52996 276.67 3.20996 276.18C18.9 264.73 40.37 257.59 60.68 259.42C53.17 269.73 48.0099 281.87 45.7299 294.64C37.82 289.02 28.45 284.28 17.54 280.72C12.26 279 6.76996 278.02 1.20996 277.7H1.19995Z" fill="#BBD531"/>
<path d="M128.52 305.37C144.66 336.84 137.4 375.81 112.76 399.88C123.39 361.75 106.8 316.03 53.39 298.6C50.63 297.7 47.82 297 44.96 296.5C62.24 288.69 82.68 285.85 100.7 291.73C111.43 295.23 120.68 299.88 128.52 305.37Z" fill="#BBD531"/>
<path d="M44.98 297.6C31.82 310.02 23.0001 327.04 20.0301 345.25C14.9601 376.28 29.0701 405.45 53.0301 422.29C47.7301 422.18 42.2201 421.63 36.4901 420.61C6.70005 415.29 -17.16 394.03 -26.2 366.8C-22.59 345.64 -11.0499 326.13 6.02005 313.67C16.9701 305.68 30.7401 299.79 44.9701 297.6H44.98Z" fill="#BBD531"/>
<path d="M33.1399 291.56C37.9999 284.94 49.5699 282.15 56.2899 287.5C60.3699 290.74 61.4999 296.43 59.3999 301.13C55.1599 310.61 40.5499 314.38 33.3599 306.04C30.4099 302.62 29.9999 297.83 31.8399 293.77C32.1999 292.99 32.6299 292.25 33.1399 291.55V291.56Z" fill="#94B23C"/>
<path d="M50.0598 303.08C46.5098 305.21 41.1098 305.54 38.0798 301.95C36.7598 300.39 36.4799 298.14 37.3499 296.07C37.5099 295.68 37.7198 295.3 37.9798 294.93C38.6298 294 39.5899 293.13 40.7599 292.43C44.6299 290.1 49.6198 290.07 52.3598 292.34C54.1598 293.84 54.7899 296.58 53.8499 298.86C53.1599 300.55 51.8498 302 50.0598 303.08Z" fill="#BBD531"/>
<g style="mix-blend-mode:soft-light">
<path d="M75.7199 274.25C75.6199 274.25 75.5199 274.27 75.4199 274.27C75.5499 274.32 75.7799 274.35 76.0399 274.3C76.0099 274.3 76.0099 274.3 75.9899 274.29C75.8999 274.27 75.8099 274.26 75.7199 274.25Z" fill="white"/>
</g>
<path d="M170.9 94.5906C174.65 94.5906 178.22 93.8206 181.46 92.4306C183.94 107.721 197.2 119.391 213.19 119.391C220.01 119.391 226.33 117.261 231.54 113.641C239.36 127.801 254.43 137.401 271.75 137.401C296.51 137.401 316.69 117.791 317.61 93.2506C322.05 95.6806 327.15 97.0706 332.58 97.0706C349.82 97.0706 363.79 83.1006 363.79 65.8606C363.79 48.6206 349.82 34.6506 332.58 34.6506C332.52 34.6506 332.46 34.6506 332.4 34.6506C330.57 15.4306 314.38 0.390625 294.68 0.390625C280.37 0.390625 267.91 8.33063 261.46 20.0406C258.24 18.5306 254.66 17.6606 250.86 17.6606C244.52 17.6606 238.75 20.0406 234.34 23.9206C228.85 17.0906 220.44 12.7206 210.99 12.7206C194.44 12.7206 181.02 26.1406 181.02 42.6906C181.02 42.7406 181.02 42.7806 181.02 42.8306C177.89 41.5506 174.47 40.8306 170.88 40.8306C156.04 40.8306 144 52.8606 144 67.7106C144 82.5606 156.03 94.5906 170.88 94.5906H170.9Z" fill="#C0D73E"/>
</g>
<path d="M162.99 238.87C165.85 238.87 168.76 238.94 171.71 239.07C174.66 239.2 177.44 239.4 180.04 239.66C182.64 239.92 184.73 240.18 186.29 240.44C186.29 241.66 186.23 243.68 186.09 246.49C185.96 249.31 185.81 252.37 185.63 255.67C185.45 258.97 185.24 262.09 184.98 265.05C184.72 268 184.46 270.22 184.2 271.69C181.94 271.69 178.1 271.76 172.68 271.89C167.25 272.02 161.09 272.17 154.19 272.35C147.29 272.52 140.43 272.72 133.62 272.94C126.8 273.15 120.77 273.4 115.52 273.66C110.27 273.92 106.69 274.18 104.78 274.44V264.94C104.78 260.95 104.8 256.95 104.84 252.96C104.88 248.97 104.95 245.84 105.04 243.58C106.43 243.23 108.23 242.89 110.44 242.54C112.65 242.19 114.95 241.87 117.34 241.56C119.73 241.26 121.96 241 124.05 240.78C126.13 240.56 127.74 240.41 128.87 240.32C128.87 238.24 128.89 234.87 128.94 230.23C128.98 225.59 129.07 220.16 129.2 213.95C129.33 207.74 129.46 201.28 129.59 194.55C129.72 187.82 129.87 181.31 130.05 175.02C130.22 168.73 130.4 163.13 130.57 158.22C130.74 153.32 130.87 149.65 130.96 147.22C130 148 128.68 149.28 126.99 151.06C125.3 152.84 123.52 154.79 121.65 156.92C119.78 159.05 118.07 160.98 116.51 162.71C114.95 164.45 113.91 165.66 113.39 166.36C110.87 163.5 107.88 159.29 104.41 153.73C100.94 148.18 98.0302 143.1 95.6902 138.5C96.9902 137.11 99.1402 134.92 102.14 131.92C105.13 128.93 108.54 125.56 112.36 121.83C116.18 118.1 120 114.45 123.82 110.89C127.64 107.33 130.94 104.34 133.72 101.91C136.15 101.91 139.17 101.98 142.77 102.11C146.37 102.24 149.98 102.44 153.58 102.7C157.18 102.96 160.07 103.31 162.24 103.74C162.41 105.22 162.63 108.32 162.89 113.05C163.15 117.78 163.41 123.81 163.67 131.15C163.93 138.49 164.13 146.84 164.26 156.21C164.39 165.58 164.46 175.74 164.46 186.68C164.46 194.84 164.37 203.33 164.2 212.14C164.02 220.95 163.63 229.87 163.03 238.9L162.99 238.87Z" fill="white"/>
<path d="M117.15 300.17C117.11 299.99 117.07 299.73 117.04 299.39C117.01 299.05 116.99 298.7 116.96 298.33C116.94 297.96 116.92 297.63 116.91 297.33C116.9 297.04 116.89 296.83 116.89 296.72C117.82 296.65 118.89 296.59 120.08 296.54C121.28 296.49 122.49 296.46 123.71 296.46C124.63 296.46 125.54 296.48 126.42 296.52C127.3 296.56 128.1 296.63 128.83 296.74C128.83 297.43 128.82 298.08 128.77 298.67C128.72 299.27 128.66 299.71 128.6 300.01C128.44 300.01 128.21 300.01 127.91 300.01C127.61 300.01 127.28 300.01 126.92 300C126.56 300 126.2 300 125.85 299.99C125.5 299.99 125.2 299.98 124.94 299.97C124.94 300.28 124.96 300.73 124.99 301.34C125.02 301.94 125.04 302.63 125.08 303.41C125.11 304.18 125.15 305 125.19 305.85C125.23 306.7 125.27 307.53 125.31 308.35C125.35 309.17 125.38 309.91 125.41 310.59C125.44 311.27 125.46 311.83 125.49 312.27C125.51 312.71 125.52 312.97 125.52 313.05C125.19 313.1 124.75 313.15 124.22 313.19C123.69 313.23 123.16 313.27 122.63 313.29C122.1 313.31 121.67 313.33 121.34 313.33C121.31 312.84 121.29 312.25 121.26 311.55C121.23 310.85 121.21 310.1 121.2 309.29C121.19 308.48 121.17 307.64 121.15 306.79C121.13 305.94 121.12 305.1 121.11 304.28C121.11 303.46 121.1 302.71 121.1 302.03V300.95C121.1 300.62 121.1 300.32 121.11 300.05C120.83 300.07 120.52 300.08 120.19 300.09C119.86 300.1 119.52 300.12 119.16 300.13C118.81 300.15 118.46 300.16 118.12 300.17C117.78 300.17 117.46 300.18 117.16 300.18L117.15 300.17Z" fill="white"/>
<path d="M138.64 300.901C138.85 300.821 139.15 300.771 139.53 300.731C139.92 300.691 140.29 300.671 140.66 300.671C140.97 300.671 141.31 300.681 141.69 300.711C142.07 300.731 142.37 300.761 142.6 300.801C142.71 301.471 142.79 302.161 142.85 302.841C142.91 303.521 142.94 304.201 142.94 304.871C142.94 306.091 142.83 307.251 142.62 308.331C142.41 309.411 142.06 310.371 141.58 311.191C141.1 312.011 140.45 312.661 139.64 313.131C138.83 313.601 137.84 313.841 136.65 313.841C135.39 313.841 134.35 313.591 133.54 313.101C132.72 312.601 132.09 311.911 131.63 311.021C131.17 310.131 130.85 309.101 130.67 307.911C130.49 306.721 130.4 305.441 130.4 304.071C130.4 303.461 130.41 302.841 130.44 302.211C130.47 301.581 130.51 300.951 130.56 300.331C130.78 300.311 131.06 300.301 131.42 300.291C131.77 300.281 132.1 300.281 132.39 300.291C132.81 300.291 133.23 300.311 133.65 300.361C134.07 300.411 134.4 300.471 134.64 300.541C134.58 301.111 134.53 301.721 134.49 302.371C134.45 303.021 134.43 303.681 134.43 304.341C134.43 305.441 134.5 306.431 134.65 307.311C134.8 308.191 135.04 308.891 135.38 309.411C135.72 309.931 136.18 310.191 136.77 310.191C137.32 310.191 137.76 309.961 138.09 309.491C138.42 309.021 138.66 308.401 138.8 307.611C138.95 306.821 139.02 305.941 139.02 304.971C139.02 304.241 138.98 303.511 138.91 302.801C138.84 302.091 138.75 301.461 138.64 300.911V300.901Z" fill="white"/>
<path d="M151.69 313.4C149.48 313.4 147.82 312.81 146.7 311.64C145.58 310.47 145.03 308.77 145.03 306.53C145.03 305.04 145.32 303.8 145.89 302.81C146.47 301.82 147.26 301.08 148.28 300.58C149.3 300.08 150.48 299.83 151.82 299.83C153.16 299.83 154.32 300.14 155.23 300.77C156.14 301.4 156.81 302.26 157.26 303.36C157.71 304.46 157.93 305.73 157.93 307.17C157.93 308.43 157.69 309.52 157.21 310.46C156.73 311.39 156.02 312.12 155.09 312.63C154.16 313.14 153.03 313.4 151.68 313.4H151.69ZM154.11 299.32C153.89 299.05 153.66 298.78 153.4 298.49C153.14 298.21 152.89 297.93 152.64 297.66C152.39 297.39 152.18 297.16 152 296.97C151.82 296.78 151.71 296.66 151.66 296.61H152.01C151.93 296.68 151.77 296.8 151.55 296.99C151.33 297.17 151.07 297.39 150.78 297.64C150.49 297.89 150.19 298.15 149.89 298.41C149.59 298.68 149.31 298.93 149.07 299.16C148.85 299.08 148.57 298.96 148.24 298.78C147.92 298.6 147.59 298.4 147.28 298.19C146.96 297.97 146.7 297.77 146.48 297.58C146.86 297.28 147.25 296.97 147.65 296.66C148.05 296.35 148.46 296.05 148.85 295.77C149.24 295.49 149.59 295.24 149.91 295.02C150.23 294.8 150.47 294.64 150.64 294.54C150.78 294.54 151.02 294.52 151.35 294.52C151.68 294.52 152.02 294.51 152.36 294.51H153.14C153.47 294.81 153.84 295.17 154.27 295.59C154.7 296.01 155.13 296.42 155.56 296.85C155.99 297.27 156.36 297.65 156.67 297.99C156.24 298.29 155.8 298.56 155.34 298.79C154.88 299.02 154.47 299.2 154.11 299.33V299.32ZM151.55 309.81C152.01 309.81 152.42 309.73 152.77 309.57C153.12 309.41 153.42 309.18 153.67 308.89C153.92 308.6 154.1 308.25 154.23 307.85C154.35 307.45 154.42 307.01 154.42 306.54C154.42 305.8 154.31 305.14 154.1 304.57C153.89 304 153.58 303.55 153.16 303.23C152.75 302.91 152.24 302.75 151.63 302.75C150.97 302.75 150.43 302.92 150.02 303.25C149.61 303.58 149.3 304.02 149.1 304.56C148.9 305.1 148.81 305.67 148.81 306.28C148.81 307.3 149.05 308.15 149.52 308.82C149.99 309.49 150.67 309.82 151.56 309.82L151.55 309.81ZM154.76 295.27C154.76 295.05 154.76 294.78 154.78 294.46C154.79 294.13 154.8 293.91 154.81 293.78C155.42 293.78 155.88 293.74 156.19 293.67C156.5 293.6 156.65 293.45 156.65 293.21C156.65 293 156.54 292.88 156.32 292.85C156.1 292.82 155.86 292.8 155.6 292.8C155.27 292.8 154.91 292.83 154.49 292.89C154.08 292.95 153.78 292.99 153.58 293.03L153.17 291.43C153.26 291.4 153.49 291.35 153.85 291.31C154.21 291.26 154.6 291.21 155.04 291.17C155.47 291.13 155.83 291.11 156.13 291.11C157.07 291.11 157.83 291.23 158.41 291.47C158.99 291.71 159.27 292.17 159.27 292.85C159.27 293.33 159.14 293.69 158.88 293.93C158.62 294.17 158.31 294.33 157.95 294.41C157.59 294.49 157.26 294.55 156.96 294.57C156.96 294.65 156.96 294.76 156.96 294.92C156.96 295.08 156.96 295.23 156.95 295.38C156.95 295.53 156.94 295.63 156.93 295.68L154.78 295.27H154.76Z" fill="white"/>
<path d="M162.79 300.041C162.04 300.041 161.41 299.821 160.9 299.381C160.39 298.941 160.14 298.371 160.14 297.651C160.14 297.161 160.26 296.741 160.5 296.391C160.74 296.041 161.06 295.771 161.44 295.581C161.83 295.391 162.24 295.301 162.67 295.301C163.36 295.301 163.93 295.531 164.39 295.971C164.84 296.421 165.07 297.001 165.07 297.711C165.07 298.371 164.85 298.921 164.42 299.371C163.99 299.821 163.44 300.041 162.78 300.041H162.79ZM164.19 313.101C164.05 313.101 163.78 313.131 163.38 313.161C162.98 313.191 162.57 313.201 162.12 313.201C161.79 313.201 161.47 313.191 161.14 313.171C160.81 313.151 160.49 313.121 160.17 313.091C160.21 312.871 160.26 312.431 160.31 311.761C160.36 311.091 160.42 310.301 160.47 309.391C160.52 308.481 160.58 307.541 160.63 306.571C160.68 305.601 160.73 304.691 160.75 303.841C160.78 302.991 160.79 302.311 160.79 301.791C160.96 301.791 161.2 301.771 161.53 301.751C161.86 301.731 162.2 301.721 162.58 301.711C162.96 301.701 163.31 301.691 163.66 301.671C164.01 301.651 164.27 301.651 164.47 301.651C164.51 301.911 164.55 302.321 164.57 302.901C164.59 303.471 164.61 304.121 164.61 304.821C164.61 305.581 164.6 306.381 164.58 307.231C164.56 308.081 164.53 308.901 164.49 309.701C164.45 310.501 164.41 311.201 164.35 311.801C164.29 312.401 164.23 312.841 164.18 313.091L164.19 313.101Z" fill="white"/>
<path d="M61.3101 0C67.7701 0 73.0101 5.24 73.0101 11.71V25.86C73.0101 37.44 82.4 46.83 93.98 46.83H188C199.58 46.83 208.97 37.44 208.97 25.86V11.71C208.96 5.24 214.2 0 220.67 0" fill="white"/>
<path d="M254.95 1.99977C268.77 1.99977 280.01 13.2398 280.01 27.0598V349.26C280.01 363.08 268.77 374.32 254.95 374.32H27.04C13.22 374.32 1.97998 363.08 1.97998 349.26V27.0598C1.97998 13.2398 13.22 1.99977 27.04 1.99977H254.95ZM254.95 0.0197656H27.04C12.1 0.0197656 0 12.1298 0 27.0598V349.26C0 364.2 12.11 376.3 27.04 376.3H254.95C269.89 376.3 281.99 364.19 281.99 349.26V27.0598C281.99 12.1198 269.88 0.00976562 254.95 0.00976562V0.0197656Z" fill="#1B4799"/>
<path d="M112.098 10.681H117.334C117.402 10.7943 117.464 10.9417 117.521 11.123C117.578 11.293 117.606 11.48 117.606 11.684C117.606 12.0467 117.521 12.3187 117.351 12.5C117.192 12.6813 116.971 12.772 116.688 12.772H112.115L112.098 10.681ZM114.495 12.772H109.259C109.191 12.6587 109.129 12.517 109.072 12.347C109.015 12.1657 108.987 11.9673 108.987 11.752C108.987 11.3893 109.066 11.123 109.225 10.953C109.395 10.7717 109.616 10.681 109.888 10.681H114.478L114.495 12.772ZM114.546 12.313V20.983C114.444 21.0057 114.28 21.034 114.053 21.068C113.826 21.102 113.594 21.119 113.356 21.119C112.857 21.119 112.5 21.0283 112.285 20.847C112.081 20.6657 111.979 20.354 111.979 19.912V12.313H114.546ZM118.482 16.597H120.981V17.804C120.981 18.3253 121.117 18.705 121.389 18.943C121.661 19.1697 122.04 19.283 122.528 19.283C122.834 19.283 123.089 19.2547 123.293 19.198C123.508 19.1413 123.667 19.079 123.769 19.011V16.597H126.268V19.317C126.268 19.589 126.217 19.8213 126.115 20.014C126.013 20.2067 125.843 20.3767 125.605 20.524C125.242 20.7507 124.794 20.9263 124.262 21.051C123.74 21.187 123.157 21.255 122.511 21.255C121.706 21.255 120.998 21.136 120.386 20.898C119.785 20.66 119.315 20.2917 118.975 19.793C118.646 19.283 118.482 18.6257 118.482 17.821V16.597ZM123.769 17.362V12.874C123.871 12.84 124.024 12.806 124.228 12.772C124.432 12.738 124.653 12.721 124.891 12.721C125.378 12.721 125.729 12.806 125.945 12.976C126.16 13.1347 126.268 13.4463 126.268 13.911V17.362H123.769ZM118.482 17.362V12.874C118.584 12.84 118.737 12.806 118.941 12.772C119.145 12.738 119.366 12.721 119.604 12.721C120.091 12.721 120.442 12.806 120.658 12.976C120.873 13.1347 120.981 13.4463 120.981 13.911V17.362H118.482ZM119.553 10.069C119.541 10.0237 119.53 9.967 119.519 9.899C119.519 9.81967 119.519 9.75733 119.519 9.712C119.519 9.36067 119.621 9.083 119.825 8.879C120.04 8.675 120.306 8.573 120.624 8.573C120.816 8.573 121.003 8.61267 121.185 8.692C121.366 8.77133 121.542 8.913 121.712 9.117L123.225 11.004C123.191 11.3553 123.066 11.616 122.851 11.786C122.647 11.956 122.426 12.041 122.188 12.041C121.972 12.041 121.791 12.007 121.644 11.939C121.508 11.871 121.36 11.769 121.202 11.633L119.553 10.069ZM125.894 15.781C125.814 15.6677 125.746 15.458 125.69 15.152C125.644 14.8347 125.622 14.5287 125.622 14.234C126.03 14.234 126.37 14.1093 126.642 13.86C126.914 13.5993 127.05 13.1687 127.05 12.568V11.99C127.197 11.9107 127.339 11.854 127.475 11.82C127.611 11.7747 127.781 11.752 127.985 11.752C128.302 11.752 128.568 11.8313 128.784 11.99C129.01 12.1373 129.124 12.3923 129.124 12.755V12.874C129.124 13.4973 128.988 14.03 128.716 14.472C128.455 14.9027 128.104 15.2313 127.662 15.458C127.231 15.6733 126.755 15.781 126.234 15.781H125.894ZM135.207 18.382V13.061L133.388 13.707C133.218 13.605 133.053 13.4633 132.895 13.282C132.747 13.1007 132.674 12.857 132.674 12.551C132.674 11.9503 133.036 11.531 133.762 11.293L135.785 10.545H136.346C136.765 10.545 137.094 10.6697 137.332 10.919C137.581 11.157 137.706 11.4913 137.706 11.922V18.382H135.207ZM137.706 16.512V20.983C137.604 21.017 137.451 21.051 137.247 21.085C137.043 21.119 136.822 21.136 136.584 21.136C136.108 21.136 135.756 21.051 135.53 20.881C135.314 20.711 135.207 20.405 135.207 19.963V16.512H137.706ZM145.917 16.512V18.331C145.917 18.6597 146.019 18.8977 146.223 19.045C146.427 19.181 146.71 19.249 147.073 19.249C147.254 19.249 147.441 19.232 147.634 19.198C147.826 19.164 147.996 19.1187 148.144 19.062C148.234 19.164 148.314 19.2887 148.382 19.436C148.45 19.572 148.484 19.7363 148.484 19.929C148.484 20.3143 148.325 20.6317 148.008 20.881C147.702 21.119 147.175 21.238 146.427 21.238C145.486 21.238 144.749 21.0283 144.217 20.609C143.695 20.1783 143.435 19.4757 143.435 18.501V16.512H145.917ZM144.999 13.027H148.28C148.336 13.1177 148.393 13.248 148.45 13.418C148.506 13.588 148.535 13.775 148.535 13.979C148.535 14.319 148.455 14.5683 148.297 14.727C148.149 14.8857 147.945 14.965 147.685 14.965H144.999V13.027ZM143.435 16.937V10.834C143.537 10.8 143.69 10.766 143.894 10.732C144.098 10.6867 144.313 10.664 144.54 10.664C145.016 10.664 145.361 10.749 145.577 10.919C145.803 11.089 145.917 11.395 145.917 11.837V16.937H143.435ZM150.025 16.597H152.524V17.804C152.524 18.3253 152.66 18.705 152.932 18.943C153.204 19.1697 153.583 19.283 154.071 19.283C154.377 19.283 154.632 19.2547 154.836 19.198C155.051 19.1413 155.21 19.079 155.312 19.011V16.597H157.811V19.317C157.811 19.589 157.76 19.8213 157.658 20.014C157.556 20.2067 157.386 20.3767 157.148 20.524C156.785 20.7507 156.337 20.9263 155.805 21.051C155.283 21.187 154.7 21.255 154.054 21.255C153.249 21.255 152.541 21.136 151.929 20.898C151.328 20.66 150.858 20.2917 150.518 19.793C150.189 19.283 150.025 18.6257 150.025 17.821V16.597ZM155.312 17.362V12.874C155.414 12.84 155.567 12.806 155.771 12.772C155.975 12.738 156.196 12.721 156.434 12.721C156.921 12.721 157.272 12.806 157.488 12.976C157.703 13.1347 157.811 13.4463 157.811 13.911V17.362H155.312ZM150.025 17.362V12.874C150.127 12.84 150.28 12.806 150.484 12.772C150.688 12.738 150.909 12.721 151.147 12.721C151.634 12.721 151.985 12.806 152.201 12.976C152.416 13.1347 152.524 13.4463 152.524 13.911V17.362H150.025ZM166.637 6.023C167.159 6.023 167.595 6.159 167.946 6.431C168.309 6.69167 168.49 7.077 168.49 7.587C168.49 7.98367 168.36 8.28967 168.099 8.505C167.839 8.709 167.555 8.82233 167.249 8.845V9.355C167.17 9.389 167.079 9.41733 166.977 9.44C166.887 9.45133 166.768 9.457 166.62 9.457C166.394 9.457 166.218 9.42867 166.093 9.372C165.98 9.31533 165.923 9.21333 165.923 9.066V8.437C165.923 8.27833 165.957 8.165 166.025 8.097C166.093 8.01767 166.201 7.978 166.348 7.978H166.45C166.836 7.978 167.028 7.842 167.028 7.57C167.028 7.44533 166.977 7.349 166.875 7.281C166.773 7.20167 166.626 7.162 166.433 7.162C166.263 7.162 166.099 7.19033 165.94 7.247C165.782 7.30367 165.646 7.36033 165.532 7.417C165.317 7.26967 165.209 7.07133 165.209 6.822C165.209 6.57267 165.34 6.38 165.6 6.244C165.872 6.09667 166.218 6.023 166.637 6.023ZM168.014 16.92C168.014 17.804 167.839 18.5747 167.487 19.232C167.136 19.878 166.637 20.3767 165.991 20.728C165.345 21.0793 164.586 21.255 163.713 21.255C162.852 21.255 162.093 21.085 161.435 20.745C160.789 20.3937 160.291 19.895 159.939 19.249C159.588 18.5917 159.412 17.8153 159.412 16.92C159.412 16.036 159.588 15.271 159.939 14.625C160.302 13.979 160.806 13.4803 161.452 13.129C162.11 12.7663 162.863 12.585 163.713 12.585C164.575 12.585 165.328 12.7663 165.974 13.129C166.62 13.4803 167.119 13.9847 167.47 14.642C167.833 15.288 168.014 16.0473 168.014 16.92ZM163.713 14.574C163.181 14.574 162.756 14.778 162.438 15.186C162.132 15.594 161.979 16.172 161.979 16.92C161.979 17.6793 162.127 18.263 162.421 18.671C162.727 19.079 163.158 19.283 163.713 19.283C164.269 19.283 164.694 19.079 164.988 18.671C165.294 18.2517 165.447 17.668 165.447 16.92C165.447 16.1833 165.294 15.611 164.988 15.203C164.682 14.7837 164.257 14.574 163.713 14.574ZM163.713 10.392C163.419 10.7207 163.169 10.9983 162.965 11.225C162.761 11.4403 162.54 11.6897 162.302 11.973C161.917 11.973 161.611 11.8823 161.384 11.701C161.158 11.5197 161.044 11.293 161.044 11.021C161.044 10.817 161.095 10.6413 161.197 10.494C161.311 10.3467 161.475 10.1653 161.69 9.95L162.387 9.236C162.58 9.04333 162.784 8.89033 162.999 8.777C163.215 8.66367 163.464 8.607 163.747 8.607C164.008 8.607 164.246 8.658 164.461 8.76C164.688 8.862 164.937 9.07733 165.209 9.406L166.467 10.953C166.467 11.225 166.388 11.4573 166.229 11.65C166.071 11.8427 165.821 11.939 165.481 11.939C165.289 11.939 165.113 11.888 164.954 11.786C164.807 11.6727 164.654 11.5253 164.495 11.344L163.713 10.392ZM169.529 10.494C169.529 10.1087 169.66 9.78567 169.92 9.525C170.192 9.26433 170.532 9.134 170.94 9.134C171.348 9.134 171.683 9.26433 171.943 9.525C172.204 9.78567 172.334 10.1087 172.334 10.494C172.334 10.868 172.204 11.191 171.943 11.463C171.683 11.7237 171.348 11.854 170.94 11.854C170.532 11.854 170.192 11.7237 169.92 11.463C169.66 11.191 169.529 10.868 169.529 10.494ZM172.198 16.512V20.983C172.085 21.0057 171.926 21.034 171.722 21.068C171.518 21.102 171.297 21.119 171.059 21.119C170.583 21.119 170.232 21.034 170.005 20.864C169.79 20.694 169.682 20.388 169.682 19.946V16.512H172.198ZM169.682 17.804V12.942C169.796 12.908 169.954 12.874 170.158 12.84C170.362 12.806 170.583 12.789 170.821 12.789C171.297 12.789 171.643 12.874 171.858 13.044C172.085 13.2027 172.198 13.5087 172.198 13.962V17.804H169.682ZM108.223 31.007C108.178 30.9163 108.132 30.8087 108.087 30.684C108.042 30.5593 108.019 30.429 108.019 30.293C108.019 29.8057 108.24 29.562 108.682 29.562H112.983C113.028 29.63 113.074 29.7263 113.119 29.851C113.164 29.9757 113.187 30.1117 113.187 30.259C113.187 30.7577 112.966 31.007 112.524 31.007H108.223ZM109.583 32.86H112.082V38.317C112.082 38.5777 112.025 38.8043 111.912 38.997C111.799 39.1783 111.617 39.3427 111.368 39.49C111.062 39.694 110.66 39.8697 110.161 40.017C109.674 40.1757 109.107 40.255 108.461 40.255C107.52 40.255 106.71 40.0963 106.03 39.779C105.35 39.4617 104.823 38.9857 104.449 38.351C104.086 37.705 103.905 36.906 103.905 35.954C103.905 34.9567 104.092 34.1407 104.466 33.506C104.84 32.86 105.35 32.3783 105.996 32.061C106.642 31.7437 107.356 31.585 108.138 31.585C108.546 31.585 108.909 31.6303 109.226 31.721C109.555 31.8117 109.815 31.9193 110.008 32.044V34.118C109.849 33.982 109.64 33.8573 109.379 33.744C109.118 33.6307 108.818 33.574 108.478 33.574C108.07 33.574 107.713 33.659 107.407 33.829C107.101 33.9877 106.863 34.2427 106.693 34.594C106.523 34.9453 106.438 35.3987 106.438 35.954C106.438 36.7473 106.614 37.331 106.965 37.705C107.328 38.079 107.821 38.266 108.444 38.266C108.705 38.266 108.926 38.2377 109.107 38.181C109.3 38.1243 109.458 38.062 109.583 37.994V32.86ZM109.566 33.353V28.542C109.679 28.508 109.838 28.4797 110.042 28.457C110.246 28.423 110.461 28.406 110.688 28.406C111.175 28.406 111.527 28.491 111.742 28.661C111.969 28.8197 112.082 29.1257 112.082 29.579V33.353H109.566ZM121.467 25.669C121.886 25.669 122.198 25.7597 122.402 25.941C122.606 26.1223 122.708 26.3263 122.708 26.553C122.708 26.7343 122.662 26.8987 122.572 27.046C122.481 27.182 122.345 27.3407 122.164 27.522L121.093 28.627C120.753 28.627 120.481 28.5477 120.277 28.389C120.084 28.2303 119.988 28.049 119.988 27.845C119.988 27.743 120.005 27.641 120.039 27.539C120.084 27.437 120.158 27.318 120.26 27.182L121.467 25.669ZM115.245 35.41L119.478 34.747C119.444 34.4183 119.302 34.1237 119.053 33.863C118.803 33.591 118.435 33.455 117.948 33.455C117.426 33.455 116.996 33.6307 116.656 33.982C116.316 34.322 116.14 34.815 116.129 35.461L116.197 36.617C116.31 37.2403 116.582 37.688 117.013 37.96C117.443 38.2207 117.953 38.351 118.543 38.351C119.019 38.351 119.466 38.2887 119.886 38.164C120.305 38.028 120.645 37.8807 120.906 37.722C121.064 37.824 121.2 37.9657 121.314 38.147C121.427 38.3283 121.484 38.521 121.484 38.725C121.484 39.065 121.348 39.3483 121.076 39.575C120.815 39.8017 120.447 39.9717 119.971 40.085C119.506 40.1983 118.973 40.255 118.373 40.255C117.5 40.255 116.718 40.0907 116.027 39.762C115.335 39.4333 114.791 38.9403 114.395 38.283C113.998 37.6257 113.8 36.804 113.8 35.818C113.8 35.0927 113.913 34.4637 114.14 33.931C114.366 33.3983 114.672 32.962 115.058 32.622C115.454 32.2707 115.896 32.01 116.384 31.84C116.882 31.67 117.398 31.585 117.931 31.585C118.713 31.585 119.393 31.7437 119.971 32.061C120.56 32.367 121.019 32.7863 121.348 33.319C121.676 33.8517 121.841 34.4693 121.841 35.172C121.841 35.5233 121.744 35.7897 121.552 35.971C121.359 36.141 121.093 36.2543 120.753 36.311L115.347 37.11L115.245 35.41ZM117.948 29.392C117.664 29.7207 117.421 29.9983 117.217 30.225C117.013 30.4403 116.792 30.6897 116.554 30.973C116.168 30.973 115.857 30.8823 115.619 30.701C115.392 30.5197 115.279 30.293 115.279 30.021C115.279 29.817 115.335 29.6413 115.449 29.494C115.562 29.3467 115.726 29.1653 115.942 28.95L116.639 28.236C116.831 28.0433 117.035 27.8903 117.251 27.777C117.466 27.6637 117.715 27.607 117.999 27.607C118.259 27.607 118.497 27.658 118.713 27.76C118.939 27.862 119.189 28.0773 119.461 28.406L120.719 29.953C120.719 30.225 120.634 30.4573 120.464 30.65C120.305 30.8427 120.061 30.939 119.733 30.939C119.54 30.939 119.364 30.888 119.206 30.786C119.058 30.6727 118.905 30.5253 118.747 30.344L117.948 29.392ZM131.207 36.311H128.708V34.798C128.708 34.3673 128.583 34.0557 128.334 33.863C128.084 33.6703 127.761 33.574 127.365 33.574C127.081 33.574 126.821 33.608 126.583 33.676C126.345 33.744 126.124 33.829 125.92 33.931V36.311H123.421V33.659C123.421 33.3757 123.477 33.1433 123.591 32.962C123.715 32.7693 123.897 32.5993 124.135 32.452C124.497 32.2027 124.956 31.9987 125.512 31.84C126.078 31.67 126.702 31.585 127.382 31.585C128.606 31.585 129.546 31.857 130.204 32.401C130.872 32.9337 131.207 33.7043 131.207 34.713V36.311ZM125.92 35.529V39.983C125.818 40.0057 125.665 40.034 125.461 40.068C125.257 40.102 125.036 40.119 124.798 40.119C124.322 40.119 123.97 40.034 123.744 39.864C123.528 39.694 123.421 39.388 123.421 38.946V35.529H125.92ZM131.207 35.529V39.983C131.105 40.0057 130.952 40.034 130.748 40.068C130.544 40.102 130.323 40.119 130.085 40.119C129.609 40.119 129.257 40.034 129.031 39.864C128.815 39.694 128.708 39.388 128.708 38.946V35.529H131.207ZM139.509 29.409C140.745 29.409 141.702 29.6697 142.382 30.191C143.062 30.7123 143.402 31.432 143.402 32.35C143.402 32.7353 143.329 33.081 143.181 33.387C143.045 33.6817 142.858 33.931 142.62 34.135C142.394 34.339 142.156 34.4977 141.906 34.611C142.224 34.713 142.513 34.8717 142.773 35.087C143.034 35.3023 143.249 35.5743 143.419 35.903C143.589 36.2317 143.674 36.6397 143.674 37.127C143.674 37.7843 143.499 38.3453 143.147 38.81C142.796 39.2747 142.309 39.6317 141.685 39.881C141.073 40.1303 140.359 40.255 139.543 40.255C138.807 40.255 138.178 40.1813 137.656 40.034C137.146 39.8867 136.755 39.6883 136.483 39.439C136.211 39.1897 136.075 38.912 136.075 38.606C136.075 38.334 136.138 38.1017 136.262 37.909C136.398 37.705 136.563 37.552 136.755 37.45C137.005 37.6087 137.322 37.7787 137.707 37.96C138.104 38.1413 138.614 38.232 139.237 38.232C139.849 38.232 140.32 38.113 140.648 37.875C140.977 37.637 141.141 37.3197 141.141 36.923C141.141 36.5263 141.005 36.2203 140.733 36.005C140.461 35.7897 140.019 35.682 139.407 35.682H137.86C137.792 35.58 137.73 35.4497 137.673 35.291C137.628 35.121 137.605 34.9283 137.605 34.713C137.605 34.4863 137.628 34.288 137.673 34.118C137.73 33.948 137.792 33.812 137.86 33.71H139.373C139.906 33.71 140.291 33.6137 140.529 33.421C140.767 33.2283 140.886 32.9507 140.886 32.588C140.886 32.2253 140.733 31.942 140.427 31.738C140.133 31.534 139.702 31.432 139.135 31.432C138.659 31.432 138.234 31.4943 137.86 31.619C137.498 31.7323 137.197 31.874 136.959 32.044C136.789 31.9307 136.642 31.7833 136.517 31.602C136.404 31.4207 136.347 31.211 136.347 30.973C136.347 30.633 136.478 30.3497 136.738 30.123C137.01 29.8963 137.384 29.7207 137.86 29.596C138.336 29.4713 138.886 29.409 139.509 29.409ZM151.271 35.512V37.331C151.271 37.6597 151.373 37.8977 151.577 38.045C151.781 38.181 152.064 38.249 152.427 38.249C152.608 38.249 152.795 38.232 152.988 38.198C153.18 38.164 153.35 38.1187 153.498 38.062C153.588 38.164 153.668 38.2887 153.736 38.436C153.804 38.572 153.838 38.7363 153.838 38.929C153.838 39.3143 153.679 39.6317 153.362 39.881C153.056 40.119 152.529 40.238 151.781 40.238C150.84 40.238 150.103 40.0283 149.571 39.609C149.049 39.1783 148.789 38.4757 148.789 37.501V35.512H151.271ZM150.353 32.027H153.634C153.69 32.1177 153.747 32.248 153.804 32.418C153.86 32.588 153.889 32.775 153.889 32.979C153.889 33.319 153.809 33.5683 153.651 33.727C153.503 33.8857 153.299 33.965 153.039 33.965H150.353V32.027ZM148.789 35.937V29.834C148.891 29.8 149.044 29.766 149.248 29.732C149.452 29.6867 149.667 29.664 149.894 29.664C150.37 29.664 150.715 29.749 150.931 29.919C151.157 30.089 151.271 30.395 151.271 30.837V35.937H148.789ZM155.379 35.597H157.878V36.804C157.878 37.3253 158.014 37.705 158.286 37.943C158.558 38.1697 158.937 38.283 159.425 38.283C159.731 38.283 159.986 38.2547 160.19 38.198C160.405 38.1413 160.564 38.079 160.666 38.011V35.597H163.165V38.317C163.165 38.589 163.114 38.8213 163.012 39.014C162.91 39.2067 162.74 39.3767 162.502 39.524C162.139 39.7507 161.691 39.9263 161.159 40.051C160.637 40.187 160.054 40.255 159.408 40.255C158.603 40.255 157.895 40.136 157.283 39.898C156.682 39.66 156.212 39.2917 155.872 38.793C155.543 38.283 155.379 37.6257 155.379 36.821V35.597ZM160.666 36.362V31.874C160.768 31.84 160.921 31.806 161.125 31.772C161.329 31.738 161.55 31.721 161.788 31.721C162.275 31.721 162.626 31.806 162.842 31.976C163.057 32.1347 163.165 32.4463 163.165 32.911V36.362H160.666ZM155.379 36.362V31.874C155.481 31.84 155.634 31.806 155.838 31.772C156.042 31.738 156.263 31.721 156.501 31.721C156.988 31.721 157.339 31.806 157.555 31.976C157.77 32.1347 157.878 32.4463 157.878 32.911V36.362H155.379ZM171.991 25.023C172.513 25.023 172.949 25.159 173.3 25.431C173.663 25.6917 173.844 26.077 173.844 26.587C173.844 26.9837 173.714 27.2897 173.453 27.505C173.193 27.709 172.909 27.8223 172.603 27.845V28.355C172.524 28.389 172.433 28.4173 172.331 28.44C172.241 28.4513 172.122 28.457 171.974 28.457C171.748 28.457 171.572 28.4287 171.447 28.372C171.334 28.3153 171.277 28.2133 171.277 28.066V27.437C171.277 27.2783 171.311 27.165 171.379 27.097C171.447 27.0177 171.555 26.978 171.702 26.978H171.804C172.19 26.978 172.382 26.842 172.382 26.57C172.382 26.4453 172.331 26.349 172.229 26.281C172.127 26.2017 171.98 26.162 171.787 26.162C171.617 26.162 171.453 26.1903 171.294 26.247C171.136 26.3037 171 26.3603 170.886 26.417C170.671 26.2697 170.563 26.0713 170.563 25.822C170.563 25.5727 170.694 25.38 170.954 25.244C171.226 25.0967 171.572 25.023 171.991 25.023ZM173.368 35.92C173.368 36.804 173.193 37.5747 172.841 38.232C172.49 38.878 171.991 39.3767 171.345 39.728C170.699 40.0793 169.94 40.255 169.067 40.255C168.206 40.255 167.447 40.085 166.789 39.745C166.143 39.3937 165.645 38.895 165.293 38.249C164.942 37.5917 164.766 36.8153 164.766 35.92C164.766 35.036 164.942 34.271 165.293 33.625C165.656 32.979 166.16 32.4803 166.806 32.129C167.464 31.7663 168.217 31.585 169.067 31.585C169.929 31.585 170.682 31.7663 171.328 32.129C171.974 32.4803 172.473 32.9847 172.824 33.642C173.187 34.288 173.368 35.0473 173.368 35.92ZM169.067 33.574C168.535 33.574 168.11 33.778 167.792 34.186C167.486 34.594 167.333 35.172 167.333 35.92C167.333 36.6793 167.481 37.263 167.775 37.671C168.081 38.079 168.512 38.283 169.067 38.283C169.623 38.283 170.048 38.079 170.342 37.671C170.648 37.2517 170.801 36.668 170.801 35.92C170.801 35.1833 170.648 34.611 170.342 34.203C170.036 33.7837 169.611 33.574 169.067 33.574ZM169.067 29.392C168.773 29.7207 168.523 29.9983 168.319 30.225C168.115 30.4403 167.894 30.6897 167.656 30.973C167.271 30.973 166.965 30.8823 166.738 30.701C166.512 30.5197 166.398 30.293 166.398 30.021C166.398 29.817 166.449 29.6413 166.551 29.494C166.665 29.3467 166.829 29.1653 167.044 28.95L167.741 28.236C167.934 28.0433 168.138 27.8903 168.353 27.777C168.569 27.6637 168.818 27.607 169.101 27.607C169.362 27.607 169.6 27.658 169.815 27.76C170.042 27.862 170.291 28.0773 170.563 28.406L171.821 29.953C171.821 30.225 171.742 30.4573 171.583 30.65C171.425 30.8427 171.175 30.939 170.835 30.939C170.643 30.939 170.467 30.888 170.308 30.786C170.161 30.6727 170.008 30.5253 169.849 30.344L169.067 29.392ZM174.883 29.494C174.883 29.1087 175.014 28.7857 175.274 28.525C175.546 28.2643 175.886 28.134 176.294 28.134C176.702 28.134 177.037 28.2643 177.297 28.525C177.558 28.7857 177.688 29.1087 177.688 29.494C177.688 29.868 177.558 30.191 177.297 30.463C177.037 30.7237 176.702 30.854 176.294 30.854C175.886 30.854 175.546 30.7237 175.274 30.463C175.014 30.191 174.883 29.868 174.883 29.494ZM177.552 35.512V39.983C177.439 40.0057 177.28 40.034 177.076 40.068C176.872 40.102 176.651 40.119 176.413 40.119C175.937 40.119 175.586 40.034 175.359 39.864C175.144 39.694 175.036 39.388 175.036 38.946V35.512H177.552ZM175.036 36.804V31.942C175.15 31.908 175.308 31.874 175.512 31.84C175.716 31.806 175.937 31.789 176.175 31.789C176.651 31.789 176.997 31.874 177.212 32.044C177.439 32.2027 177.552 32.5087 177.552 32.962V36.804H175.036Z" fill="#1B449C"/>
</svg>
