<svg width="282" height="377" viewBox="0 0 282 377" fill="none" xmlns="http://www.w3.org/2000/svg">
<mask id="mask0_1231_277" style="mask-type:luminance" maskUnits="userSpaceOnUse" x="0" y="0" width="282" height="377">
<path d="M254.82 0.00976562H26.47C11.851 0.00976562 0 11.8608 0 26.4798V349.79C0 364.409 11.851 376.26 26.47 376.26H254.82C269.439 376.26 281.29 364.409 281.29 349.79V26.4798C281.29 11.8608 269.439 0.00976562 254.82 0.00976562Z" fill="white"/>
</mask>
<g mask="url(#mask0_1231_277)">
<path d="M254.82 0.00976562H26.47C11.851 0.00976562 0 11.8608 0 26.4798V349.79C0 364.409 11.851 376.26 26.47 376.26H254.82C269.439 376.26 281.29 364.409 281.29 349.79V26.4798C281.29 11.8608 269.439 0.00976562 254.82 0.00976562Z" fill="#F6B5CC"/>
<mask id="mask1_1231_277" style="mask-type:luminance" maskUnits="userSpaceOnUse" x="0" y="0" width="282" height="377">
<path d="M254.82 0.00976562H26.47C11.851 0.00976562 0 11.8608 0 26.4798V349.79C0 364.409 11.851 376.26 26.47 376.26H254.82C269.439 376.26 281.29 364.409 281.29 349.79V26.4798C281.29 11.8608 269.439 0.00976562 254.82 0.00976562Z" fill="white"/>
</mask>
<g mask="url(#mask1_1231_277)">
<path d="M321.09 343.409C318.51 343.409 316.02 343.809 313.7 344.559C314.11 342.349 314.32 340.089 314.32 337.769C314.32 316.509 297.08 299.289 275.82 299.289C263.79 299.289 253.03 304.819 245.98 313.459C240.45 286.029 216.23 265.379 187.17 265.379C174.97 265.379 163.59 269.019 154.12 275.299C154.25 274.259 154.31 273.209 154.31 272.129C154.31 257.129 142.16 244.969 127.17 244.969C123.42 244.969 119.83 245.719 116.57 247.119C115.36 226.519 98.2701 210.189 77.3701 210.189C63.3901 210.189 51.1101 217.509 44.1501 228.539C36.8501 225.139 28.7001 223.259 20.1201 223.259C-11.5099 223.259 -37.1499 248.889 -37.1499 280.529C-37.1499 288.189 -35.6399 295.489 -32.9099 302.149C-54.0899 305.849 -70.1599 324.329 -70.1599 346.569C-70.1599 371.509 -49.9599 391.709 -25.0199 391.709H321.09C334.43 391.709 345.23 380.899 345.23 367.569C345.23 354.239 334.42 343.429 321.09 343.429V343.409Z" fill="#F5A3C0"/>
</g>
<path d="M258.91 314.13L223.43 298.97C218.51 296.87 210.12 305.36 208.02 310.21L182.81 368.56C180.71 373.41 183 379.05 187.92 381.15L223.4 396.31C228.32 398.41 234.01 396.18 236.11 391.33L261.32 332.98C263.42 328.13 263.83 316.23 258.91 314.12V314.13Z" fill="#F394B5"/>
<path d="M263.21 290.08C262.84 290.9 262.45 291.56 262 292.1C261.89 292.33 261.73 292.54 261.58 292.7L261.52 292.73L250.4 288.2L238.29 282.75C238.28 282.59 238.29 282.39 238.32 282.25C238.37 281.5 238.64 280.65 239.04 279.74C240.95 275.3 246.9 276.63 249.7 271.97C252.56 267.27 256 261.56 256 261.56C255.11 259.84 255.03 257.83 255.84 255.96C257.33 252.53 261.38 250.91 264.9 252.41C268.38 253.9 269.98 257.95 268.5 261.38C267.68 263.3 266.02 264.65 264.16 265.22C264.16 265.22 262.09 271.41 261.09 276.5C260.03 281.63 265.22 285.41 263.2 290.08H263.21Z" fill="#F394B5"/>
<path d="M271.6 307.541L269.88 311.471C267.79 316.331 262.02 318.57 257.1 316.43L246.16 311.691L223.01 301.661C218.09 299.521 215.82 293.86 217.92 288.99L219.65 285.011C219.75 284.811 219.84 284.611 219.98 284.421C222.29 279.971 227.75 278.011 232.47 280.061C238.59 282.711 244.7 285.721 250.92 288.311C250.92 288.311 260.16 292.14 260.68 292.3C260.69 292.3 260.71 292.301 260.72 292.311L266.52 294.811C271.48 296.961 273.75 302.62 271.6 307.52V307.541Z" fill="#F7C0D8"/>
<path d="M222.62 297.05C222.45 297.05 222.27 297.02 222.11 296.95C221.42 296.66 221.09 295.87 221.37 295.18L226.01 283.88C226.29 283.19 227.08 282.85 227.78 283.14C228.47 283.42 228.8 284.22 228.52 284.91L223.88 296.21C223.66 296.73 223.16 297.05 222.62 297.05Z" fill="#F49DBC"/>
<path d="M228.91 299.63C228.74 299.63 228.56 299.6 228.4 299.53C227.71 299.25 227.37 298.45 227.66 297.76L232.3 286.46C232.58 285.77 233.38 285.43 234.07 285.72C234.76 286 235.1 286.8 234.81 287.49L230.17 298.79C229.95 299.32 229.45 299.63 228.91 299.63Z" fill="#F49DBC"/>
<path d="M235.2 302.21C235.03 302.21 234.85 302.18 234.69 302.11C234 301.82 233.67 301.03 233.95 300.34L238.59 289.04C238.87 288.35 239.66 288.01 240.36 288.3C241.05 288.58 241.38 289.38 241.1 290.07L236.46 301.37C236.24 301.89 235.74 302.21 235.2 302.21Z" fill="#F49DBC"/>
<path d="M241.49 304.79C241.32 304.79 241.14 304.76 240.98 304.69C240.29 304.41 239.95 303.61 240.24 302.92L244.88 291.62C245.16 290.93 245.96 290.59 246.65 290.88C247.34 291.16 247.68 291.96 247.39 292.65L242.75 303.95C242.53 304.48 242.03 304.79 241.49 304.79Z" fill="#F49DBC"/>
<path d="M247.78 307.37C247.61 307.37 247.43 307.34 247.27 307.27C246.58 306.99 246.24 306.19 246.53 305.5L251.17 294.2C251.45 293.51 252.25 293.17 252.94 293.46C253.63 293.74 253.97 294.54 253.68 295.23L249.04 306.53C248.82 307.06 248.32 307.37 247.78 307.37Z" fill="#F49DBC"/>
<path d="M254.07 309.95C253.9 309.95 253.72 309.92 253.56 309.85C252.87 309.57 252.53 308.77 252.82 308.08L257.46 296.78C257.74 296.09 258.54 295.75 259.23 296.04C259.92 296.32 260.26 297.12 259.97 297.81L255.33 309.11C255.11 309.64 254.61 309.95 254.07 309.95Z" fill="#F49DBC"/>
<path d="M260.36 312.529C260.19 312.529 260.01 312.499 259.85 312.429C259.16 312.149 258.82 311.349 259.11 310.659L263.75 299.359C264.03 298.669 264.83 298.329 265.52 298.619C266.21 298.899 266.55 299.699 266.26 300.389L261.62 311.689C261.4 312.219 260.9 312.529 260.36 312.529Z" fill="#F49DBC"/>
<path d="M255.86 62.5001C255.69 62.7101 255.52 62.9201 255.36 63.1301C255.1 63.4601 254.84 63.7901 254.6 64.1301C254.39 64.4201 254.18 64.7101 253.98 65.0101C253.7 65.4101 253.43 65.8201 253.18 66.2201C252.87 66.7001 252.57 67.1901 252.29 67.6901C252.08 68.0401 251.89 68.3901 251.69 68.7501C251.67 68.7801 251.66 68.8201 251.64 68.8501C251.43 69.2501 251.22 69.6501 251.03 70.0501C251.02 70.0601 251.01 70.0701 251.01 70.0801C250.81 70.5001 250.61 70.9201 250.42 71.3401C250.27 71.6801 250.12 72.0301 249.98 72.3701C249.88 72.6001 249.79 72.8201 249.71 73.0601C249.44 73.7301 249.19 74.4201 248.98 75.1001C248.91 75.3101 248.84 75.5201 248.78 75.7401C248.67 76.0801 248.57 76.4301 248.48 76.7701C248.35 77.2301 248.23 77.6901 248.12 78.1501C248.02 78.5501 247.93 78.9501 247.85 79.3701C247.63 80.4301 247.45 81.4901 247.32 82.5601C247.27 82.9501 247.23 83.3401 247.19 83.7301C247.15 84.1801 247.12 84.6301 247.09 85.0801C247.09 85.1801 247.08 85.2901 247.07 85.3901C247.05 85.7701 247.04 86.1601 247.03 86.5401C247.03 87.0101 247.03 87.4801 247.03 87.9501C247.03 88.5401 247.06 89.1301 247.1 89.7101C247.13 90.2901 247.17 90.8801 247.24 91.4701C247.36 92.6401 247.54 93.8001 247.75 94.9601C247.85 95.4201 247.94 95.8801 248.05 96.3401C248.16 96.8001 248.27 97.2601 248.39 97.7101C248.75 99.0801 249.19 100.43 249.72 101.75C250.06 102.64 250.43 103.51 250.84 104.37C251.28 105.3 251.76 106.21 252.28 107.11C254.21 110.47 256.66 113.59 259.63 116.36C259.95 116.65 260.27 116.94 260.6 117.23C264.01 120.21 267.79 122.49 271.76 124.09C272.73 124.48 273.69 124.83 274.67 125.14C275.58 125.43 276.49 125.67 277.42 125.89C278.8 126.23 280.2 126.48 281.6 126.65C282.07 126.71 282.54 126.75 283.01 126.8C283.49 126.84 283.95 126.87 284.42 126.9C285.6 126.96 286.77 126.97 287.94 126.93C288.53 126.91 289.11 126.88 289.7 126.83C290.28 126.79 290.86 126.73 291.45 126.66C291.92 126.6 292.39 126.53 292.85 126.46C293.23 126.4 293.61 126.34 293.99 126.27C294.09 126.25 294.19 126.23 294.3 126.21C294.74 126.12 295.19 126.03 295.63 125.92C296.01 125.83 296.39 125.74 296.78 125.63C297.82 125.35 298.86 125.03 299.87 124.67C300.27 124.53 300.65 124.38 301.04 124.23C301.48 124.06 301.93 123.88 302.36 123.69C302.69 123.55 303.01 123.4 303.34 123.25C303.54 123.16 303.75 123.06 303.94 122.96C304.59 122.65 305.23 122.31 305.86 121.95C306.08 121.84 306.29 121.72 306.5 121.59C306.82 121.4 307.15 121.21 307.46 121.01C307.86 120.76 308.25 120.51 308.63 120.25C308.64 120.25 308.65 120.25 308.66 120.23C309.03 119.98 309.4 119.73 309.77 119.46C309.8 119.44 309.83 119.42 309.86 119.4C310.19 119.16 310.51 118.92 310.83 118.66C311.28 118.31 311.73 117.95 312.16 117.58C312.53 117.27 312.89 116.95 313.25 116.62C313.52 116.38 313.78 116.14 314.03 115.89C314.33 115.6 314.62 115.31 314.91 115C315.1 114.81 315.28 114.61 315.47 114.42C315.78 114.09 316.09 113.75 316.39 113.41C330.74 96.9401 329.02 71.9601 312.56 57.6101C312.24 57.3301 311.9 57.0501 311.57 56.7701C295.11 43.3301 270.83 45.3001 256.76 61.4401C256.46 61.7801 256.17 62.1301 255.88 62.4901L255.86 62.5001ZM303.42 66.1001C303.76 66.3601 304.09 66.6401 304.42 66.9201C315.74 76.7901 316.93 93.9701 307.06 105.3C306.76 105.64 306.46 105.98 306.14 106.29L306.07 106.37C305.82 106.63 305.57 106.87 305.32 107.11C305.19 107.24 305.06 107.37 304.92 107.49C304.42 107.95 303.9 108.39 303.37 108.81C303.15 108.99 302.91 109.17 302.68 109.34C302.38 109.56 302.08 109.78 301.77 109.99C301.46 110.21 301.14 110.4 300.83 110.6C300.51 110.8 300.2 110.98 299.87 111.16C299.73 111.25 299.59 111.33 299.45 111.4C299.09 111.6 298.73 111.78 298.37 111.95C298.02 112.12 297.67 112.28 297.31 112.43C297.06 112.54 296.81 112.64 296.55 112.73C296.27 112.85 295.98 112.96 295.69 113.06C295.67 113.06 295.65 113.08 295.64 113.08C295.35 113.19 295.05 113.28 294.75 113.37C294.44 113.46 294.14 113.56 293.82 113.64C293.51 113.73 293.2 113.82 292.88 113.88C292.58 113.97 292.26 114.03 291.94 114.09C291.01 114.28 290.07 114.42 289.11 114.51C289.08 114.51 289.06 114.51 289.03 114.51C288.73 114.54 288.43 114.56 288.12 114.58C287.48 114.62 286.84 114.64 286.19 114.62C285.79 114.62 285.41 114.6 285 114.58C284.75 114.58 284.51 114.56 284.27 114.53C283.96 114.5 283.63 114.47 283.31 114.43C282.99 114.39 282.66 114.35 282.35 114.3C282.06 114.27 281.78 114.22 281.51 114.16C281.45 114.14 281.38 114.13 281.31 114.12C280.39 113.94 279.48 113.72 278.58 113.43C275.02 112.35 271.64 110.52 268.67 107.93C268.34 107.64 268.02 107.35 267.72 107.05C265.2 104.65 263.24 101.86 261.86 98.8601C261.76 98.6301 261.66 98.4101 261.56 98.1901C261.27 97.5201 261.01 96.8401 260.78 96.1501C260.67 95.8501 260.57 95.5401 260.48 95.2301C260.29 94.6101 260.14 93.9901 259.99 93.3601C259.92 93.0501 259.85 92.7401 259.8 92.4201C259.73 92.1101 259.68 91.7901 259.64 91.4701C259.54 90.8401 259.46 90.2001 259.42 89.5601C259.39 89.2601 259.38 88.9501 259.36 88.6501C259.36 88.6201 259.36 88.6001 259.36 88.5701C259.36 88.2601 259.34 87.9501 259.34 87.6301C259.33 86.9901 259.34 86.3501 259.39 85.7101C259.41 85.3901 259.43 85.0701 259.47 84.7501C259.49 84.4301 259.53 84.1201 259.57 83.8101C259.66 83.1601 259.77 82.5201 259.9 81.8701C259.95 81.6301 260 81.3901 260.06 81.1501C260.11 80.9701 260.15 80.8001 260.19 80.6201C260.24 80.4101 260.29 80.2101 260.36 80.0101C260.56 79.3001 260.79 78.6001 261.04 77.9201C261.09 77.7701 261.15 77.6101 261.22 77.4701C261.35 77.1201 261.49 76.7801 261.64 76.4401C261.79 76.1001 261.94 75.7601 262.11 75.4201C262.29 75.0601 262.46 74.7201 262.65 74.3801C262.74 74.2101 262.84 74.0201 262.94 73.8501C263.09 73.5901 263.24 73.3401 263.4 73.0801C263.64 72.6901 263.88 72.3201 264.14 71.9501C264.24 71.7901 264.35 71.6401 264.46 71.5001C264.66 71.2101 264.87 70.9301 265.09 70.6501L265.16 70.5701C265.43 70.2101 265.72 69.8701 266.02 69.5301C275.6 58.5401 292.08 57.1001 303.4 66.0701L303.42 66.1001Z" fill="#F49EBD"/>
<path d="M249.93 105.4L254.39 100.28C256.3 98.0899 259.41 97.5799 261.87 98.8699C261.89 98.8699 261.92 98.8899 261.93 98.8999C261.96 98.9099 261.98 98.9199 262.01 98.9499C262.04 98.9499 262.07 98.9799 262.1 98.9999C262.26 99.0899 262.42 99.1999 262.58 99.3099C262.76 99.4299 262.92 99.5599 263.08 99.6999L277.62 112.37C277.78 112.51 277.93 112.65 278.07 112.81C278.18 112.92 278.28 113.04 278.37 113.16C278.45 113.25 278.52 113.35 278.59 113.45C280.21 115.72 280.12 118.88 278.21 121.07L273.75 126.19C271.51 128.76 267.62 129.03 265.05 126.79L250.51 114.12C247.94 111.88 247.67 107.99 249.91 105.42L249.93 105.4Z" fill="#F49EBD"/>
<path d="M235.45 112.77C234.97 109.51 233.87 107.46 233.87 107.46L273.92 142.36C273.92 142.36 271.74 141.55 268.45 141.53C268.18 141.53 267.89 141.53 267.59 141.54C267.3 141.54 267 141.56 266.69 141.59C266.4 141.6 266.1 141.63 265.8 141.67C265.45 141.71 265.08 141.77 264.71 141.84C264.41 141.89 264.11 141.95 263.8 142.02C263.77 142.02 263.74 142.03 263.7 142.05C263.57 142.08 263.44 142.11 263.32 142.14C263.19 142.17 263.05 142.2 262.94 142.24C262.79 142.27 262.65 142.31 262.51 142.35C262.25 142.43 261.99 142.5 261.74 142.6C261.71 142.6 261.68 142.61 261.64 142.63C261.33 142.74 261.01 142.85 260.69 142.98C260.58 143.03 260.46 143.07 260.33 143.13C260.05 143.25 259.76 143.38 259.48 143.51C259.24 143.62 259 143.74 258.75 143.87C258.57 143.96 258.41 144.06 258.23 144.15C257.72 144.44 257.2 144.76 256.68 145.11C256.57 145.18 256.46 145.25 256.35 145.34C256.33 145.34 256.31 145.37 256.29 145.38C256.23 145.42 256.19 145.46 256.13 145.49C255.93 145.63 255.74 145.78 255.55 145.93C255.22 146.18 254.89 146.45 254.57 146.72C254.25 146.99 253.92 147.29 253.59 147.59C253.26 147.9 252.94 148.21 252.62 148.55C252.29 148.88 251.97 149.24 251.66 149.6C241.46 161.3 256.47 166.21 241.92 182.9C227.37 199.59 209.48 195.81 199.61 187.21C199.29 186.93 198.96 186.63 198.65 186.34C197.99 185.72 197.36 185.06 196.76 184.35C196.3 183.84 195.87 183.31 195.46 182.76C194.92 182.06 194.41 181.32 193.93 180.57C193.73 180.26 193.54 179.94 193.35 179.62C193.32 179.57 193.29 179.52 193.26 179.47C193.05 179.11 192.85 178.74 192.66 178.37C192.46 177.99 192.27 177.61 192.09 177.21C191.91 176.82 191.73 176.43 191.57 176.02C191.42 175.69 191.3 175.35 191.18 175C191.13 174.89 191.09 174.77 191.05 174.66C190.97 174.45 190.9 174.24 190.84 174.01C190.75 173.78 190.67 173.52 190.6 173.27C190.54 173.09 190.49 172.9 190.45 172.71C190.38 172.49 190.32 172.27 190.27 172.04C190.2 171.77 190.14 171.5 190.08 171.23C190.05 171.08 190.01 170.93 189.99 170.78C189.92 170.44 189.86 170.11 189.81 169.76C189.79 169.68 189.78 169.6 189.77 169.52C189.7 169.12 189.65 168.71 189.61 168.3C189.42 166.42 189.42 164.48 189.65 162.49C189.68 162.25 189.71 162 189.75 161.75C189.82 161.22 189.92 160.68 190.03 160.14C190.07 159.92 190.12 159.69 190.17 159.48C190.28 158.97 190.42 158.46 190.57 157.94C190.63 157.72 190.7 157.48 190.78 157.26C190.94 156.72 191.13 156.19 191.34 155.66C191.43 155.43 191.51 155.21 191.6 154.99C191.72 154.7 191.84 154.4 191.98 154.11C192.1 153.85 192.22 153.59 192.34 153.33C192.38 153.23 192.43 153.13 192.48 153.03C192.6 152.78 192.72 152.54 192.86 152.29C193.27 151.49 193.73 150.68 194.25 149.86C194.37 149.66 194.5 149.46 194.64 149.26C194.97 148.76 195.31 148.25 195.68 147.75C196.03 147.26 196.4 146.77 196.79 146.28C197.21 145.76 197.64 145.24 198.09 144.71C212.64 128.02 219.55 142.21 229.75 130.51C230.07 130.15 230.37 129.78 230.66 129.41C230.95 129.05 231.22 128.69 231.48 128.32C231.73 127.96 231.98 127.59 232.21 127.23C232.44 126.87 232.66 126.51 232.86 126.15C232.98 125.94 233.1 125.73 233.21 125.51C233.24 125.45 233.27 125.4 233.3 125.34C233.3 125.32 233.32 125.3 233.33 125.28C233.4 125.16 233.46 125.04 233.51 124.92C233.85 124.24 234.14 123.56 234.39 122.9C234.5 122.59 234.61 122.28 234.7 121.97C234.7 121.95 234.71 121.94 234.72 121.92C234.82 121.62 234.91 121.32 234.98 121.02C234.98 121 234.99 120.98 235 120.96C235.03 120.85 235.06 120.75 235.08 120.64C235.17 120.3 235.23 119.98 235.3 119.65C235.31 119.61 235.32 119.58 235.31 119.55C235.37 119.24 235.43 118.94 235.47 118.65C235.49 118.59 235.49 118.53 235.5 118.47C235.5 118.46 235.5 118.44 235.5 118.42C235.55 118.1 235.59 117.78 235.61 117.46C235.64 117.17 235.66 116.87 235.67 116.59C235.67 116.56 235.67 116.53 235.67 116.5C235.68 116.12 235.68 115.76 235.69 115.41C235.68 115.26 235.68 115.11 235.67 114.96C235.66 114.81 235.66 114.66 235.65 114.52C235.63 114.2 235.61 113.91 235.58 113.62C235.55 113.32 235.52 113.04 235.48 112.77H235.45Z" fill="#F8C8D8"/>
<path d="M215.15 82.97C217.39 80.4 221.28 80.13 223.85 82.37L300.15 148.86C302.72 151.1 302.99 154.99 300.75 157.56C298.51 160.13 294.62 160.4 292.05 158.16L215.75 91.67C213.18 89.43 212.91 85.54 215.15 82.97Z" fill="#F49EBD"/>
<path d="M-31.2205 319.43L61.6444 270.902C63.8601 269.745 66.5994 270.604 67.7573 272.819L116.281 365.675C117.438 367.891 116.579 370.63 114.364 371.788L21.4989 420.316C19.2832 421.474 16.5438 420.615 15.386 418.399L-33.142 325.534C-34.2998 323.319 -33.4408 320.579 -31.2251 319.422L-31.2205 319.43Z" fill="#F394B5"/>
<path d="M58.9439 290.22L-13.8201 328.244L24.2038 401.008L96.9678 362.984L58.9439 290.22Z" fill="#F285AB"/>
<path d="M45.89 318.831C42.19 320.771 39.24 324.211 37.26 327.071C37.26 327.081 35.28 330.741 32.64 334.621C31.16 336.791 29.82 337.651 27.94 338.521C27.44 338.751 26.96 338.141 27.32 337.711C28.47 336.321 29.97 334.181 31.09 331.531C27.51 331.321 21.72 331.461 17.16 333.841C10.02 337.571 6.63998 344.361 13.4 353.811C20.2 363.311 32.09 375.101 39.86 371.041C42.55 369.631 46.57 365.811 48.19 360.901C48.49 359.981 49.47 359.471 50.4 359.751C55.35 361.231 60.79 360.111 63.48 358.711C71.26 354.651 68.37 338.151 64.45 327.151C60.55 316.211 53.04 315.101 45.91 318.831H45.89Z" fill="#F394B5"/>
</g>
<path d="M178.8 126.74C172.29 128.74 165.82 131.73 159.4 135.72C152.97 139.71 146.92 144.36 141.24 149.65C135.55 154.95 130.56 160.57 126.26 166.51C121.96 172.46 118.69 178.38 116.43 184.28C119.38 180.98 123.14 178.14 127.69 175.75C132.25 173.36 137.17 171.56 142.47 170.35C147.76 169.14 152.93 168.53 157.96 168.53C167.08 168.53 175 170.29 181.72 173.8C188.45 177.32 193.63 182.57 197.28 189.55C200.93 196.54 202.75 205.37 202.75 216.05C202.75 228.55 199.91 239.53 194.22 248.99C188.53 258.45 180.85 265.79 171.17 270.99C161.49 276.2 150.71 278.8 138.81 278.8C125.79 278.8 114.81 275.98 105.87 270.34C96.93 264.7 90.14 256.8 85.49 246.64C80.84 236.48 78.52 224.76 78.52 211.48C78.52 198.2 80.41 186.33 84.18 174.57C87.96 162.81 93.42 151.94 100.59 141.95C107.75 131.97 116.43 123.18 126.63 115.58C136.83 107.99 148.35 101.93 161.2 97.4199C163.11 98.8999 165.28 101.28 167.71 104.58C170.14 107.88 172.4 111.5 174.48 115.45C176.56 119.4 178 123.15 178.78 126.71L178.8 126.74ZM122.94 210.07C121.38 211.89 120.18 213.96 119.36 216.25C118.53 218.55 118.12 220.87 118.12 223.22C118.12 229.73 120.25 234.9 124.5 238.72C128.75 242.54 134.4 244.45 141.43 244.45C146.64 244.45 151.22 243.24 155.17 240.8C159.12 238.37 162.18 235.18 164.35 231.23C166.52 227.28 167.61 223.09 167.61 218.67C167.61 212.51 165.92 207.75 162.53 204.41C159.14 201.07 154.54 199.4 148.73 199.4C143.52 199.4 138.64 200.38 134.08 202.33C129.52 204.28 125.81 206.87 122.95 210.08L122.94 210.07Z" fill="white"/>
<path d="M103.7 294.63C103.66 294.45 103.62 294.19 103.59 293.85C103.56 293.51 103.54 293.16 103.51 292.79C103.49 292.42 103.47 292.09 103.46 291.79C103.45 291.5 103.44 291.29 103.44 291.18C104.37 291.11 105.44 291.05 106.63 291C107.83 290.95 109.04 290.92 110.26 290.92C111.18 290.92 112.09 290.94 112.97 290.98C113.85 291.02 114.65 291.09 115.38 291.2C115.38 291.89 115.37 292.54 115.32 293.13C115.27 293.73 115.21 294.17 115.15 294.47C114.99 294.47 114.76 294.47 114.46 294.47C114.16 294.47 113.83 294.47 113.47 294.46C113.11 294.46 112.75 294.46 112.4 294.45C112.05 294.44 111.75 294.44 111.49 294.43C111.49 294.74 111.51 295.19 111.54 295.8C111.56 296.4 111.59 297.09 111.63 297.87C111.66 298.64 111.7 299.46 111.74 300.31C111.78 301.16 111.82 301.99 111.86 302.81C111.9 303.63 111.93 304.37 111.96 305.05C111.99 305.73 112.01 306.29 112.04 306.73C112.06 307.17 112.07 307.43 112.07 307.51C111.74 307.56 111.3 307.61 110.77 307.65C110.24 307.69 109.71 307.73 109.18 307.75C108.65 307.77 108.22 307.79 107.89 307.79C107.87 307.3 107.84 306.71 107.81 306.01C107.79 305.31 107.76 304.56 107.75 303.75C107.74 302.94 107.72 302.1 107.7 301.25C107.68 300.4 107.67 299.56 107.66 298.74C107.65 297.92 107.65 297.17 107.65 296.49V295.41C107.65 295.08 107.65 294.78 107.66 294.51C107.38 294.53 107.07 294.54 106.74 294.55C106.41 294.56 106.06 294.58 105.71 294.59C105.36 294.61 105.01 294.62 104.67 294.63C104.33 294.63 104.01 294.64 103.71 294.64L103.7 294.63Z" fill="white"/>
<path d="M120.89 307.73C120.7 307.76 120.43 307.79 120.08 307.81C119.73 307.83 119.38 307.83 119.01 307.83C118.58 307.83 118.17 307.82 117.8 307.79C117.43 307.76 117.15 307.71 116.97 307.65C117.04 307.15 117.1 306.5 117.15 305.69C117.2 304.89 117.25 303.98 117.29 302.98C117.33 301.98 117.35 300.93 117.35 299.83C117.35 298.73 117.33 297.56 117.29 296.39C117.25 295.22 117.2 294.1 117.15 293.01C117.09 291.92 117.04 290.93 116.99 290.03C117.05 290 117.23 289.97 117.54 289.92C117.85 289.87 118.21 289.82 118.62 289.76C119.03 289.71 119.42 289.66 119.78 289.62C120.15 289.58 120.42 289.56 120.6 289.56C120.73 290.18 120.85 290.93 120.95 291.8C121.05 292.67 121.13 293.61 121.2 294.64C121.27 295.67 121.31 296.75 121.34 297.87C121.62 297.55 121.98 297.27 122.41 297.01C122.84 296.75 123.32 296.56 123.83 296.41C124.34 296.26 124.85 296.19 125.36 296.19C126.38 296.19 127.16 296.38 127.7 296.77C128.24 297.16 128.62 297.72 128.83 298.46C129.04 299.2 129.15 300.09 129.15 301.15C129.15 301.82 129.12 302.53 129.07 303.3C129.02 304.07 128.95 304.82 128.86 305.56C128.78 306.3 128.68 306.97 128.59 307.56C128.3 307.6 128 307.64 127.69 307.66C127.38 307.68 127.07 307.7 126.77 307.7C126.43 307.7 126.09 307.69 125.76 307.66C125.43 307.63 125.13 307.59 124.87 307.54C124.93 307.16 124.99 306.72 125.06 306.21C125.13 305.7 125.19 305.18 125.25 304.64C125.31 304.1 125.36 303.59 125.39 303.1C125.42 302.61 125.45 302.2 125.45 301.86C125.45 301.37 125.4 300.95 125.31 300.61C125.22 300.27 125.06 300.01 124.85 299.83C124.64 299.65 124.35 299.56 123.99 299.56C123.68 299.56 123.39 299.62 123.11 299.73C122.83 299.84 122.58 299.98 122.35 300.15C122.12 300.32 121.92 300.5 121.74 300.68C121.56 300.86 121.43 301.02 121.33 301.15C121.33 302.01 121.31 302.86 121.27 303.72C121.23 304.57 121.17 305.35 121.11 306.05C121.04 306.75 120.97 307.31 120.9 307.72L120.89 307.73Z" fill="white"/>
<path d="M136.43 307.81C135.41 307.81 134.47 307.67 133.62 307.39C132.77 307.11 132.09 306.66 131.59 306.03C131.09 305.4 130.83 304.57 130.83 303.52C130.83 302.47 131.12 301.64 131.71 301C132.3 300.36 133.07 299.9 134.04 299.61C135 299.32 136.04 299.18 137.15 299.18C137.58 299.18 138 299.21 138.4 299.28C138.8 299.35 139.15 299.43 139.46 299.52C139.76 299.61 139.98 299.7 140.12 299.78C140.12 299.56 140.07 299.33 139.99 299.09C139.91 298.85 139.8 298.64 139.66 298.48C139.41 298.14 139.07 297.85 138.64 297.62C138.21 297.39 137.65 297.28 136.95 297.28C136.25 297.28 135.62 297.44 135.07 297.76C134.53 298.08 134.12 298.44 133.83 298.84L130.78 296.88C131.16 296.35 131.66 295.88 132.3 295.48C132.94 295.08 133.66 294.77 134.47 294.54C135.28 294.31 136.13 294.2 137.03 294.2C138.51 294.2 139.7 294.44 140.62 294.93C141.54 295.41 142.22 296.09 142.66 296.95C142.87 297.37 143.04 297.83 143.17 298.33C143.3 298.83 143.39 299.41 143.44 300.06C143.47 300.62 143.5 301.14 143.52 301.62C143.54 302.1 143.55 302.56 143.57 303C143.59 303.63 143.66 304.05 143.78 304.24C143.9 304.43 144.08 304.53 144.32 304.53C144.54 304.53 144.73 304.47 144.9 304.35C145.07 304.23 145.18 304.07 145.23 303.87L146.53 306.36C146.44 306.74 146.18 307.06 145.75 307.32C145.33 307.58 144.79 307.71 144.14 307.71C143.67 307.71 143.22 307.63 142.79 307.47C142.36 307.31 142.01 307.09 141.74 306.81C141.47 306.53 141.3 306.21 141.25 305.85C141.12 306.17 140.84 306.48 140.41 306.78C139.98 307.08 139.44 307.33 138.77 307.53C138.1 307.73 137.32 307.82 136.43 307.82V307.81ZM137.27 304.87C137.66 304.87 138.06 304.81 138.48 304.69C138.89 304.57 139.27 304.42 139.6 304.23C139.93 304.04 140.2 303.86 140.38 303.67C140.36 303.41 140.35 303.14 140.34 302.87C140.33 302.59 140.33 302.36 140.34 302.17C140.16 302.09 139.81 302.01 139.3 301.93C138.79 301.84 138.25 301.8 137.69 301.8C137.18 301.8 136.71 301.85 136.27 301.96C135.83 302.07 135.47 302.24 135.19 302.46C134.91 302.69 134.77 302.98 134.77 303.34C134.77 303.72 134.87 304.03 135.08 304.25C135.29 304.47 135.58 304.63 135.96 304.73C136.34 304.83 136.78 304.87 137.28 304.87H137.27ZM139.63 288.76C140.02 288.96 140.37 289.21 140.68 289.52C140.99 289.82 141.24 290.11 141.45 290.37C141.66 290.63 141.79 290.82 141.86 290.93C141.55 291.05 141.2 291.19 140.81 291.36C140.42 291.53 140.02 291.72 139.62 291.92C139.22 292.13 138.83 292.32 138.46 292.51C138.09 292.7 137.77 292.88 137.49 293.04C137.21 293.2 137 293.32 136.87 293.4C136.8 293.37 136.68 293.3 136.49 293.21C136.3 293.12 136.1 293 135.87 292.87C135.64 292.74 135.43 292.61 135.24 292.48C135.04 292.35 134.91 292.24 134.83 292.16C135.06 291.88 135.38 291.56 135.81 291.2C136.24 290.84 136.7 290.49 137.2 290.15C137.7 289.81 138.16 289.51 138.61 289.26C139.05 289.01 139.39 288.84 139.63 288.77V288.76Z" fill="white"/>
<path d="M151.33 307.76C151.08 307.76 150.77 307.77 150.41 307.76C150.04 307.76 149.67 307.75 149.29 307.74C148.98 307.74 148.63 307.72 148.23 307.7C147.83 307.68 147.55 307.67 147.39 307.65C147.47 306.95 147.53 306.16 147.58 305.27C147.63 304.39 147.68 303.41 147.71 302.33C147.74 301.25 147.77 300.08 147.79 298.8C147.81 297.53 147.81 296.15 147.81 294.66C148.13 294.62 148.5 294.58 148.93 294.56C149.36 294.54 149.8 294.52 150.24 294.52C150.55 294.52 150.85 294.52 151.13 294.54C151.42 294.55 151.67 294.58 151.9 294.62C151.9 294.7 151.9 294.85 151.9 295.08C151.9 295.31 151.9 295.56 151.9 295.83C151.9 296.1 151.89 296.34 151.88 296.56C152.1 296.24 152.45 295.91 152.94 295.57C153.43 295.22 154 294.93 154.65 294.69C155.3 294.45 155.97 294.33 156.66 294.33C157.94 294.33 158.91 294.59 159.58 295.1C160.26 295.61 160.72 296.38 160.97 297.4C161.22 298.42 161.35 299.7 161.35 301.23C161.35 301.76 161.34 302.39 161.31 303.1C161.28 303.81 161.24 304.56 161.18 305.34C161.12 306.12 161.05 306.88 160.96 307.61C160.79 307.63 160.53 307.64 160.17 307.65C159.81 307.66 159.43 307.67 159.03 307.67C158.6 307.67 158.2 307.67 157.82 307.65C157.44 307.64 157.15 307.62 156.97 307.61C157.06 307.14 157.16 306.56 157.27 305.86C157.38 305.16 157.47 304.41 157.54 303.62C157.62 302.82 157.65 302.06 157.65 301.34C157.65 300.62 157.59 300.03 157.48 299.51C157.37 298.99 157.15 298.59 156.84 298.3C156.53 298.01 156.07 297.87 155.46 297.87C154.96 297.87 154.48 297.96 154.02 298.13C153.56 298.3 153.14 298.52 152.77 298.77C152.39 299.02 152.07 299.27 151.81 299.51C151.81 300.83 151.77 302.02 151.71 303.08C151.65 304.14 151.59 305.06 151.52 305.84C151.45 306.62 151.39 307.25 151.32 307.72L151.33 307.76Z" fill="white"/>
<path d="M170.48 313.83C169.18 313.83 168 313.71 166.94 313.46C165.88 313.21 165.03 312.78 164.4 312.16C163.77 311.54 163.46 310.67 163.46 309.55C163.46 308.86 163.69 308.22 164.14 307.63C164.59 307.04 165.24 306.56 166.08 306.18C166.92 305.8 167.92 305.58 169.07 305.51C169.59 305.48 170.13 305.45 170.71 305.44C171.29 305.43 171.97 305.42 172.75 305.42C174.08 305.42 175.16 305.71 176.01 306.3C176.86 306.89 177.28 307.83 177.28 309.12C177.28 310.25 176.98 311.17 176.39 311.86C175.79 312.55 174.99 313.05 173.97 313.36C172.95 313.67 171.79 313.82 170.5 313.82L170.48 313.83ZM171.04 304.38C169.34 304.38 167.99 304.14 167 303.66C166.01 303.18 165.29 302.55 164.87 301.79C164.45 301.03 164.23 300.23 164.23 299.38C164.23 298.3 164.51 297.38 165.08 296.64C165.65 295.9 166.42 295.34 167.39 294.96C168.37 294.58 169.48 294.39 170.73 294.39C172.74 294.39 174.24 294.83 175.24 295.72C176.24 296.6 176.73 297.77 176.73 299.23C176.73 300.36 176.49 301.31 176.01 302.07C175.53 302.83 174.87 303.41 174.02 303.79C173.17 304.18 172.18 304.37 171.05 304.37L171.04 304.38ZM167.49 306.81C166.36 306.58 165.57 306.26 165.12 305.85C164.67 305.44 164.45 304.99 164.45 304.49C164.45 304.1 164.54 303.76 164.71 303.47C164.88 303.18 165.1 302.95 165.34 302.77C165.59 302.59 165.82 302.47 166.05 302.41L168.52 303.66C168.2 303.77 167.97 303.91 167.81 304.08C167.65 304.25 167.58 304.42 167.58 304.6C167.58 304.83 167.71 305.05 167.96 305.24C168.21 305.43 168.57 305.53 169.04 305.53L167.48 306.82L167.49 306.81ZM170.59 311.41C171.16 311.41 171.66 311.35 172.1 311.24C172.54 311.12 172.89 310.94 173.15 310.69C173.41 310.44 173.54 310.11 173.54 309.7C173.54 309.34 173.44 309.06 173.23 308.86C173.02 308.66 172.77 308.51 172.46 308.43C172.15 308.35 171.82 308.31 171.49 308.31H169.16C168.85 308.31 168.57 308.35 168.3 308.43C168.03 308.51 167.83 308.65 167.66 308.86C167.5 309.07 167.42 309.36 167.42 309.75C167.42 310.14 167.56 310.45 167.83 310.7C168.11 310.95 168.48 311.13 168.95 311.25C169.43 311.37 169.97 311.42 170.57 311.42L170.59 311.41ZM170.7 301.41C171.23 301.41 171.68 301.33 172.05 301.16C172.42 300.99 172.69 300.75 172.88 300.42C173.07 300.09 173.16 299.7 173.16 299.23C173.16 298.85 173.05 298.51 172.84 298.22C172.63 297.93 172.35 297.7 172 297.54C171.65 297.38 171.27 297.3 170.86 297.3C170.18 297.3 169.57 297.45 169.03 297.74C168.49 298.03 168.22 298.55 168.22 299.29C168.22 299.98 168.46 300.51 168.93 300.87C169.4 301.23 169.99 301.41 170.7 301.41ZM175.68 297.55L173.48 295.7C173.58 295.38 173.77 295.03 174.05 294.66C174.33 294.29 174.65 293.94 175.01 293.62C175.37 293.3 175.72 293.06 176.07 292.89C176.19 293.07 176.35 293.31 176.57 293.62C176.79 293.93 177.01 294.24 177.24 294.56C177.47 294.88 177.67 295.14 177.84 295.35C177.65 295.44 177.44 295.56 177.22 295.72C177 295.87 176.78 296.05 176.58 296.24C176.37 296.44 176.19 296.65 176.03 296.87C175.87 297.09 175.76 297.32 175.68 297.56V297.55Z" fill="white"/>
<path d="M61.3201 0C67.7901 0 73.0301 5.24 73.0301 11.71V25.86C73.0301 37.44 82.4201 46.83 94.0001 46.83H188.02C199.6 46.83 208.99 37.44 208.99 25.86V11.71C208.98 5.24 214.22 0 220.68 0" fill="white"/>
<path d="M254.96 1.99977C268.78 1.99977 280.02 13.2398 280.02 27.0598V349.26C280.02 363.08 268.78 374.32 254.96 374.32H27.05C13.23 374.32 1.99001 363.08 1.99001 349.26V27.0598C1.99001 13.2398 13.23 1.99977 27.05 1.99977H254.96ZM254.96 0.0197656H27.05C12.11 0.0197656 0.0100098 12.1298 0.0100098 27.0598V349.26C0.0100098 364.2 12.12 376.3 27.05 376.3H254.96C269.9 376.3 282 364.19 282 349.26V27.0598C282 12.1198 269.89 0.00976562 254.96 0.00976562V0.0197656Z" fill="#1B4799"/>
<path d="M103.589 10.681H108.825C108.893 10.7943 108.956 10.9417 109.012 11.123C109.069 11.293 109.097 11.48 109.097 11.684C109.097 12.0467 109.012 12.3187 108.842 12.5C108.684 12.6813 108.463 12.772 108.179 12.772H103.606L103.589 10.681ZM105.986 12.772H100.75C100.682 12.6587 100.62 12.517 100.563 12.347C100.507 12.1657 100.478 11.9673 100.478 11.752C100.478 11.3893 100.558 11.123 100.716 10.953C100.886 10.7717 101.107 10.681 101.379 10.681H105.969L105.986 12.772ZM106.037 12.313V20.983C105.935 21.0057 105.771 21.034 105.544 21.068C105.318 21.102 105.085 21.119 104.847 21.119C104.349 21.119 103.992 21.0283 103.776 20.847C103.572 20.6657 103.47 20.354 103.47 19.912V12.313H106.037ZM109.973 16.597H112.472V17.804C112.472 18.3253 112.608 18.705 112.88 18.943C113.152 19.1697 113.532 19.283 114.019 19.283C114.325 19.283 114.58 19.2547 114.784 19.198C114.999 19.1413 115.158 19.079 115.26 19.011V16.597H117.759V19.317C117.759 19.589 117.708 19.8213 117.606 20.014C117.504 20.2067 117.334 20.3767 117.096 20.524C116.733 20.7507 116.286 20.9263 115.753 21.051C115.232 21.187 114.648 21.255 114.002 21.255C113.197 21.255 112.489 21.136 111.877 20.898C111.276 20.66 110.806 20.2917 110.466 19.793C110.137 19.283 109.973 18.6257 109.973 17.821V16.597ZM115.26 17.362V12.874C115.362 12.84 115.515 12.806 115.719 12.772C115.923 12.738 116.144 12.721 116.382 12.721C116.869 12.721 117.221 12.806 117.436 12.976C117.651 13.1347 117.759 13.4463 117.759 13.911V17.362H115.26ZM109.973 17.362V12.874C110.075 12.84 110.228 12.806 110.432 12.772C110.636 12.738 110.857 12.721 111.095 12.721C111.582 12.721 111.934 12.806 112.149 12.976C112.364 13.1347 112.472 13.4463 112.472 13.911V17.362H109.973ZM111.044 10.069C111.033 10.0237 111.021 9.967 111.01 9.899C111.01 9.81967 111.01 9.75733 111.01 9.712C111.01 9.36067 111.112 9.083 111.316 8.879C111.531 8.675 111.798 8.573 112.115 8.573C112.308 8.573 112.495 8.61267 112.676 8.692C112.857 8.77133 113.033 8.913 113.203 9.117L114.716 11.004C114.682 11.3553 114.557 11.616 114.342 11.786C114.138 11.956 113.917 12.041 113.679 12.041C113.464 12.041 113.282 12.007 113.135 11.939C112.999 11.871 112.852 11.769 112.693 11.633L111.044 10.069ZM117.385 15.781C117.306 15.6677 117.238 15.458 117.181 15.152C117.136 14.8347 117.113 14.5287 117.113 14.234C117.521 14.234 117.861 14.1093 118.133 13.86C118.405 13.5993 118.541 13.1687 118.541 12.568V11.99C118.688 11.9107 118.83 11.854 118.966 11.82C119.102 11.7747 119.272 11.752 119.476 11.752C119.793 11.752 120.06 11.8313 120.275 11.99C120.502 12.1373 120.615 12.3923 120.615 12.755V12.874C120.615 13.4973 120.479 14.03 120.207 14.472C119.946 14.9027 119.595 15.2313 119.153 15.458C118.722 15.6733 118.246 15.781 117.725 15.781H117.385ZM132.07 11.803C132.07 12.0183 132.019 12.2223 131.917 12.415C131.826 12.6077 131.707 12.755 131.56 12.857C131.277 12.721 130.971 12.6133 130.642 12.534C130.313 12.4547 129.996 12.415 129.69 12.415C128.965 12.415 128.387 12.6303 127.956 13.061C127.525 13.4917 127.259 14.1263 127.157 14.965C127.384 14.7837 127.695 14.6137 128.092 14.455C128.489 14.2963 128.925 14.217 129.401 14.217C130.432 14.217 131.26 14.5173 131.883 15.118C132.506 15.7073 132.818 16.5573 132.818 17.668C132.818 18.3253 132.665 18.926 132.359 19.47C132.053 20.014 131.611 20.4503 131.033 20.779C130.455 21.0963 129.735 21.255 128.874 21.255C128.024 21.255 127.282 21.0623 126.647 20.677C126.012 20.2917 125.519 19.7193 125.168 18.96C124.828 18.1893 124.658 17.243 124.658 16.121C124.658 15.1463 124.777 14.302 125.015 13.588C125.253 12.8627 125.587 12.2677 126.018 11.803C126.449 11.3383 126.947 10.9927 127.514 10.766C128.092 10.5393 128.721 10.426 129.401 10.426C129.945 10.426 130.415 10.477 130.812 10.579C131.22 10.681 131.532 10.834 131.747 11.038C131.962 11.242 132.07 11.497 132.07 11.803ZM128.891 19.249C129.333 19.249 129.673 19.1073 129.911 18.824C130.16 18.5293 130.285 18.144 130.285 17.668C130.285 17.192 130.155 16.8237 129.894 16.563C129.645 16.291 129.305 16.155 128.874 16.155C128.557 16.155 128.251 16.223 127.956 16.359C127.661 16.495 127.423 16.6707 127.242 16.886L127.259 17.175C127.259 17.8663 127.412 18.3877 127.718 18.739C128.024 19.079 128.415 19.249 128.891 19.249ZM140.33 16.512V18.331C140.33 18.6597 140.432 18.8977 140.636 19.045C140.84 19.181 141.123 19.249 141.486 19.249C141.667 19.249 141.854 19.232 142.047 19.198C142.239 19.164 142.409 19.1187 142.557 19.062C142.647 19.164 142.727 19.2887 142.795 19.436C142.863 19.572 142.897 19.7363 142.897 19.929C142.897 20.3143 142.738 20.6317 142.421 20.881C142.115 21.119 141.588 21.238 140.84 21.238C139.899 21.238 139.162 21.0283 138.63 20.609C138.108 20.1783 137.848 19.4757 137.848 18.501V16.512H140.33ZM139.412 13.027H142.693C142.749 13.1177 142.806 13.248 142.863 13.418C142.919 13.588 142.948 13.775 142.948 13.979C142.948 14.319 142.868 14.5683 142.71 14.727C142.562 14.8857 142.358 14.965 142.098 14.965H139.412V13.027ZM137.848 16.937V10.834C137.95 10.8 138.103 10.766 138.307 10.732C138.511 10.6867 138.726 10.664 138.953 10.664C139.429 10.664 139.774 10.749 139.99 10.919C140.216 11.089 140.33 11.395 140.33 11.837V16.937H137.848ZM149.775 17.532V16.019C149.775 15.4977 149.639 15.1293 149.367 14.914C149.095 14.6873 148.755 14.574 148.347 14.574C147.985 14.574 147.656 14.642 147.361 14.778C147.078 14.914 146.829 15.067 146.613 15.237L146.562 13.214C146.823 13.0553 147.146 12.9137 147.531 12.789C147.917 12.653 148.342 12.585 148.806 12.585C149.872 12.585 150.716 12.8627 151.339 13.418C151.963 13.962 152.274 14.7837 152.274 15.883V17.532H149.775ZM146.987 16.512V20.983C146.885 21.0057 146.732 21.034 146.528 21.068C146.324 21.102 146.103 21.119 145.865 21.119C145.389 21.119 145.038 21.034 144.811 20.864C144.596 20.694 144.488 20.388 144.488 19.946V16.512H146.987ZM152.274 16.512V20.983C152.172 21.0057 152.019 21.034 151.815 21.068C151.611 21.102 151.39 21.119 151.152 21.119C150.676 21.119 150.325 21.034 150.098 20.864C149.883 20.694 149.775 20.388 149.775 19.946V16.512H152.274ZM144.488 17.804V9.933C144.59 9.899 144.743 9.865 144.947 9.831C145.151 9.797 145.372 9.78 145.61 9.78C146.098 9.78 146.449 9.865 146.664 10.035C146.88 10.1937 146.987 10.4997 146.987 10.953V17.804H144.488ZM157.615 19.402C157.876 19.402 158.131 19.3737 158.38 19.317C158.641 19.2603 158.828 19.198 158.941 19.13V17.498L157.496 17.617C157.111 17.651 156.805 17.736 156.578 17.872C156.363 18.008 156.255 18.212 156.255 18.484C156.255 18.7673 156.363 18.994 156.578 19.164C156.793 19.3227 157.139 19.402 157.615 19.402ZM157.513 12.585C158.68 12.585 159.615 12.8343 160.318 13.333C161.021 13.8203 161.372 14.5797 161.372 15.611V19.47C161.372 19.7533 161.298 19.9857 161.151 20.167C161.004 20.337 160.822 20.4843 160.607 20.609C160.267 20.813 159.842 20.9717 159.332 21.085C158.833 21.1983 158.261 21.255 157.615 21.255C156.459 21.255 155.535 21.034 154.844 20.592C154.164 20.1387 153.824 19.4643 153.824 18.569C153.824 17.7983 154.062 17.209 154.538 16.801C155.014 16.3817 155.722 16.1267 156.663 16.036L158.941 15.798V15.594C158.941 15.1973 158.788 14.914 158.482 14.744C158.176 14.574 157.751 14.489 157.207 14.489C156.776 14.489 156.351 14.54 155.932 14.642C155.513 14.744 155.139 14.8687 154.81 15.016C154.674 14.914 154.561 14.7723 154.47 14.591C154.379 14.4097 154.334 14.217 154.334 14.013C154.334 13.537 154.589 13.1913 155.099 12.976C155.428 12.8513 155.807 12.755 156.238 12.687C156.68 12.619 157.105 12.585 157.513 12.585ZM158.703 8.488C159.202 8.488 159.581 8.60133 159.842 8.828C160.103 9.04333 160.233 9.29267 160.233 9.576C160.233 9.80267 160.182 9.99533 160.08 10.154C159.978 10.3127 159.802 10.494 159.553 10.698L157.955 12.075C157.536 12.075 157.213 11.973 156.986 11.769C156.759 11.5537 156.646 11.327 156.646 11.089C156.646 10.9643 156.669 10.8453 156.714 10.732C156.771 10.6187 156.867 10.4883 157.003 10.341L158.703 8.488ZM171.116 17.311H168.617V15.798C168.617 15.3673 168.493 15.0557 168.243 14.863C167.994 14.6703 167.671 14.574 167.274 14.574C166.991 14.574 166.73 14.608 166.492 14.676C166.254 14.744 166.033 14.829 165.829 14.931V17.311H163.33V14.659C163.33 14.3757 163.387 14.1433 163.5 13.962C163.625 13.7693 163.806 13.5993 164.044 13.452C164.407 13.2027 164.866 12.9987 165.421 12.84C165.988 12.67 166.611 12.585 167.291 12.585C168.515 12.585 169.456 12.857 170.113 13.401C170.782 13.9337 171.116 14.7043 171.116 15.713V17.311ZM165.829 16.529V20.983C165.727 21.0057 165.574 21.034 165.37 21.068C165.166 21.102 164.945 21.119 164.707 21.119C164.231 21.119 163.88 21.034 163.653 20.864C163.438 20.694 163.33 20.388 163.33 19.946V16.529H165.829ZM171.116 16.529V20.983C171.014 21.0057 170.861 21.034 170.657 21.068C170.453 21.102 170.232 21.119 169.994 21.119C169.518 21.119 169.167 21.034 168.94 20.864C168.725 20.694 168.617 20.388 168.617 19.946V16.529H171.116ZM176.492 20.677C175.812 20.677 175.183 20.5523 174.605 20.303C174.038 20.0423 173.579 19.6173 173.228 19.028C172.888 18.4273 172.718 17.6453 172.718 16.682C172.718 15.7867 172.893 15.0387 173.245 14.438C173.607 13.826 174.112 13.367 174.758 13.061C175.404 12.7437 176.152 12.585 177.002 12.585C177.614 12.585 178.18 12.67 178.702 12.84C179.223 12.9987 179.631 13.1743 179.926 13.367C180.141 13.503 180.311 13.6673 180.436 13.86C180.56 14.0413 180.623 14.2737 180.623 14.557V19.878H178.209V14.846C178.073 14.7667 177.914 14.7043 177.733 14.659C177.563 14.6023 177.347 14.574 177.087 14.574C176.531 14.574 176.078 14.744 175.727 15.084C175.387 15.424 175.217 15.9567 175.217 16.682C175.217 17.4753 175.381 18.025 175.71 18.331C176.038 18.637 176.446 18.79 176.934 18.79C177.308 18.79 177.619 18.722 177.869 18.586C178.118 18.45 178.333 18.3027 178.515 18.144L178.6 20.15C178.362 20.2973 178.067 20.422 177.716 20.524C177.376 20.626 176.968 20.677 176.492 20.677ZM178.243 19.334H180.623V21C180.623 21.782 180.436 22.4223 180.062 22.921C179.699 23.4197 179.2 23.788 178.566 24.026C177.942 24.264 177.24 24.383 176.458 24.383C175.868 24.383 175.347 24.332 174.894 24.23C174.44 24.128 174.089 23.9977 173.84 23.839C173.454 23.5897 173.262 23.2383 173.262 22.785C173.262 22.547 173.307 22.3317 173.398 22.139C173.5 21.9577 173.619 21.8217 173.755 21.731C174.061 21.9123 174.423 22.0653 174.843 22.19C175.262 22.326 175.704 22.394 176.169 22.394C176.803 22.394 177.308 22.275 177.682 22.037C178.056 21.8103 178.243 21.4363 178.243 20.915V19.334ZM109.252 31.007C109.207 30.9163 109.161 30.8087 109.116 30.684C109.071 30.5593 109.048 30.429 109.048 30.293C109.048 29.8057 109.269 29.562 109.711 29.562H114.012C114.057 29.63 114.103 29.7263 114.148 29.851C114.193 29.9757 114.216 30.1117 114.216 30.259C114.216 30.7577 113.995 31.007 113.553 31.007H109.252ZM110.612 32.86H113.111V38.317C113.111 38.5777 113.054 38.8043 112.941 38.997C112.828 39.1783 112.646 39.3427 112.397 39.49C112.091 39.694 111.689 39.8697 111.19 40.017C110.703 40.1757 110.136 40.255 109.49 40.255C108.549 40.255 107.739 40.0963 107.059 39.779C106.379 39.4617 105.852 38.9857 105.478 38.351C105.115 37.705 104.934 36.906 104.934 35.954C104.934 34.9567 105.121 34.1407 105.495 33.506C105.869 32.86 106.379 32.3783 107.025 32.061C107.671 31.7437 108.385 31.585 109.167 31.585C109.575 31.585 109.938 31.6303 110.255 31.721C110.584 31.8117 110.844 31.9193 111.037 32.044V34.118C110.878 33.982 110.669 33.8573 110.408 33.744C110.147 33.6307 109.847 33.574 109.507 33.574C109.099 33.574 108.742 33.659 108.436 33.829C108.13 33.9877 107.892 34.2427 107.722 34.594C107.552 34.9453 107.467 35.3987 107.467 35.954C107.467 36.7473 107.643 37.331 107.994 37.705C108.357 38.079 108.85 38.266 109.473 38.266C109.734 38.266 109.955 38.2377 110.136 38.181C110.329 38.1243 110.487 38.062 110.612 37.994V32.86ZM110.595 33.353V28.542C110.708 28.508 110.867 28.4797 111.071 28.457C111.275 28.423 111.49 28.406 111.717 28.406C112.204 28.406 112.556 28.491 112.771 28.661C112.998 28.8197 113.111 29.1257 113.111 29.579V33.353H110.595ZM122.495 25.669C122.915 25.669 123.226 25.7597 123.43 25.941C123.634 26.1223 123.736 26.3263 123.736 26.553C123.736 26.7343 123.691 26.8987 123.6 27.046C123.51 27.182 123.374 27.3407 123.192 27.522L122.121 28.627C121.781 28.627 121.509 28.5477 121.305 28.389C121.113 28.2303 121.016 28.049 121.016 27.845C121.016 27.743 121.033 27.641 121.067 27.539C121.113 27.437 121.186 27.318 121.288 27.182L122.495 25.669ZM116.273 35.41L120.506 34.747C120.472 34.4183 120.331 34.1237 120.081 33.863C119.832 33.591 119.464 33.455 118.976 33.455C118.455 33.455 118.024 33.6307 117.684 33.982C117.344 34.322 117.169 34.815 117.157 35.461L117.225 36.617C117.339 37.2403 117.611 37.688 118.041 37.96C118.472 38.2207 118.982 38.351 119.571 38.351C120.047 38.351 120.495 38.2887 120.914 38.164C121.334 38.028 121.674 37.8807 121.934 37.722C122.093 37.824 122.229 37.9657 122.342 38.147C122.456 38.3283 122.512 38.521 122.512 38.725C122.512 39.065 122.376 39.3483 122.104 39.575C121.844 39.8017 121.475 39.9717 120.999 40.085C120.535 40.1983 120.002 40.255 119.401 40.255C118.529 40.255 117.747 40.0907 117.055 39.762C116.364 39.4333 115.82 38.9403 115.423 38.283C115.027 37.6257 114.828 36.804 114.828 35.818C114.828 35.0927 114.942 34.4637 115.168 33.931C115.395 33.3983 115.701 32.962 116.086 32.622C116.483 32.2707 116.925 32.01 117.412 31.84C117.911 31.67 118.427 31.585 118.959 31.585C119.741 31.585 120.421 31.7437 120.999 32.061C121.589 32.367 122.048 32.7863 122.376 33.319C122.705 33.8517 122.869 34.4693 122.869 35.172C122.869 35.5233 122.773 35.7897 122.58 35.971C122.388 36.141 122.121 36.2543 121.781 36.311L116.375 37.11L116.273 35.41ZM118.976 29.392C118.693 29.7207 118.449 29.9983 118.245 30.225C118.041 30.4403 117.82 30.6897 117.582 30.973C117.197 30.973 116.885 30.8823 116.647 30.701C116.421 30.5197 116.307 30.293 116.307 30.021C116.307 29.817 116.364 29.6413 116.477 29.494C116.591 29.3467 116.755 29.1653 116.97 28.95L117.667 28.236C117.86 28.0433 118.064 27.8903 118.279 27.777C118.495 27.6637 118.744 27.607 119.027 27.607C119.288 27.607 119.526 27.658 119.741 27.76C119.968 27.862 120.217 28.0773 120.489 28.406L121.747 29.953C121.747 30.225 121.662 30.4573 121.492 30.65C121.334 30.8427 121.09 30.939 120.761 30.939C120.569 30.939 120.393 30.888 120.234 30.786C120.087 30.6727 119.934 30.5253 119.775 30.344L118.976 29.392ZM132.235 36.311H129.736V34.798C129.736 34.3673 129.612 34.0557 129.362 33.863C129.113 33.6703 128.79 33.574 128.393 33.574C128.11 33.574 127.849 33.608 127.611 33.676C127.373 33.744 127.152 33.829 126.948 33.931V36.311H124.449V33.659C124.449 33.3757 124.506 33.1433 124.619 32.962C124.744 32.7693 124.925 32.5993 125.163 32.452C125.526 32.2027 125.985 31.9987 126.54 31.84C127.107 31.67 127.73 31.585 128.41 31.585C129.634 31.585 130.575 31.857 131.232 32.401C131.901 32.9337 132.235 33.7043 132.235 34.713V36.311ZM126.948 35.529V39.983C126.846 40.0057 126.693 40.034 126.489 40.068C126.285 40.102 126.064 40.119 125.826 40.119C125.35 40.119 124.999 40.034 124.772 39.864C124.557 39.694 124.449 39.388 124.449 38.946V35.529H126.948ZM132.235 35.529V39.983C132.133 40.0057 131.98 40.034 131.776 40.068C131.572 40.102 131.351 40.119 131.113 40.119C130.637 40.119 130.286 40.034 130.059 39.864C129.844 39.694 129.736 39.388 129.736 38.946V35.529H132.235ZM139.365 37.382V32.061L137.546 32.707C137.376 32.605 137.212 32.4633 137.053 32.282C136.906 32.1007 136.832 31.857 136.832 31.551C136.832 30.9503 137.195 30.531 137.92 30.293L139.943 29.545H140.504C140.923 29.545 141.252 29.6697 141.49 29.919C141.739 30.157 141.864 30.4913 141.864 30.922V37.382H139.365ZM141.864 35.512V39.983C141.762 40.017 141.609 40.051 141.405 40.085C141.201 40.119 140.98 40.136 140.742 40.136C140.266 40.136 139.915 40.051 139.688 39.881C139.473 39.711 139.365 39.405 139.365 38.963V35.512H141.864ZM150.075 35.512V37.331C150.075 37.6597 150.177 37.8977 150.381 38.045C150.585 38.181 150.868 38.249 151.231 38.249C151.412 38.249 151.599 38.232 151.792 38.198C151.985 38.164 152.155 38.1187 152.302 38.062C152.393 38.164 152.472 38.2887 152.54 38.436C152.608 38.572 152.642 38.7363 152.642 38.929C152.642 39.3143 152.483 39.6317 152.166 39.881C151.86 40.119 151.333 40.238 150.585 40.238C149.644 40.238 148.908 40.0283 148.375 39.609C147.854 39.1783 147.593 38.4757 147.593 37.501V35.512H150.075ZM149.157 32.027H152.438C152.495 32.1177 152.551 32.248 152.608 32.418C152.665 32.588 152.693 32.775 152.693 32.979C152.693 33.319 152.614 33.5683 152.455 33.727C152.308 33.8857 152.104 33.965 151.843 33.965H149.157V32.027ZM147.593 35.937V29.834C147.695 29.8 147.848 29.766 148.052 29.732C148.256 29.6867 148.471 29.664 148.698 29.664C149.174 29.664 149.52 29.749 149.735 29.919C149.962 30.089 150.075 30.395 150.075 30.837V35.937H147.593ZM154.183 35.597H156.682V36.804C156.682 37.3253 156.818 37.705 157.09 37.943C157.362 38.1697 157.742 38.283 158.229 38.283C158.535 38.283 158.79 38.2547 158.994 38.198C159.209 38.1413 159.368 38.079 159.47 38.011V35.597H161.969V38.317C161.969 38.589 161.918 38.8213 161.816 39.014C161.714 39.2067 161.544 39.3767 161.306 39.524C160.943 39.7507 160.496 39.9263 159.963 40.051C159.442 40.187 158.858 40.255 158.212 40.255C157.407 40.255 156.699 40.136 156.087 39.898C155.486 39.66 155.016 39.2917 154.676 38.793C154.347 38.283 154.183 37.6257 154.183 36.821V35.597ZM159.47 36.362V31.874C159.572 31.84 159.725 31.806 159.929 31.772C160.133 31.738 160.354 31.721 160.592 31.721C161.079 31.721 161.431 31.806 161.646 31.976C161.861 32.1347 161.969 32.4463 161.969 32.911V36.362H159.47ZM154.183 36.362V31.874C154.285 31.84 154.438 31.806 154.642 31.772C154.846 31.738 155.067 31.721 155.305 31.721C155.792 31.721 156.144 31.806 156.359 31.976C156.574 32.1347 156.682 32.4463 156.682 32.911V36.362H154.183ZM170.796 25.023C171.317 25.023 171.753 25.159 172.105 25.431C172.467 25.6917 172.649 26.077 172.649 26.587C172.649 26.9837 172.518 27.2897 172.258 27.505C171.997 27.709 171.714 27.8223 171.408 27.845V28.355C171.328 28.389 171.238 28.4173 171.136 28.44C171.045 28.4513 170.926 28.457 170.779 28.457C170.552 28.457 170.376 28.4287 170.252 28.372C170.138 28.3153 170.082 28.2133 170.082 28.066V27.437C170.082 27.2783 170.116 27.165 170.184 27.097C170.252 27.0177 170.359 26.978 170.507 26.978H170.609C170.994 26.978 171.187 26.842 171.187 26.57C171.187 26.4453 171.136 26.349 171.034 26.281C170.932 26.2017 170.784 26.162 170.592 26.162C170.422 26.162 170.257 26.1903 170.099 26.247C169.94 26.3037 169.804 26.3603 169.691 26.417C169.475 26.2697 169.368 26.0713 169.368 25.822C169.368 25.5727 169.498 25.38 169.759 25.244C170.031 25.0967 170.376 25.023 170.796 25.023ZM172.173 35.92C172.173 36.804 171.997 37.5747 171.646 38.232C171.294 38.878 170.796 39.3767 170.15 39.728C169.504 40.0793 168.744 40.255 167.872 40.255C167.01 40.255 166.251 40.085 165.594 39.745C164.948 39.3937 164.449 38.895 164.098 38.249C163.746 37.5917 163.571 36.8153 163.571 35.92C163.571 35.036 163.746 34.271 164.098 33.625C164.46 32.979 164.965 32.4803 165.611 32.129C166.268 31.7663 167.022 31.585 167.872 31.585C168.733 31.585 169.487 31.7663 170.133 32.129C170.779 32.4803 171.277 32.9847 171.629 33.642C171.991 34.288 172.173 35.0473 172.173 35.92ZM167.872 33.574C167.339 33.574 166.914 33.778 166.597 34.186C166.291 34.594 166.138 35.172 166.138 35.92C166.138 36.6793 166.285 37.263 166.58 37.671C166.886 38.079 167.316 38.283 167.872 38.283C168.427 38.283 168.852 38.079 169.147 37.671C169.453 37.2517 169.606 36.668 169.606 35.92C169.606 35.1833 169.453 34.611 169.147 34.203C168.841 33.7837 168.416 33.574 167.872 33.574ZM167.872 29.392C167.577 29.7207 167.328 29.9983 167.124 30.225C166.92 30.4403 166.699 30.6897 166.461 30.973C166.075 30.973 165.769 30.8823 165.543 30.701C165.316 30.5197 165.203 30.293 165.203 30.021C165.203 29.817 165.254 29.6413 165.356 29.494C165.469 29.3467 165.633 29.1653 165.849 28.95L166.546 28.236C166.738 28.0433 166.942 27.8903 167.158 27.777C167.373 27.6637 167.622 27.607 167.906 27.607C168.166 27.607 168.404 27.658 168.62 27.76C168.846 27.862 169.096 28.0773 169.368 28.406L170.626 29.953C170.626 30.225 170.546 30.4573 170.388 30.65C170.229 30.8427 169.98 30.939 169.64 30.939C169.447 30.939 169.271 30.888 169.113 30.786C168.965 30.6727 168.812 30.5253 168.654 30.344L167.872 29.392ZM173.688 29.494C173.688 29.1087 173.818 28.7857 174.079 28.525C174.351 28.2643 174.691 28.134 175.099 28.134C175.507 28.134 175.841 28.2643 176.102 28.525C176.362 28.7857 176.493 29.1087 176.493 29.494C176.493 29.868 176.362 30.191 176.102 30.463C175.841 30.7237 175.507 30.854 175.099 30.854C174.691 30.854 174.351 30.7237 174.079 30.463C173.818 30.191 173.688 29.868 173.688 29.494ZM176.357 35.512V39.983C176.243 40.0057 176.085 40.034 175.881 40.068C175.677 40.102 175.456 40.119 175.218 40.119C174.742 40.119 174.39 40.034 174.164 39.864C173.948 39.694 173.841 39.388 173.841 38.946V35.512H176.357ZM173.841 36.804V31.942C173.954 31.908 174.113 31.874 174.317 31.84C174.521 31.806 174.742 31.789 174.98 31.789C175.456 31.789 175.801 31.874 176.017 32.044C176.243 32.2027 176.357 32.5087 176.357 32.962V36.804H173.841Z" fill="#1B449C"/>
</svg>
